<svg width="18" height="20" viewBox="0 0 18 20" fill="none" xmlns="http://www.w3.org/2000/svg">
<path d="M2.84279 2.56831C6.2432 -0.832097 11.7564 -0.832097 15.1568 2.56831C18.5572 5.96872 18.5572 11.4819 15.1568 14.8823L13.9698 16.0562C13.0949 16.9149 11.9598 18.0188 10.5639 19.3684C9.69169 20.2117 8.30787 20.2116 7.43576 19.3681L3.94466 15.9723C3.5059 15.5414 3.13863 15.1781 2.84279 14.8823C-0.557622 11.4819 -0.557622 5.96872 2.84279 2.56831ZM14.0961 3.62897C11.2815 0.814349 6.71807 0.814349 3.90345 3.62897C1.08882 6.4436 1.08882 11.007 3.90345 13.8216L5.39052 15.2891C6.20943 16.0905 7.23889 17.0909 8.47857 18.2899C8.76927 18.5711 9.23055 18.5711 9.5213 18.29L12.9162 14.9885C13.3851 14.5282 13.7785 14.1393 14.0961 13.8216C16.9107 11.007 16.9107 6.4436 14.0961 3.62897ZM8.99978 5.99897C10.6575 5.99897 12.0013 7.34281 12.0013 9.00052C12.0013 10.6582 10.6575 12.0021 8.99978 12.0021C7.34207 12.0021 5.99823 10.6582 5.99823 9.00052C5.99823 7.34281 7.34207 5.99897 8.99978 5.99897ZM8.99978 7.49897C8.17049 7.49897 7.49823 8.17124 7.49823 9.00052C7.49823 9.8298 8.17049 10.5021 8.99978 10.5021C9.82906 10.5021 10.5013 9.8298 10.5013 9.00052C10.5013 8.17124 9.82906 7.49897 8.99978 7.49897Z" fill="#F74857"/>
</svg>
