<svg width="90" height="101" viewBox="0 0 90 101" fill="none" xmlns="http://www.w3.org/2000/svg">
<mask id="path-1-inside-1_454_3155" fill="white">
<path fill-rule="evenodd" clip-rule="evenodd" d="M41.7334 0.311182C38.3363 1.22622 35.6418 3.79575 34.5975 7.11606C34.1685 8.48032 34.1601 8.69614 34.1601 18.4676V28.4286L34.6754 29.8379C35.3271 31.6209 36.6613 33.4995 38.0018 34.5219C39.284 35.5 39.9047 35.8186 41.3404 36.236L42.4609 36.5618V47.5928C42.4609 56.7172 42.5086 58.7149 42.7369 59.1512C42.8887 59.4413 44.5906 61.2387 46.5189 63.1454C49.8553 66.4444 50.0617 66.6122 50.7859 66.6122C51.514 66.6122 51.7101 66.4485 55.3535 62.8022L59.1601 58.9922L59.2246 56.5034L59.2891 54.0145L60.8228 52.4405C63.017 50.1887 63.0338 49.8502 61.0543 47.8194L59.9656 46.7024L61.1635 45.4549C63.0435 43.4969 62.9951 43.0606 60.6394 40.7385L59.2578 39.3766V37.9829V36.5889L60.5762 36.1579C63.7971 35.1045 66.3209 32.4303 67.1695 29.1721C67.6053 27.4995 67.5988 9.21548 67.1619 7.53833C66.2338 3.97485 63.3605 1.14458 59.8256 0.311377C58.0646 -0.103662 43.2744 -0.103857 41.7334 0.311182ZM59.5193 3.72603C61.1426 4.22739 62.7094 5.59575 63.4973 7.20005L64.043 8.31138V18.37V28.4286L63.4703 29.5594C62.84 30.8043 61.6687 31.9958 60.4779 32.6032C59.0494 33.3319 57.5451 33.4424 49.9607 33.3752L42.7539 33.3114L41.5387 32.75C39.9529 32.0176 38.5646 30.5624 37.9924 29.0331C37.5699 27.9038 37.5652 27.7663 37.6201 18.0028L37.6758 8.11606L38.2195 7.08403C39.1723 5.27563 40.7875 3.97153 42.6043 3.54341C43.009 3.4481 46.6924 3.36138 50.79 3.35044C57.7484 3.33228 58.3246 3.35688 59.5193 3.72603ZM44.276 6.92896C43.085 7.30884 41.9789 8.27075 41.4021 9.42817C40.9348 10.3659 40.8984 10.6313 40.8984 13.1008C40.8984 16.9979 39.8072 16.6122 50.832 16.6122H59.8615L60.3557 16.118C60.8432 15.6305 60.8488 15.5893 60.7861 12.9442C60.7365 10.8514 60.6459 10.1102 60.3719 9.55981C59.9109 8.63442 58.9803 7.69829 57.9986 7.1727C57.2406 6.76685 56.9502 6.74712 51.1523 6.70786C46.533 6.67661 44.9029 6.72896 44.276 6.92896ZM57.0289 10.6172C57.4019 11.0512 57.5 11.3864 57.5 12.2286V13.2918H50.8594H44.2187V12.1374C44.2187 11.0838 44.2723 10.9379 44.8297 10.4688L45.4406 9.95454L50.9992 10.012L56.5578 10.0692L57.0289 10.6172ZM55.7726 38.6776L55.8398 40.6258L57.1592 41.9549L58.4783 43.2838L57.3814 44.3524C56.0744 45.6256 55.658 46.4436 55.9398 47.1848C56.0473 47.4672 56.6312 48.2184 57.2379 48.8543L58.3406 50.0106L57.2379 51.1669C56.6312 51.8028 56.0467 52.5555 55.9387 52.8397C55.8307 53.1239 55.7422 54.3374 55.7422 55.5366V57.7168L54.233 59.2348C53.4031 60.0698 52.656 60.7528 52.5728 60.7528C52.4898 60.7528 52.4219 56.0946 52.4219 50.4012V40.0497H50.7617H49.1016V50.4458V60.8418L47.4414 59.1903L45.7812 57.5387V47.134V36.7293H50.7434H55.7057L55.7726 38.6776ZM36.2408 68.5797C34.4053 68.9407 32.1004 70.0381 30.6783 71.2282L30.1264 71.6903H24.0127H17.899L17.6523 71.0952C17.1707 69.9321 17.0248 69.9129 9.04179 69.9745L1.80176 70.0301L1.33066 70.5782L0.859375 71.1262V85.0895V99.0526L1.37617 99.5317L1.89297 100.011H15.916H29.9391L30.4832 99.5426C30.9187 99.168 31.0475 98.862 31.1289 98.0073L31.2305 96.9399L41.991 98.4934L52.7516 100.047L65.2088 98.484L77.666 96.9208L79.0754 96.2243C80.9687 95.2885 81.8445 94.2965 84.1183 90.512C86.6682 86.268 88.9834 80.9458 89.1023 79.0545C89.1767 77.8686 89.1203 77.5948 88.5703 76.4778C87.5849 74.4758 85.9244 73.4081 83.7695 73.3903C82.3131 73.3782 81.3621 73.6866 80.2594 74.5284C79.5158 75.096 79.3711 75.1434 79.1603 74.8897C78.7414 74.385 77.3625 73.6741 76.3742 73.4534C74.9617 73.1379 73.4754 73.4696 72.1146 74.4044L71.0066 75.1655L70.5818 74.7131C69.3949 73.4499 66.6433 73.0045 64.8803 73.7905L63.96 74.201L63.1224 73.778C62.3379 73.3817 61.9564 73.3508 57.0611 73.2874L51.8371 73.2198L51.2994 72.5899C49.7918 70.8239 47.4162 69.4036 44.8891 68.7573C43.6629 68.4436 42.7775 68.3741 40.2324 68.3915C38.5041 68.4032 36.7078 68.4879 36.2408 68.5797ZM44.0154 71.9948C45.8566 72.4135 47.3812 73.37 49.0555 75.1567L50.4744 76.6708L56.251 76.7684L62.0273 76.8661L62.4004 77.3272C62.7113 77.7116 62.7734 78.1098 62.7734 79.7198V81.6512H53.4961H44.2187V83.3114V84.9715H51.25C55.1172 84.9715 58.2812 85.0047 58.2812 85.0454C58.2812 85.086 58.1455 85.444 57.9797 85.8409C57.6424 86.6483 57.7404 87.1999 58.3377 87.8524L58.74 88.2918H67.7664C76.0822 88.2918 76.8238 88.2649 77.1875 87.9501C77.4047 87.7622 78.5172 85.411 79.6598 82.7254C81.9646 77.3077 82.3267 76.7684 83.6599 76.7684C84.6541 76.7684 85.5625 77.5059 85.741 78.4581C85.9959 79.8163 81.7549 88.6335 79.2517 91.9497C78.99 92.2963 78.3812 92.8112 77.8992 93.0938C77.0808 93.5733 76.2148 93.7088 64.9086 95.128L52.7947 96.6483L42.0217 95.1067C36.0965 94.259 31.2225 93.5653 31.1906 93.5653C31.1588 93.5653 31.1328 89.4909 31.1328 84.5112V75.4571L32.1109 74.479C33.2207 73.3692 34.8822 72.4147 36.4281 71.9991C37.8982 71.6036 42.2851 71.6012 44.0154 71.9948ZM14.484 85.0204L14.4336 96.5926L9.30664 96.6448L4.17969 96.6967V85.0725V73.4481H9.35703H14.5344L14.484 85.0204ZM27.8125 85.8504V96.6903H22.832H17.8516V85.8504V75.0106H22.832H27.8125V85.8504ZM68.4525 77.3393C69.3348 78.2217 69.2338 79.0797 67.8752 82.2372L66.7406 84.8739L65.9264 84.934L65.1123 84.9942L65.6107 84.4958C66.1092 83.9973 66.1094 83.9963 66.0933 80.5294C66.0847 78.6219 66.0812 76.9956 66.0855 76.9149C66.09 76.8342 66.4961 76.7684 66.9877 76.7684C67.7152 76.7684 67.9879 76.8747 68.4525 77.3393ZM76.417 77.0467C77.0111 77.354 77.4219 78.0862 77.4219 78.8381C77.4219 79.1071 76.8806 80.5971 76.2193 82.1493L75.0168 84.9715H72.6828C70.8932 84.9715 70.3719 84.9145 70.4476 84.7274C72.0508 80.7641 73.4666 77.7499 73.9338 77.3055C74.5777 76.6928 75.539 76.5928 76.417 77.0467Z"/>
</mask>
<path fill-rule="evenodd" clip-rule="evenodd" d="M41.7334 0.311182C38.3363 1.22622 35.6418 3.79575 34.5975 7.11606C34.1685 8.48032 34.1601 8.69614 34.1601 18.4676V28.4286L34.6754 29.8379C35.3271 31.6209 36.6613 33.4995 38.0018 34.5219C39.284 35.5 39.9047 35.8186 41.3404 36.236L42.4609 36.5618V47.5928C42.4609 56.7172 42.5086 58.7149 42.7369 59.1512C42.8887 59.4413 44.5906 61.2387 46.5189 63.1454C49.8553 66.4444 50.0617 66.6122 50.7859 66.6122C51.514 66.6122 51.7101 66.4485 55.3535 62.8022L59.1601 58.9922L59.2246 56.5034L59.2891 54.0145L60.8228 52.4405C63.017 50.1887 63.0338 49.8502 61.0543 47.8194L59.9656 46.7024L61.1635 45.4549C63.0435 43.4969 62.9951 43.0606 60.6394 40.7385L59.2578 39.3766V37.9829V36.5889L60.5762 36.1579C63.7971 35.1045 66.3209 32.4303 67.1695 29.1721C67.6053 27.4995 67.5988 9.21548 67.1619 7.53833C66.2338 3.97485 63.3605 1.14458 59.8256 0.311377C58.0646 -0.103662 43.2744 -0.103857 41.7334 0.311182ZM59.5193 3.72603C61.1426 4.22739 62.7094 5.59575 63.4973 7.20005L64.043 8.31138V18.37V28.4286L63.4703 29.5594C62.84 30.8043 61.6687 31.9958 60.4779 32.6032C59.0494 33.3319 57.5451 33.4424 49.9607 33.3752L42.7539 33.3114L41.5387 32.75C39.9529 32.0176 38.5646 30.5624 37.9924 29.0331C37.5699 27.9038 37.5652 27.7663 37.6201 18.0028L37.6758 8.11606L38.2195 7.08403C39.1723 5.27563 40.7875 3.97153 42.6043 3.54341C43.009 3.4481 46.6924 3.36138 50.79 3.35044C57.7484 3.33228 58.3246 3.35688 59.5193 3.72603ZM44.276 6.92896C43.085 7.30884 41.9789 8.27075 41.4021 9.42817C40.9348 10.3659 40.8984 10.6313 40.8984 13.1008C40.8984 16.9979 39.8072 16.6122 50.832 16.6122H59.8615L60.3557 16.118C60.8432 15.6305 60.8488 15.5893 60.7861 12.9442C60.7365 10.8514 60.6459 10.1102 60.3719 9.55981C59.9109 8.63442 58.9803 7.69829 57.9986 7.1727C57.2406 6.76685 56.9502 6.74712 51.1523 6.70786C46.533 6.67661 44.9029 6.72896 44.276 6.92896ZM57.0289 10.6172C57.4019 11.0512 57.5 11.3864 57.5 12.2286V13.2918H50.8594H44.2187V12.1374C44.2187 11.0838 44.2723 10.9379 44.8297 10.4688L45.4406 9.95454L50.9992 10.012L56.5578 10.0692L57.0289 10.6172ZM55.7726 38.6776L55.8398 40.6258L57.1592 41.9549L58.4783 43.2838L57.3814 44.3524C56.0744 45.6256 55.658 46.4436 55.9398 47.1848C56.0473 47.4672 56.6312 48.2184 57.2379 48.8543L58.3406 50.0106L57.2379 51.1669C56.6312 51.8028 56.0467 52.5555 55.9387 52.8397C55.8307 53.1239 55.7422 54.3374 55.7422 55.5366V57.7168L54.233 59.2348C53.4031 60.0698 52.656 60.7528 52.5728 60.7528C52.4898 60.7528 52.4219 56.0946 52.4219 50.4012V40.0497H50.7617H49.1016V50.4458V60.8418L47.4414 59.1903L45.7812 57.5387V47.134V36.7293H50.7434H55.7057L55.7726 38.6776ZM36.2408 68.5797C34.4053 68.9407 32.1004 70.0381 30.6783 71.2282L30.1264 71.6903H24.0127H17.899L17.6523 71.0952C17.1707 69.9321 17.0248 69.9129 9.04179 69.9745L1.80176 70.0301L1.33066 70.5782L0.859375 71.1262V85.0895V99.0526L1.37617 99.5317L1.89297 100.011H15.916H29.9391L30.4832 99.5426C30.9187 99.168 31.0475 98.862 31.1289 98.0073L31.2305 96.9399L41.991 98.4934L52.7516 100.047L65.2088 98.484L77.666 96.9208L79.0754 96.2243C80.9687 95.2885 81.8445 94.2965 84.1183 90.512C86.6682 86.268 88.9834 80.9458 89.1023 79.0545C89.1767 77.8686 89.1203 77.5948 88.5703 76.4778C87.5849 74.4758 85.9244 73.4081 83.7695 73.3903C82.3131 73.3782 81.3621 73.6866 80.2594 74.5284C79.5158 75.096 79.3711 75.1434 79.1603 74.8897C78.7414 74.385 77.3625 73.6741 76.3742 73.4534C74.9617 73.1379 73.4754 73.4696 72.1146 74.4044L71.0066 75.1655L70.5818 74.7131C69.3949 73.4499 66.6433 73.0045 64.8803 73.7905L63.96 74.201L63.1224 73.778C62.3379 73.3817 61.9564 73.3508 57.0611 73.2874L51.8371 73.2198L51.2994 72.5899C49.7918 70.8239 47.4162 69.4036 44.8891 68.7573C43.6629 68.4436 42.7775 68.3741 40.2324 68.3915C38.5041 68.4032 36.7078 68.4879 36.2408 68.5797ZM44.0154 71.9948C45.8566 72.4135 47.3812 73.37 49.0555 75.1567L50.4744 76.6708L56.251 76.7684L62.0273 76.8661L62.4004 77.3272C62.7113 77.7116 62.7734 78.1098 62.7734 79.7198V81.6512H53.4961H44.2187V83.3114V84.9715H51.25C55.1172 84.9715 58.2812 85.0047 58.2812 85.0454C58.2812 85.086 58.1455 85.444 57.9797 85.8409C57.6424 86.6483 57.7404 87.1999 58.3377 87.8524L58.74 88.2918H67.7664C76.0822 88.2918 76.8238 88.2649 77.1875 87.9501C77.4047 87.7622 78.5172 85.411 79.6598 82.7254C81.9646 77.3077 82.3267 76.7684 83.6599 76.7684C84.6541 76.7684 85.5625 77.5059 85.741 78.4581C85.9959 79.8163 81.7549 88.6335 79.2517 91.9497C78.99 92.2963 78.3812 92.8112 77.8992 93.0938C77.0808 93.5733 76.2148 93.7088 64.9086 95.128L52.7947 96.6483L42.0217 95.1067C36.0965 94.259 31.2225 93.5653 31.1906 93.5653C31.1588 93.5653 31.1328 89.4909 31.1328 84.5112V75.4571L32.1109 74.479C33.2207 73.3692 34.8822 72.4147 36.4281 71.9991C37.8982 71.6036 42.2851 71.6012 44.0154 71.9948ZM14.484 85.0204L14.4336 96.5926L9.30664 96.6448L4.17969 96.6967V85.0725V73.4481H9.35703H14.5344L14.484 85.0204ZM27.8125 85.8504V96.6903H22.832H17.8516V85.8504V75.0106H22.832H27.8125V85.8504ZM68.4525 77.3393C69.3348 78.2217 69.2338 79.0797 67.8752 82.2372L66.7406 84.8739L65.9264 84.934L65.1123 84.9942L65.6107 84.4958C66.1092 83.9973 66.1094 83.9963 66.0933 80.5294C66.0847 78.6219 66.0812 76.9956 66.0855 76.9149C66.09 76.8342 66.4961 76.7684 66.9877 76.7684C67.7152 76.7684 67.9879 76.8747 68.4525 77.3393ZM76.417 77.0467C77.0111 77.354 77.4219 78.0862 77.4219 78.8381C77.4219 79.1071 76.8806 80.5971 76.2193 82.1493L75.0168 84.9715H72.6828C70.8932 84.9715 70.3719 84.9145 70.4476 84.7274C72.0508 80.7641 73.4666 77.7499 73.9338 77.3055C74.5777 76.6928 75.539 76.5928 76.417 77.0467Z" fill="url(#paint0_linear_454_3155)" stroke="white" stroke-width="1.2" mask="url(#path-1-inside-1_454_3155)"/>
<defs>
<linearGradient id="paint0_linear_454_3155" x1="45" y1="6.49788e-07" x2="45" y2="100" gradientUnits="userSpaceOnUse">
<stop offset="0.307292" stop-color="#FA7575"/>
<stop offset="1" stop-color="#634CA6"/>
</linearGradient>
</defs>
</svg>
