<svg width="91" height="81" viewBox="0 0 91 81" fill="none" xmlns="http://www.w3.org/2000/svg">
<mask id="path-1-inside-1_454_3163" fill="white">
<path fill-rule="evenodd" clip-rule="evenodd" d="M43.0553 1.22602C34.1789 2.58481 26.5332 8.92836 23.4346 17.5051C21.6666 22.3983 21.5143 28.2784 23.0311 33.0786C23.3494 34.0866 23.6776 34.761 23.9094 34.8852C24.3897 35.142 25.2053 35.1379 25.6947 34.876C26.457 34.468 26.4854 33.8653 25.857 31.428C22.8752 19.8639 29.5377 8.19789 41.0045 4.90414C47.8494 2.93793 55.5463 4.57875 61.0471 9.1766L61.7539 9.76742L61.0959 10.3877C60.2856 11.1522 60.2373 11.8534 60.9463 12.5623C61.4506 13.0666 61.4721 13.0696 63.6801 12.9512C65.9785 12.8282 66.544 12.6705 66.8692 12.0631C66.9737 11.8678 67.1198 10.6918 67.1942 9.44945C67.3288 7.19848 67.3274 7.1893 66.8221 6.68402C66.1727 6.03461 65.2737 6.01117 64.6573 6.62758C64.4096 6.87543 64.161 7.20492 64.1053 7.36C64.028 7.57445 63.8459 7.49574 63.344 7.0309C62.1793 5.95219 60.3258 4.69691 58.5237 3.76625C53.7787 1.31547 48.3229 0.419571 43.0553 1.22602ZM68.191 16.9409C67.4705 17.36 67.4455 17.9723 68.0522 20.325C70.1967 28.6426 67.3573 37.502 60.8756 42.7161C58.0305 45.0049 59.1846 44.7594 49.0914 45.2231C44.2139 45.4471 39.8139 45.7237 39.3137 45.8375C38.4699 46.0297 38.3143 45.9995 37.1653 45.4225C35.5342 44.6036 33.642 43.3207 32.3131 42.133L31.2389 41.1731L31.7641 40.9696C32.7545 40.5858 33.0455 39.136 32.2848 38.3752C31.8879 37.9784 31.7408 37.9623 29.5137 38.0745C27.3295 38.1842 27.126 38.2284 26.6613 38.6926C26.1867 39.1666 26.1574 39.3178 26.0965 41.6038L26.0324 44.0151L26.5623 44.4321C26.8539 44.6612 27.2807 44.8489 27.5108 44.8489C28.0293 44.8489 28.7813 44.3393 28.958 43.868C29.0719 43.5643 29.2813 43.6782 30.4576 44.6844C31.2096 45.3274 32.4151 46.2477 33.1367 46.7291L34.4485 47.6045L29.0258 51.2092L23.6031 54.8137L19.0416 55.5977C13.5822 56.536 13.1109 56.6473 11.1934 57.4502C9.06505 58.3416 7.13263 59.7094 5.39962 61.551C3.69571 63.362 2.92384 64.5625 1.82481 67.112C0.837899 69.401 0.522079 71.1686 0.816805 72.7532C1.13223 74.4495 1.72052 75.6709 2.33477 75.9043C2.61602 76.0114 4.50313 76.0989 6.52794 76.0989H10.2096L10.9281 77.078C11.7959 78.2598 13.4178 79.4584 14.907 80.0178C18.2852 81.2872 22.3621 80.2969 24.786 77.6184C25.3809 76.9608 25.8678 76.35 25.8678 76.261C25.8678 76.1717 35.2627 76.0989 46.7451 76.0989H67.6227L68.3619 77.0684C69.2952 78.292 70.8799 79.4731 72.3147 80.0143C73.7325 80.5489 76.0657 80.7217 77.4518 80.395C79.8274 79.8346 82.3434 78.0274 83.3143 76.1842C83.8387 75.1881 83.6815 75.2448 87.0791 74.8276C89.7455 74.5002 90.1914 74.362 90.5118 73.7635C90.6258 73.5502 90.7116 71.9399 90.7116 70.008V66.6258L89.1555 61.1797C88.2895 58.1493 87.4448 55.5625 87.2512 55.3483C86.7905 54.8383 77.6983 47.7651 76.3694 46.8829C73.7116 45.1182 70.7756 44.3995 66.6051 44.4924C65.0391 44.5274 63.758 44.5434 63.7582 44.528C63.7582 44.5125 64.3338 43.8973 65.0371 43.1608C68.1746 39.8748 70.4762 35.4659 71.4969 30.7864C71.9727 28.6051 71.9914 23.1563 71.5301 21.1184C70.9955 18.7567 70.5682 17.4789 70.1842 17.095C69.7774 16.6881 68.7604 16.6096 68.191 16.9409ZM72.4619 48.4596C74.1557 49.0971 74.7766 49.5202 80.0719 53.644L84.7643 57.2981L85.8125 60.9856C86.3891 63.0137 86.9026 64.827 86.9536 65.0149C87.0379 65.326 86.8438 65.3567 84.7877 65.3567H82.5291L81.2981 64.425C79.6108 63.1481 78.2256 62.5832 76.5026 62.4692C75.7237 62.4178 75.0866 62.3389 75.0866 62.294C75.0866 62.2491 75.2241 61.9465 75.392 61.6217C75.6424 61.1373 75.6864 60.4196 75.6362 57.6291L75.5748 54.2274L72.401 51.0496C70.6555 49.3018 69.2272 47.819 69.2272 47.7541C69.2272 47.5534 71.1934 47.9823 72.4619 48.4596ZM67.65 50.5957L70.4621 53.4131L69.7959 53.519C68.5494 53.7174 54.7795 54.3981 54.5299 54.2739C54.4492 54.2336 54.3834 52.8438 54.3834 51.185C54.3834 48.1946 54.3871 48.169 54.8229 48.1461C55.0647 48.1334 56.4489 48.0606 57.8991 47.9842C59.3492 47.9081 61.5037 47.8305 62.6867 47.812L64.8377 47.7786L67.65 50.5957ZM51.2584 51.3721V54.3799L48.8658 54.492C45.2028 54.6637 29.5787 54.8489 29.5787 54.7207C29.5787 54.6584 31.1053 53.5963 32.9711 52.3606C36.4379 50.0645 38.3703 49.1496 40.3955 48.8459C41.5133 48.6784 46.1821 48.4381 49.1588 48.395L51.2584 48.3645V51.3721ZM72.5475 58.4018V60.2358L71.3518 62.0639C70.694 63.0692 69.7405 64.334 69.2328 64.8743C67.3082 66.9225 66.4928 68.8663 66.4928 71.4051V72.9739H60.4381H54.3834V65.2766V57.5793L55.9948 57.4657C56.8811 57.4032 59.6276 57.2547 62.0983 57.1356C64.569 57.0164 67.5133 56.853 68.6412 56.7723C69.7692 56.6916 71.1094 56.6125 71.6198 56.5965L72.5475 56.5676V58.4018ZM51.2584 65.261V72.9776L41.9323 72.927L32.6061 72.8762L32.1139 69.8489C31.6672 67.102 31.6283 66.4098 31.6955 62.3782L31.7696 57.9348L35.3129 57.9071C39.1272 57.8772 50.3547 57.6428 50.9166 57.5815C51.2369 57.5465 51.2584 58.0276 51.2584 65.261ZM28.5223 62.2805C28.3932 66.3739 28.4141 66.8053 28.8842 69.711C29.1588 71.4075 29.3834 72.8358 29.3834 72.8848C29.3834 72.9338 28.9 72.9739 28.3092 72.9739H27.235V71.8116C27.235 68.0643 25.2844 64.8809 21.9912 63.2534C20.707 62.6186 20.3473 62.5319 18.6985 62.4598C16.418 62.36 14.8137 62.7477 13.2156 63.7842C12.1879 64.451 10.9279 65.6606 10.5115 66.3803C10.3801 66.6075 9.75548 66.7092 7.81759 66.8192L5.29493 66.9623L5.76681 66.1637C7.40724 63.3891 10.1344 61.1172 13.0904 60.0635C13.7264 59.8368 16.4 59.2737 19.0318 58.8122C22.8225 58.1475 24.3203 57.969 26.2383 57.9539L28.6594 57.9348L28.5223 62.2805ZM36.5035 62.5159C36.2012 62.818 36.024 63.2184 36.024 63.5989C36.024 63.9793 36.2012 64.3797 36.5035 64.6819C36.9637 65.1422 37.0854 65.1614 39.5397 65.1614C41.994 65.1614 42.1157 65.1422 42.5758 64.6819C43.0959 64.162 43.199 63.3141 42.8049 62.8006C42.3211 62.1706 41.7145 62.0364 39.3483 62.0364C37.0973 62.0364 36.9596 62.0596 36.5035 62.5159ZM58.0565 62.6301C57.5596 63.127 57.4824 63.3262 57.5838 63.8508C57.8076 65.0092 58.2168 65.1614 61.1092 65.1614C63.5547 65.1614 63.7127 65.1375 64.1151 64.7094C64.6973 64.0895 64.6733 63.1288 64.0602 62.5159C63.602 62.0575 63.4727 62.0364 61.1157 62.0364H58.6502L58.0565 62.6301ZM20.7488 66.1123C21.8813 66.6965 22.9547 67.8073 23.5184 68.9782C23.8781 69.7254 23.9865 70.2811 23.9936 71.4114C24.0045 73.21 23.4906 74.4959 22.292 75.6694C21.0715 76.8639 19.8279 77.3604 18.0553 77.3604C15.6172 77.3604 13.8826 76.2868 12.791 74.1024C12.3065 73.1327 12.1959 72.6698 12.1959 71.6102C12.1959 69.7069 12.6488 68.586 13.9402 67.2932C15.3399 65.8922 16.2678 65.5399 18.3483 65.6198C19.4904 65.6637 20.1363 65.7961 20.7488 66.1123ZM78.1573 66.1053C79.4332 66.7639 80.2938 67.6243 80.8893 68.8368C81.3524 69.7797 81.4327 70.1815 81.4237 71.509C81.4149 72.8004 81.3246 73.2409 80.9034 74.0481C78.6399 78.3852 72.692 78.5499 70.3207 74.3411C69.7678 73.3596 69.7157 73.1151 69.7172 71.509C69.7188 69.985 69.7879 69.6213 70.2369 68.7747C70.9039 67.5168 71.7916 66.6793 73.1334 66.042C74.0754 65.5946 74.3998 65.5409 75.7702 65.6059C76.8809 65.6584 77.5711 65.803 78.1573 66.1053ZM16.5399 68.8713C15.5162 69.4954 15.0922 70.3469 15.1733 71.6155C15.257 72.9293 15.6945 73.5959 16.8463 74.1661C18.4277 74.9485 20.243 74.2002 20.8932 72.4973C21.3045 71.4204 21.1635 70.4815 20.4656 69.6524C19.4512 68.4467 17.7811 68.1145 16.5399 68.8713ZM74.1526 68.8065C72.6846 69.5301 72.0782 71.6571 72.9696 72.9559C73.726 74.0581 74.3948 74.4387 75.5748 74.4387C76.7045 74.4387 77.3571 74.0914 78.1018 73.094C78.6627 72.3428 78.6596 70.6727 78.0959 69.912C77.093 68.5584 75.5395 68.1229 74.1526 68.8065ZM87.5866 70.0301V71.5786L86.4635 71.7063C85.8457 71.7766 85.1996 71.8725 85.0274 71.9198C84.7703 71.9901 84.6924 71.7684 84.5932 70.6831C84.5266 69.9557 84.4155 69.1629 84.3463 68.9211C84.2229 68.4897 84.2514 68.4817 85.9036 68.4817H87.5866V70.0301ZM9.02755 71.509V72.9739H6.53517H4.04278L3.91485 72.1739C3.84435 71.7338 3.84298 71.0746 3.91153 70.709L4.03634 70.0442H6.53185H9.02755V71.509Z"/>
</mask>
<path fill-rule="evenodd" clip-rule="evenodd" d="M43.0553 1.22602C34.1789 2.58481 26.5332 8.92836 23.4346 17.5051C21.6666 22.3983 21.5143 28.2784 23.0311 33.0786C23.3494 34.0866 23.6776 34.761 23.9094 34.8852C24.3897 35.142 25.2053 35.1379 25.6947 34.876C26.457 34.468 26.4854 33.8653 25.857 31.428C22.8752 19.8639 29.5377 8.19789 41.0045 4.90414C47.8494 2.93793 55.5463 4.57875 61.0471 9.1766L61.7539 9.76742L61.0959 10.3877C60.2856 11.1522 60.2373 11.8534 60.9463 12.5623C61.4506 13.0666 61.4721 13.0696 63.6801 12.9512C65.9785 12.8282 66.544 12.6705 66.8692 12.0631C66.9737 11.8678 67.1198 10.6918 67.1942 9.44945C67.3288 7.19848 67.3274 7.1893 66.8221 6.68402C66.1727 6.03461 65.2737 6.01117 64.6573 6.62758C64.4096 6.87543 64.161 7.20492 64.1053 7.36C64.028 7.57445 63.8459 7.49574 63.344 7.0309C62.1793 5.95219 60.3258 4.69691 58.5237 3.76625C53.7787 1.31547 48.3229 0.419571 43.0553 1.22602ZM68.191 16.9409C67.4705 17.36 67.4455 17.9723 68.0522 20.325C70.1967 28.6426 67.3573 37.502 60.8756 42.7161C58.0305 45.0049 59.1846 44.7594 49.0914 45.2231C44.2139 45.4471 39.8139 45.7237 39.3137 45.8375C38.4699 46.0297 38.3143 45.9995 37.1653 45.4225C35.5342 44.6036 33.642 43.3207 32.3131 42.133L31.2389 41.1731L31.7641 40.9696C32.7545 40.5858 33.0455 39.136 32.2848 38.3752C31.8879 37.9784 31.7408 37.9623 29.5137 38.0745C27.3295 38.1842 27.126 38.2284 26.6613 38.6926C26.1867 39.1666 26.1574 39.3178 26.0965 41.6038L26.0324 44.0151L26.5623 44.4321C26.8539 44.6612 27.2807 44.8489 27.5108 44.8489C28.0293 44.8489 28.7813 44.3393 28.958 43.868C29.0719 43.5643 29.2813 43.6782 30.4576 44.6844C31.2096 45.3274 32.4151 46.2477 33.1367 46.7291L34.4485 47.6045L29.0258 51.2092L23.6031 54.8137L19.0416 55.5977C13.5822 56.536 13.1109 56.6473 11.1934 57.4502C9.06505 58.3416 7.13263 59.7094 5.39962 61.551C3.69571 63.362 2.92384 64.5625 1.82481 67.112C0.837899 69.401 0.522079 71.1686 0.816805 72.7532C1.13223 74.4495 1.72052 75.6709 2.33477 75.9043C2.61602 76.0114 4.50313 76.0989 6.52794 76.0989H10.2096L10.9281 77.078C11.7959 78.2598 13.4178 79.4584 14.907 80.0178C18.2852 81.2872 22.3621 80.2969 24.786 77.6184C25.3809 76.9608 25.8678 76.35 25.8678 76.261C25.8678 76.1717 35.2627 76.0989 46.7451 76.0989H67.6227L68.3619 77.0684C69.2952 78.292 70.8799 79.4731 72.3147 80.0143C73.7325 80.5489 76.0657 80.7217 77.4518 80.395C79.8274 79.8346 82.3434 78.0274 83.3143 76.1842C83.8387 75.1881 83.6815 75.2448 87.0791 74.8276C89.7455 74.5002 90.1914 74.362 90.5118 73.7635C90.6258 73.5502 90.7116 71.9399 90.7116 70.008V66.6258L89.1555 61.1797C88.2895 58.1493 87.4448 55.5625 87.2512 55.3483C86.7905 54.8383 77.6983 47.7651 76.3694 46.8829C73.7116 45.1182 70.7756 44.3995 66.6051 44.4924C65.0391 44.5274 63.758 44.5434 63.7582 44.528C63.7582 44.5125 64.3338 43.8973 65.0371 43.1608C68.1746 39.8748 70.4762 35.4659 71.4969 30.7864C71.9727 28.6051 71.9914 23.1563 71.5301 21.1184C70.9955 18.7567 70.5682 17.4789 70.1842 17.095C69.7774 16.6881 68.7604 16.6096 68.191 16.9409ZM72.4619 48.4596C74.1557 49.0971 74.7766 49.5202 80.0719 53.644L84.7643 57.2981L85.8125 60.9856C86.3891 63.0137 86.9026 64.827 86.9536 65.0149C87.0379 65.326 86.8438 65.3567 84.7877 65.3567H82.5291L81.2981 64.425C79.6108 63.1481 78.2256 62.5832 76.5026 62.4692C75.7237 62.4178 75.0866 62.3389 75.0866 62.294C75.0866 62.2491 75.2241 61.9465 75.392 61.6217C75.6424 61.1373 75.6864 60.4196 75.6362 57.6291L75.5748 54.2274L72.401 51.0496C70.6555 49.3018 69.2272 47.819 69.2272 47.7541C69.2272 47.5534 71.1934 47.9823 72.4619 48.4596ZM67.65 50.5957L70.4621 53.4131L69.7959 53.519C68.5494 53.7174 54.7795 54.3981 54.5299 54.2739C54.4492 54.2336 54.3834 52.8438 54.3834 51.185C54.3834 48.1946 54.3871 48.169 54.8229 48.1461C55.0647 48.1334 56.4489 48.0606 57.8991 47.9842C59.3492 47.9081 61.5037 47.8305 62.6867 47.812L64.8377 47.7786L67.65 50.5957ZM51.2584 51.3721V54.3799L48.8658 54.492C45.2028 54.6637 29.5787 54.8489 29.5787 54.7207C29.5787 54.6584 31.1053 53.5963 32.9711 52.3606C36.4379 50.0645 38.3703 49.1496 40.3955 48.8459C41.5133 48.6784 46.1821 48.4381 49.1588 48.395L51.2584 48.3645V51.3721ZM72.5475 58.4018V60.2358L71.3518 62.0639C70.694 63.0692 69.7405 64.334 69.2328 64.8743C67.3082 66.9225 66.4928 68.8663 66.4928 71.4051V72.9739H60.4381H54.3834V65.2766V57.5793L55.9948 57.4657C56.8811 57.4032 59.6276 57.2547 62.0983 57.1356C64.569 57.0164 67.5133 56.853 68.6412 56.7723C69.7692 56.6916 71.1094 56.6125 71.6198 56.5965L72.5475 56.5676V58.4018ZM51.2584 65.261V72.9776L41.9323 72.927L32.6061 72.8762L32.1139 69.8489C31.6672 67.102 31.6283 66.4098 31.6955 62.3782L31.7696 57.9348L35.3129 57.9071C39.1272 57.8772 50.3547 57.6428 50.9166 57.5815C51.2369 57.5465 51.2584 58.0276 51.2584 65.261ZM28.5223 62.2805C28.3932 66.3739 28.4141 66.8053 28.8842 69.711C29.1588 71.4075 29.3834 72.8358 29.3834 72.8848C29.3834 72.9338 28.9 72.9739 28.3092 72.9739H27.235V71.8116C27.235 68.0643 25.2844 64.8809 21.9912 63.2534C20.707 62.6186 20.3473 62.5319 18.6985 62.4598C16.418 62.36 14.8137 62.7477 13.2156 63.7842C12.1879 64.451 10.9279 65.6606 10.5115 66.3803C10.3801 66.6075 9.75548 66.7092 7.81759 66.8192L5.29493 66.9623L5.76681 66.1637C7.40724 63.3891 10.1344 61.1172 13.0904 60.0635C13.7264 59.8368 16.4 59.2737 19.0318 58.8122C22.8225 58.1475 24.3203 57.969 26.2383 57.9539L28.6594 57.9348L28.5223 62.2805ZM36.5035 62.5159C36.2012 62.818 36.024 63.2184 36.024 63.5989C36.024 63.9793 36.2012 64.3797 36.5035 64.6819C36.9637 65.1422 37.0854 65.1614 39.5397 65.1614C41.994 65.1614 42.1157 65.1422 42.5758 64.6819C43.0959 64.162 43.199 63.3141 42.8049 62.8006C42.3211 62.1706 41.7145 62.0364 39.3483 62.0364C37.0973 62.0364 36.9596 62.0596 36.5035 62.5159ZM58.0565 62.6301C57.5596 63.127 57.4824 63.3262 57.5838 63.8508C57.8076 65.0092 58.2168 65.1614 61.1092 65.1614C63.5547 65.1614 63.7127 65.1375 64.1151 64.7094C64.6973 64.0895 64.6733 63.1288 64.0602 62.5159C63.602 62.0575 63.4727 62.0364 61.1157 62.0364H58.6502L58.0565 62.6301ZM20.7488 66.1123C21.8813 66.6965 22.9547 67.8073 23.5184 68.9782C23.8781 69.7254 23.9865 70.2811 23.9936 71.4114C24.0045 73.21 23.4906 74.4959 22.292 75.6694C21.0715 76.8639 19.8279 77.3604 18.0553 77.3604C15.6172 77.3604 13.8826 76.2868 12.791 74.1024C12.3065 73.1327 12.1959 72.6698 12.1959 71.6102C12.1959 69.7069 12.6488 68.586 13.9402 67.2932C15.3399 65.8922 16.2678 65.5399 18.3483 65.6198C19.4904 65.6637 20.1363 65.7961 20.7488 66.1123ZM78.1573 66.1053C79.4332 66.7639 80.2938 67.6243 80.8893 68.8368C81.3524 69.7797 81.4327 70.1815 81.4237 71.509C81.4149 72.8004 81.3246 73.2409 80.9034 74.0481C78.6399 78.3852 72.692 78.5499 70.3207 74.3411C69.7678 73.3596 69.7157 73.1151 69.7172 71.509C69.7188 69.985 69.7879 69.6213 70.2369 68.7747C70.9039 67.5168 71.7916 66.6793 73.1334 66.042C74.0754 65.5946 74.3998 65.5409 75.7702 65.6059C76.8809 65.6584 77.5711 65.803 78.1573 66.1053ZM16.5399 68.8713C15.5162 69.4954 15.0922 70.3469 15.1733 71.6155C15.257 72.9293 15.6945 73.5959 16.8463 74.1661C18.4277 74.9485 20.243 74.2002 20.8932 72.4973C21.3045 71.4204 21.1635 70.4815 20.4656 69.6524C19.4512 68.4467 17.7811 68.1145 16.5399 68.8713ZM74.1526 68.8065C72.6846 69.5301 72.0782 71.6571 72.9696 72.9559C73.726 74.0581 74.3948 74.4387 75.5748 74.4387C76.7045 74.4387 77.3571 74.0914 78.1018 73.094C78.6627 72.3428 78.6596 70.6727 78.0959 69.912C77.093 68.5584 75.5395 68.1229 74.1526 68.8065ZM87.5866 70.0301V71.5786L86.4635 71.7063C85.8457 71.7766 85.1996 71.8725 85.0274 71.9198C84.7703 71.9901 84.6924 71.7684 84.5932 70.6831C84.5266 69.9557 84.4155 69.1629 84.3463 68.9211C84.2229 68.4897 84.2514 68.4817 85.9036 68.4817H87.5866V70.0301ZM9.02755 71.509V72.9739H6.53517H4.04278L3.91485 72.1739C3.84435 71.7338 3.84298 71.0746 3.91153 70.709L4.03634 70.0442H6.53185H9.02755V71.509Z" fill="url(#paint0_linear_454_3163)" stroke="white" stroke-width="1.2" mask="url(#path-1-inside-1_454_3163)"/>
<defs>
<linearGradient id="paint0_linear_454_3163" x1="45.7174" y1="0.937501" x2="45.7174" y2="80.5285" gradientUnits="userSpaceOnUse">
<stop offset="0.307292" stop-color="#FA7575"/>
<stop offset="1" stop-color="#634CA6"/>
</linearGradient>
</defs>
</svg>
