<svg width="73" height="94" viewBox="0 0 73 94" fill="none" xmlns="http://www.w3.org/2000/svg">
<mask id="path-1-inside-1_454_3167" fill="white">
<path fill-rule="evenodd" clip-rule="evenodd" d="M24.335 0.529883C23.8824 0.885742 23.8203 1.07422 23.8203 2.09238V3.25H15.6084H7.39629L6.91699 3.72949C6.65332 3.99316 6.4375 4.33691 6.4375 4.49336C6.4375 4.72129 6.01191 4.79121 4.30273 4.84414C1.9959 4.91543 1.56113 5.08516 0.68789 6.25488L0.285156 6.79434V43.875V80.9557L0.68789 81.4951C0.909374 81.7918 1.3332 82.2156 1.62988 82.4371C2.16602 82.8375 2.29726 82.8402 23.8346 82.8912L45.5 82.9426V87.9293V92.9162L45.9795 93.3955L46.4588 93.875H55.6562H64.8537L65.333 93.3955L65.8125 92.9162V85.7809V78.6453L68.9375 71.6094C70.6562 67.7396 72.0625 64.4197 72.0625 64.2318C72.0625 64.0437 70.6135 59.5404 68.8424 54.2244C66.5156 47.2404 65.507 44.4637 65.2074 44.2168C64.8582 43.9289 64.3799 43.875 62.1775 43.875H59.5625V24.042V4.20879L59.083 3.72949L58.6037 3.25H50.4893H42.375V2.16699C42.375 1.27734 42.2893 0.998047 41.8955 0.604492L41.4162 0.125H33.1328C25.0486 0.125 24.8371 0.134766 24.335 0.529883ZM39.2094 4.76367L39.1523 6.27734L33.0488 6.32891L26.9453 6.38047V4.81523V3.25H33.1059H39.2664L39.2094 4.76367ZM23.8855 6.94492C24.0336 7.68555 25.1076 8.90059 25.9105 9.23613C26.3988 9.44004 28.017 9.49902 33.0426 9.4957C38.9478 9.4918 39.6158 9.4582 40.3396 9.12969C41.2457 8.71797 41.8615 8.02246 42.1838 7.04648L42.4053 6.375H49.4215H56.4375V29.0039V51.6328L55.3883 51.7412C54.2432 51.8594 53.1262 52.3529 52.1553 53.1701C51.4684 53.748 50.3875 55.4957 50.3846 56.0332C50.383 56.3527 49.898 56.375 42.9521 56.375H35.5213L35.042 56.8545C34.5664 57.3299 34.5625 57.3641 34.5625 61.0625C34.5625 64.7609 34.5664 64.7951 35.042 65.2705L35.5213 65.75H41.2152C46.5633 65.75 46.9002 65.7707 46.7631 66.0918C45.832 68.2725 45.6459 69.0654 45.5482 71.2676L45.4463 73.5625H27.5045H9.5625V39.9688V6.375H16.667H23.7715L23.8855 6.94492ZM6.4375 41.833V75.7287L6.91699 76.208L7.39629 76.6875H26.4482H45.5V78.25V79.8125H24.4062H3.3125V43.875V7.9375H4.875H6.4375V41.833ZM27.7592 13.0441C27.0928 13.374 26.4822 14.0346 24.8881 16.1492L22.8633 18.8354L20.3633 18.9098C17.6291 18.9912 17.0631 19.167 15.8441 20.3129C14.5309 21.5477 14.3598 22.134 14.2844 25.6543L14.2166 28.8203L14.7127 29.3164C15.1813 29.785 15.3232 29.8125 17.2686 29.8125C19.0072 29.8125 19.3281 29.8602 19.3281 30.1182C19.3281 30.6502 21.3092 32.4418 22.1828 32.7C24.0689 33.2572 25.7338 32.79 27.0406 31.3363C27.5254 30.7973 27.9219 30.2338 27.9219 30.0844C27.9219 29.859 28.7916 29.8125 33 29.8125C37.4777 29.8125 38.0781 29.8486 38.0781 30.1182C38.0781 30.6502 40.0592 32.4418 40.9328 32.7C42.8189 33.2572 44.4838 32.79 45.7906 31.3363C46.2754 30.7973 46.6719 30.2338 46.6719 30.0844C46.6719 29.8693 47.1022 29.8125 48.7314 29.8125C50.658 29.8125 50.8223 29.7814 51.2705 29.333C51.7439 28.8598 51.75 28.809 51.75 25.36C51.75 22.0795 51.7223 21.8137 51.2955 21.0053C51.0457 20.5318 50.4705 19.8836 50.0176 19.5645C49.3381 19.0859 48.9549 18.9709 47.8256 18.9072L46.4568 18.8299L45.3141 16.5574C43.2912 12.5357 43.5229 12.625 35.1059 12.6252C28.8525 12.6254 28.5732 12.6412 27.7592 13.0441ZM33 17.3125V18.875H29.8662H26.7324L27.9219 17.3125L29.1113 15.75H31.0557H33V17.3125ZM41.3248 15.8994C41.4453 15.9783 41.8639 16.6803 42.2549 17.459L42.9658 18.875H39.5455H36.125V17.3125V15.75L38.6152 15.7529C39.9848 15.7547 41.2041 15.8205 41.3248 15.8994ZM33 24.3438V26.6875H30.4609C28.4219 26.6875 27.9219 26.634 27.9219 26.4156C27.9219 26.2662 27.5254 25.7027 27.0406 25.1637C25.74 23.717 24.0604 23.2408 22.2117 23.7947C21.29 24.0709 19.5699 25.5553 19.4035 26.2184C19.2992 26.6338 19.1762 26.6875 18.3305 26.6875H17.375V25.0078C17.375 23.358 17.3867 23.3164 18.0391 22.6641L18.7031 22H25.8516H33V24.3438ZM48.3906 22.2344C48.5439 22.3877 48.625 23.1979 48.625 24.5781V26.6875H47.6484C46.9443 26.6875 46.6719 26.6117 46.6719 26.4156C46.6719 26.2662 46.2754 25.7027 45.7906 25.1637C44.49 23.717 42.8104 23.2408 40.9617 23.7947C40.04 24.0709 38.3199 25.5553 38.1535 26.2184C38.0492 26.6338 37.9262 26.6875 37.0805 26.6875H36.125V24.3438V22H42.1406C46.559 22 48.2186 22.0623 48.3906 22.2344ZM24.2654 26.8664C25.408 27.3008 25.3604 29.141 24.1941 29.6242C22.6559 30.2613 21.3658 28.343 22.542 27.167C23.0521 26.6566 23.5057 26.5775 24.2654 26.8664ZM43.0154 26.8664C44.158 27.3008 44.1104 29.141 42.9441 29.6242C41.4059 30.2613 40.1158 28.343 41.292 27.167C41.8021 26.6566 42.2557 26.5775 43.0154 26.8664ZM19.6211 36.4605C17.3801 37.1795 15.4154 39.1613 14.659 41.4656C12.6832 47.484 18.4535 53.2543 24.4719 51.2785C28.5512 49.9395 30.7984 45.524 29.466 41.4656C28.1289 37.3924 23.7133 35.1475 19.6211 36.4605ZM24.1371 39.7389C25.7717 40.5793 26.6393 42.0135 26.6393 43.875C26.6393 46.5602 24.7482 48.4504 22.0625 48.4504C19.3768 48.4504 17.4857 46.5602 17.4857 43.875C17.4857 41.6875 18.7008 40.0752 20.8895 39.3586C21.6416 39.1123 23.2951 39.3059 24.1371 39.7389ZM20.9795 41.2295C20.559 41.6498 20.5 41.8822 20.5 43.1174V44.526L21.7369 45.7631C23.1619 47.1879 23.8623 47.3664 24.708 46.5205C25.4381 45.7906 25.3453 45.0141 24.4062 43.9953C23.7896 43.3262 23.625 42.9961 23.625 42.4283C23.625 41.5057 22.9215 40.75 22.0625 40.75C21.682 40.75 21.2816 40.9271 20.9795 41.2295ZM65.9754 55.5949L68.8049 64.0922L65.7461 70.9779L62.6875 77.8635V84.3066V90.75H55.6562H48.625V80.6348C48.625 67.9326 48.5662 68.2363 51.6582 64.9738L53.3125 63.2281L53.3129 60.1434C53.3131 57.5926 53.3723 56.9428 53.6547 56.3889C54.0873 55.5402 54.7818 55.0301 55.7096 54.8795L56.4375 54.7613V62.4131V70.0647L56.917 70.5439C57.2191 70.8463 57.6195 71.0234 58 71.0234C58.3805 71.0234 58.7809 70.8463 59.083 70.5439L59.5625 70.0647V58.525V46.9854L61.3541 47.0414L63.1459 47.0977L65.9754 55.5949ZM16.292 56.8545C15.9896 57.1566 15.8125 57.557 15.8125 57.9375C15.8125 58.318 15.9896 58.7184 16.292 59.0205L16.7713 59.5H22.0625H27.3537L27.833 59.0205C28.1354 58.7184 28.3125 58.318 28.3125 57.9375C28.3125 57.557 28.1354 57.1566 27.833 56.8545L27.3537 56.375H22.0625H16.7713L16.292 56.8545ZM50.1875 60.7053C50.1875 62.7221 50.5201 62.625 43.6143 62.625H37.6875V61.0625V59.5H43.9375H50.1875V60.7053ZM16.292 63.1045C15.9896 63.4066 15.8125 63.807 15.8125 64.1875C15.8125 64.568 15.9896 64.9684 16.292 65.2705C16.7674 65.7461 16.8016 65.75 20.5 65.75C24.1984 65.75 24.2326 65.7461 24.708 65.2705C25.0104 64.9684 25.1875 64.568 25.1875 64.1875C25.1875 63.807 25.0104 63.4066 24.708 63.1045C24.2326 62.6289 24.1984 62.625 20.5 62.625C16.8016 62.625 16.7674 62.6289 16.292 63.1045Z"/>
</mask>
<path fill-rule="evenodd" clip-rule="evenodd" d="M24.335 0.529883C23.8824 0.885742 23.8203 1.07422 23.8203 2.09238V3.25H15.6084H7.39629L6.91699 3.72949C6.65332 3.99316 6.4375 4.33691 6.4375 4.49336C6.4375 4.72129 6.01191 4.79121 4.30273 4.84414C1.9959 4.91543 1.56113 5.08516 0.68789 6.25488L0.285156 6.79434V43.875V80.9557L0.68789 81.4951C0.909374 81.7918 1.3332 82.2156 1.62988 82.4371C2.16602 82.8375 2.29726 82.8402 23.8346 82.8912L45.5 82.9426V87.9293V92.9162L45.9795 93.3955L46.4588 93.875H55.6562H64.8537L65.333 93.3955L65.8125 92.9162V85.7809V78.6453L68.9375 71.6094C70.6562 67.7396 72.0625 64.4197 72.0625 64.2318C72.0625 64.0437 70.6135 59.5404 68.8424 54.2244C66.5156 47.2404 65.507 44.4637 65.2074 44.2168C64.8582 43.9289 64.3799 43.875 62.1775 43.875H59.5625V24.042V4.20879L59.083 3.72949L58.6037 3.25H50.4893H42.375V2.16699C42.375 1.27734 42.2893 0.998047 41.8955 0.604492L41.4162 0.125H33.1328C25.0486 0.125 24.8371 0.134766 24.335 0.529883ZM39.2094 4.76367L39.1523 6.27734L33.0488 6.32891L26.9453 6.38047V4.81523V3.25H33.1059H39.2664L39.2094 4.76367ZM23.8855 6.94492C24.0336 7.68555 25.1076 8.90059 25.9105 9.23613C26.3988 9.44004 28.017 9.49902 33.0426 9.4957C38.9478 9.4918 39.6158 9.4582 40.3396 9.12969C41.2457 8.71797 41.8615 8.02246 42.1838 7.04648L42.4053 6.375H49.4215H56.4375V29.0039V51.6328L55.3883 51.7412C54.2432 51.8594 53.1262 52.3529 52.1553 53.1701C51.4684 53.748 50.3875 55.4957 50.3846 56.0332C50.383 56.3527 49.898 56.375 42.9521 56.375H35.5213L35.042 56.8545C34.5664 57.3299 34.5625 57.3641 34.5625 61.0625C34.5625 64.7609 34.5664 64.7951 35.042 65.2705L35.5213 65.75H41.2152C46.5633 65.75 46.9002 65.7707 46.7631 66.0918C45.832 68.2725 45.6459 69.0654 45.5482 71.2676L45.4463 73.5625H27.5045H9.5625V39.9688V6.375H16.667H23.7715L23.8855 6.94492ZM6.4375 41.833V75.7287L6.91699 76.208L7.39629 76.6875H26.4482H45.5V78.25V79.8125H24.4062H3.3125V43.875V7.9375H4.875H6.4375V41.833ZM27.7592 13.0441C27.0928 13.374 26.4822 14.0346 24.8881 16.1492L22.8633 18.8354L20.3633 18.9098C17.6291 18.9912 17.0631 19.167 15.8441 20.3129C14.5309 21.5477 14.3598 22.134 14.2844 25.6543L14.2166 28.8203L14.7127 29.3164C15.1813 29.785 15.3232 29.8125 17.2686 29.8125C19.0072 29.8125 19.3281 29.8602 19.3281 30.1182C19.3281 30.6502 21.3092 32.4418 22.1828 32.7C24.0689 33.2572 25.7338 32.79 27.0406 31.3363C27.5254 30.7973 27.9219 30.2338 27.9219 30.0844C27.9219 29.859 28.7916 29.8125 33 29.8125C37.4777 29.8125 38.0781 29.8486 38.0781 30.1182C38.0781 30.6502 40.0592 32.4418 40.9328 32.7C42.8189 33.2572 44.4838 32.79 45.7906 31.3363C46.2754 30.7973 46.6719 30.2338 46.6719 30.0844C46.6719 29.8693 47.1022 29.8125 48.7314 29.8125C50.658 29.8125 50.8223 29.7814 51.2705 29.333C51.7439 28.8598 51.75 28.809 51.75 25.36C51.75 22.0795 51.7223 21.8137 51.2955 21.0053C51.0457 20.5318 50.4705 19.8836 50.0176 19.5645C49.3381 19.0859 48.9549 18.9709 47.8256 18.9072L46.4568 18.8299L45.3141 16.5574C43.2912 12.5357 43.5229 12.625 35.1059 12.6252C28.8525 12.6254 28.5732 12.6412 27.7592 13.0441ZM33 17.3125V18.875H29.8662H26.7324L27.9219 17.3125L29.1113 15.75H31.0557H33V17.3125ZM41.3248 15.8994C41.4453 15.9783 41.8639 16.6803 42.2549 17.459L42.9658 18.875H39.5455H36.125V17.3125V15.75L38.6152 15.7529C39.9848 15.7547 41.2041 15.8205 41.3248 15.8994ZM33 24.3438V26.6875H30.4609C28.4219 26.6875 27.9219 26.634 27.9219 26.4156C27.9219 26.2662 27.5254 25.7027 27.0406 25.1637C25.74 23.717 24.0604 23.2408 22.2117 23.7947C21.29 24.0709 19.5699 25.5553 19.4035 26.2184C19.2992 26.6338 19.1762 26.6875 18.3305 26.6875H17.375V25.0078C17.375 23.358 17.3867 23.3164 18.0391 22.6641L18.7031 22H25.8516H33V24.3438ZM48.3906 22.2344C48.5439 22.3877 48.625 23.1979 48.625 24.5781V26.6875H47.6484C46.9443 26.6875 46.6719 26.6117 46.6719 26.4156C46.6719 26.2662 46.2754 25.7027 45.7906 25.1637C44.49 23.717 42.8104 23.2408 40.9617 23.7947C40.04 24.0709 38.3199 25.5553 38.1535 26.2184C38.0492 26.6338 37.9262 26.6875 37.0805 26.6875H36.125V24.3438V22H42.1406C46.559 22 48.2186 22.0623 48.3906 22.2344ZM24.2654 26.8664C25.408 27.3008 25.3604 29.141 24.1941 29.6242C22.6559 30.2613 21.3658 28.343 22.542 27.167C23.0521 26.6566 23.5057 26.5775 24.2654 26.8664ZM43.0154 26.8664C44.158 27.3008 44.1104 29.141 42.9441 29.6242C41.4059 30.2613 40.1158 28.343 41.292 27.167C41.8021 26.6566 42.2557 26.5775 43.0154 26.8664ZM19.6211 36.4605C17.3801 37.1795 15.4154 39.1613 14.659 41.4656C12.6832 47.484 18.4535 53.2543 24.4719 51.2785C28.5512 49.9395 30.7984 45.524 29.466 41.4656C28.1289 37.3924 23.7133 35.1475 19.6211 36.4605ZM24.1371 39.7389C25.7717 40.5793 26.6393 42.0135 26.6393 43.875C26.6393 46.5602 24.7482 48.4504 22.0625 48.4504C19.3768 48.4504 17.4857 46.5602 17.4857 43.875C17.4857 41.6875 18.7008 40.0752 20.8895 39.3586C21.6416 39.1123 23.2951 39.3059 24.1371 39.7389ZM20.9795 41.2295C20.559 41.6498 20.5 41.8822 20.5 43.1174V44.526L21.7369 45.7631C23.1619 47.1879 23.8623 47.3664 24.708 46.5205C25.4381 45.7906 25.3453 45.0141 24.4062 43.9953C23.7896 43.3262 23.625 42.9961 23.625 42.4283C23.625 41.5057 22.9215 40.75 22.0625 40.75C21.682 40.75 21.2816 40.9271 20.9795 41.2295ZM65.9754 55.5949L68.8049 64.0922L65.7461 70.9779L62.6875 77.8635V84.3066V90.75H55.6562H48.625V80.6348C48.625 67.9326 48.5662 68.2363 51.6582 64.9738L53.3125 63.2281L53.3129 60.1434C53.3131 57.5926 53.3723 56.9428 53.6547 56.3889C54.0873 55.5402 54.7818 55.0301 55.7096 54.8795L56.4375 54.7613V62.4131V70.0647L56.917 70.5439C57.2191 70.8463 57.6195 71.0234 58 71.0234C58.3805 71.0234 58.7809 70.8463 59.083 70.5439L59.5625 70.0647V58.525V46.9854L61.3541 47.0414L63.1459 47.0977L65.9754 55.5949ZM16.292 56.8545C15.9896 57.1566 15.8125 57.557 15.8125 57.9375C15.8125 58.318 15.9896 58.7184 16.292 59.0205L16.7713 59.5H22.0625H27.3537L27.833 59.0205C28.1354 58.7184 28.3125 58.318 28.3125 57.9375C28.3125 57.557 28.1354 57.1566 27.833 56.8545L27.3537 56.375H22.0625H16.7713L16.292 56.8545ZM50.1875 60.7053C50.1875 62.7221 50.5201 62.625 43.6143 62.625H37.6875V61.0625V59.5H43.9375H50.1875V60.7053ZM16.292 63.1045C15.9896 63.4066 15.8125 63.807 15.8125 64.1875C15.8125 64.568 15.9896 64.9684 16.292 65.2705C16.7674 65.7461 16.8016 65.75 20.5 65.75C24.1984 65.75 24.2326 65.7461 24.708 65.2705C25.0104 64.9684 25.1875 64.568 25.1875 64.1875C25.1875 63.807 25.0104 63.4066 24.708 63.1045C24.2326 62.6289 24.1984 62.625 20.5 62.625C16.8016 62.625 16.7674 62.6289 16.292 63.1045Z" fill="url(#paint0_linear_454_3167)" stroke="white" stroke-width="1.2" mask="url(#path-1-inside-1_454_3167)"/>
<defs>
<linearGradient id="paint0_linear_454_3167" x1="36.1787" y1="0.125001" x2="36.1787" y2="93.8308" gradientUnits="userSpaceOnUse">
<stop offset="0.307292" stop-color="#FA7575"/>
<stop offset="1" stop-color="#634CA6"/>
</linearGradient>
</defs>
</svg>
