<svg width="40" height="40" viewBox="0 0 40 40" fill="none" xmlns="http://www.w3.org/2000/svg">
<path fill-rule="evenodd" clip-rule="evenodd" d="M33.0012 13.0001C31.4172 12.9975 29.8816 13.5448 28.6562 14.5485C27.4226 13.5447 25.8802 12.9977 24.2899 13.0001C22.7055 12.9938 21.1688 13.5415 19.9455 14.5485C18.7519 13.5832 17.2435 13.0001 15.6 13.0001C14.0163 12.9976 12.4808 13.5449 11.2557 14.5485C10.0626 13.5832 8.5542 13.0001 6.91014 13.0001C3.08406 13.0001 0 16.0743 0 19.8893C0 23.7038 3.08406 26.7786 6.91072 26.7786C8.5542 26.7786 10.0846 26.1948 11.2557 25.2302C12.4487 26.1948 13.9571 26.778 15.6 26.778C17.2435 26.778 18.7739 26.1948 19.9449 25.2302C21.1788 26.2339 22.7214 26.7807 24.3119 26.778C25.978 26.778 27.4858 26.1948 28.6788 25.2302C29.8719 26.1948 31.3803 26.778 33.0238 26.778C36.8504 26.778 39.9345 23.7044 39.9345 19.8893C39.9119 16.0969 36.8278 13.0001 33.0012 13.0001ZM28.6562 22.9861C28.0093 22.0834 27.6629 20.9999 27.6661 19.8893C27.6661 18.745 28.0261 17.6679 28.6562 16.7925C29.3034 17.6952 29.65 18.7787 29.647 19.8893C29.647 21.0563 29.2643 22.1108 28.6562 22.9861ZM19.9449 22.9861C19.2978 22.0835 18.9512 21 18.9542 19.8893C18.9542 18.745 19.3142 17.6679 19.9449 16.7925C20.5918 17.6953 20.9383 18.7787 20.9351 19.8893C20.9351 21.0563 20.5525 22.1108 19.9449 22.9861ZM11.233 22.9861C10.5859 22.0835 10.2393 21 10.2423 19.8893C10.2423 18.745 10.6029 17.6679 11.233 16.7925C11.88 17.6953 12.2264 18.7787 12.2232 19.8893C12.2232 21.0563 11.8406 22.1108 11.233 22.9861ZM1.50841 19.8893C1.50841 16.9496 3.89449 14.5485 6.86609 14.5485C8.04555 14.5449 9.19307 14.9315 10.1299 15.6482C9.20696 16.8151 8.66667 18.2737 8.66667 19.8893C8.66667 21.4824 9.20696 22.9635 10.1299 24.1305C9.22957 24.8261 8.10377 25.2302 6.86609 25.2302C3.9171 25.2302 1.50841 22.8516 1.50841 19.8893ZM12.313 24.1305C13.2359 22.9635 13.7762 21.505 13.7762 19.8893C13.7762 18.2957 13.2359 16.8151 12.313 15.6482C13.2133 14.9525 14.3391 14.5485 15.5768 14.5485C16.8151 14.5485 17.9409 14.9525 18.8406 15.6482C17.9183 16.8151 17.378 18.2737 17.378 19.8893C17.378 21.4824 17.9183 22.9635 18.8412 24.1305C17.9409 24.8261 16.8151 25.2302 15.5774 25.2302C14.3391 25.2302 13.2133 24.8261 12.313 24.1305ZM21.0249 24.1305C21.9478 22.9635 22.4881 21.505 22.4881 19.8893C22.4881 18.2957 21.9478 16.8151 21.0249 15.6482C21.9252 14.9525 23.0504 14.5485 24.2887 14.5485C25.4682 14.5449 26.6157 14.9315 27.5525 15.6482C26.6301 16.8151 26.0899 18.2737 26.0899 19.8893C26.0899 21.4824 26.6301 22.9635 27.553 24.1305C26.6522 24.8261 25.527 25.2302 24.2893 25.2302C23.1096 25.2339 21.9619 24.8472 21.0249 24.1305ZM33.0006 25.2302C31.8211 25.2338 30.6736 24.8471 29.7368 24.1305C30.6591 22.9635 31.1994 21.505 31.1994 19.8893C31.1994 18.2957 30.6591 16.8151 29.7362 15.6482C30.6371 14.9525 31.7623 14.5485 33 14.5485C35.9496 14.5485 38.3583 16.927 38.3583 19.8893C38.3583 22.8516 35.9496 25.2302 33.0006 25.2302Z" fill="black"/>
</svg>
