<svg width="116" height="24" viewBox="0 0 116 24" fill="none" xmlns="http://www.w3.org/2000/svg">
<path d="M11.2375 0.865967C5.02321 0.865967 0 5.88918 0 12.1035C0 18.3178 5.02321 23.341 11.2375 23.341C17.4518 23.341 22.475 18.3178 22.475 12.1035C22.475 5.88918 17.4518 0.865967 11.2375 0.865967ZM9.68393 16.8678L8.85536 19.3017C5.74821 18.266 3.67679 15.3142 3.67679 11.9999C3.67679 8.68561 5.74821 5.78561 8.90714 4.69811L9.73571 7.13204C7.66429 7.80525 6.31786 9.77311 6.31786 11.9481C6.21429 14.2267 7.6125 16.1945 9.68393 16.8678ZM13.5161 19.3535L12.7393 16.8678C14.8625 16.1945 16.2607 14.2267 16.2607 11.9999C16.2607 9.77311 14.8625 7.85704 12.7911 7.18382L13.6196 4.69811C16.7786 5.73382 18.9018 8.68561 18.9018 11.9999C18.9018 15.4178 16.7268 18.3695 13.5161 19.3535Z" fill="#00BEF0"/>
<path d="M114.136 14.1233L115.379 15.6251C114.084 16.9715 112.479 17.334 111.184 17.334C109.941 17.334 109.061 17.1269 108.284 16.7644C106.627 15.9358 105.798 14.2786 105.798 12.259C105.798 9.20365 107.87 6.92508 110.925 6.92508C114.343 6.92508 116 9.46258 115.741 12.7769H107.973C108.025 13.6054 108.491 14.3822 109.164 14.7965C109.734 15.159 110.407 15.3144 111.288 15.3144C112.271 15.3144 113.255 15.0036 114.136 14.1233ZM108.025 10.9644H113.514C113.359 9.77329 112.375 8.73758 110.821 8.73758C109.216 8.73758 108.232 9.87686 108.025 10.9644ZM55.8768 17.0233H58.6733L54.2715 11.8965L58.6215 7.08043H55.8768L52.5625 10.9126H51.5786V7.08043H49.4554V16.9715H51.5786V13.0358H52.5625L55.8768 17.0233ZM64.9911 8.89293C63.1786 8.89293 61.9875 10.2911 61.9875 12.0519C61.9875 13.8126 63.1786 15.2108 64.9911 15.2108C66.8036 15.2108 67.9429 13.8644 67.9429 12.0519C67.9947 10.3429 66.8554 8.89293 64.9911 8.89293ZM65.3536 6.87329C68.15 6.87329 70.2215 9.04829 70.2215 12.0519C70.2215 15.0036 68.2018 17.2822 65.3536 17.2822C64.0072 17.2822 62.9197 16.8161 62.1429 15.9876V21.1662H59.9679V7.13222H62.0911V8.32329C62.9197 7.33936 64.0072 6.87329 65.3536 6.87329ZM93.5768 7.13222H84.7215V9.10008H88.0875V17.0233H90.2625V9.10008H93.6286V7.13222H93.5768ZM47.9536 7.13222H39.0465V9.10008H42.4125V17.0233H44.5875V9.10008H47.9536V7.13222ZM36.4572 12.1036C36.4572 10.2394 35.1625 8.89293 33.35 8.89293C31.5893 8.89293 30.2429 10.2394 30.2429 12.1036C30.2429 13.9679 31.5375 15.3144 33.35 15.3144C35.1108 15.3144 36.4572 13.9679 36.4572 12.1036ZM28.0161 12.1036C28.0161 9.15186 30.2947 6.92508 33.35 6.92508C36.3536 6.92508 38.684 9.15186 38.684 12.1036C38.684 15.0554 36.4054 17.334 33.35 17.334C30.3465 17.2822 28.0161 15.0554 28.0161 12.1036ZM104.089 7.13222V17.0233H101.966V10.6536L96.7875 17.0233H95.0786V7.13222H97.2018V13.5019L102.38 7.13222H104.089ZM83.2197 17.0233H81.0965V7.13222H83.2197V17.0233ZM77.7304 13.6572C77.7304 12.7769 77.109 12.1554 76.2804 12.1554H74.1054V15.2108H76.2804C77.109 15.2108 77.7304 14.5376 77.7304 13.6572ZM79.8536 13.6572C79.8536 15.6251 78.4036 17.0233 76.3322 17.0233H71.9822V7.13222H74.1054V10.3429H76.5393C78.6108 10.3429 79.8536 11.6894 79.8536 13.6572Z" fill="#333333"/>
</svg>
