<svg width="180" height="20" viewBox="0 0 180 20" fill="none" xmlns="http://www.w3.org/2000/svg">
<path d="M47.0107 16.7173C44.9729 18.5524 42.2975 19.5165 39.5576 19.4033C36.8174 19.518 34.1415 18.5537 32.1045 16.7173C31.1649 15.8111 30.4283 14.7157 29.9435 13.5036C29.4587 12.2916 29.2366 10.9904 29.292 9.68612C29.2357 8.38175 29.4574 7.08031 29.9422 5.8681C30.4271 4.6559 31.1642 3.56062 32.1045 2.6549C34.1481 0.833838 36.8233 -0.115087 39.5576 0.0111592C42.2975 -0.102074 44.9729 0.862059 47.0107 2.69709C47.9532 3.60115 48.6917 4.69615 49.1768 5.90876C49.6618 7.12138 49.8822 8.42362 49.8232 9.72831C49.8752 11.0259 49.6515 12.3198 49.1667 13.5245C48.6819 14.7293 47.947 15.8175 47.0107 16.7173ZM35.7607 13.5814C36.7714 14.5378 38.1099 15.0707 39.5014 15.0707C40.8928 15.0707 42.2313 14.5378 43.242 13.5814C43.7236 13.064 44.0963 12.455 44.3378 11.7907C44.5794 11.1263 44.685 10.4202 44.6482 9.71425C44.6839 9.01054 44.5778 8.30685 44.3362 7.64495C44.0946 6.98305 43.7225 6.37644 43.242 5.86114C42.2313 4.90477 40.8928 4.37182 39.5014 4.37182C38.1099 4.37182 36.7714 4.90477 35.7607 5.86114C35.2828 6.37824 34.9124 6.98514 34.671 7.64659C34.4296 8.30804 34.322 9.01087 34.3545 9.71425C34.3276 10.4239 34.4432 11.1316 34.6944 11.7958C34.9455 12.4601 35.3273 13.0672 35.817 13.5814H35.7607Z" fill="white"/>
<path d="M65.1794 0.953343C65.1794 0.348658 65.4606 0.0392841 66.0372 0.0392841H69.3419C69.4641 0.0249865 69.588 0.0390431 69.704 0.0803638C69.82 0.121685 69.9249 0.189159 70.0105 0.277555C70.0962 0.365951 70.1604 0.472893 70.198 0.590087C70.2357 0.707282 70.2459 0.83158 70.2278 0.953343V18.4892C70.2459 18.611 70.2357 18.7353 70.198 18.8525C70.1604 18.9697 70.0962 19.0766 70.0105 19.165C69.9249 19.2534 69.82 19.3209 69.704 19.3622C69.588 19.4035 69.4641 19.4176 69.3419 19.4033H66.7544C66.548 19.406 66.3438 19.3604 66.1582 19.27C65.9726 19.1797 65.8108 19.0471 65.6856 18.883L57.4732 8.91269V18.4892C57.4913 18.611 57.4811 18.7353 57.4434 18.8525C57.4057 18.9697 57.3416 19.0766 57.2559 19.165C57.1702 19.2534 57.0653 19.3209 56.9494 19.3622C56.8334 19.4035 56.7095 19.4176 56.5872 19.4033H53.3107C52.72 19.4033 52.4388 19.0939 52.4388 18.4892V0.953343C52.4388 0.348658 52.72 0.0392841 53.3107 0.0392841H55.8419C56.0487 0.0342703 56.2536 0.0788998 56.4396 0.169431C56.6255 0.259962 56.7871 0.393755 56.9107 0.559595L65.1794 10.7408V0.953343Z" fill="white"/>
<path d="M78.2996 15.1142H86.8355C87.4121 15.1142 87.6934 15.4095 87.6934 16.0002V18.4892C87.6934 19.0939 87.4121 19.4033 86.8355 19.4033H74.1793C73.6028 19.4033 73.3075 19.0939 73.3075 18.4892V0.953343C73.3075 0.348658 73.6028 0.0392841 74.1793 0.0392841H77.47C78.0465 0.0392841 78.3418 0.348658 78.3418 0.953343L78.2996 15.1142Z" fill="white"/>
<path d="M91.5324 19.4033C90.9699 19.4033 90.6746 19.0939 90.6746 18.4892V13.7361L83.6434 1.07991C83.5866 0.968898 83.557 0.845996 83.557 0.721313C83.557 0.596629 83.5866 0.473727 83.6434 0.36272C83.7418 0.165846 83.9527 0.0814715 84.2762 0.0814715H88.1152C88.3129 0.0767809 88.5079 0.128521 88.6772 0.230633C88.8466 0.332745 88.9833 0.480999 89.0715 0.658032L93.2902 8.26581H93.3886L97.6074 0.658032C97.6757 0.486218 97.7886 0.33572 97.9344 0.222025C98.0803 0.10833 98.2538 0.0355445 98.4371 0.0111592H102.234C102.543 0.0111592 102.754 0.0955339 102.853 0.292408C102.913 0.402305 102.945 0.52564 102.945 0.651C102.945 0.776361 102.913 0.899696 102.853 1.00959L95.8214 13.6658V18.5033C95.8396 18.625 95.8294 18.7493 95.7917 18.8665C95.754 18.9837 95.6899 19.0907 95.6042 19.1791C95.5185 19.2675 95.4136 19.3349 95.2977 19.3763C95.1817 19.4176 95.0578 19.4316 94.9355 19.4173L91.5324 19.4033Z" fill="white"/>
<path d="M112.753 15.03C113.715 15.1037 114.674 14.8528 115.477 14.3176C116.28 13.7823 116.88 12.9934 117.182 12.0769C117.233 11.8976 117.342 11.7405 117.492 11.6308C117.643 11.5212 117.826 11.4653 118.012 11.4722H121.767C121.87 11.4646 121.974 11.4795 122.071 11.516C122.168 11.5524 122.256 11.6094 122.329 11.6832C122.391 11.7641 122.434 11.8582 122.453 11.9583C122.473 12.0583 122.469 12.1615 122.442 12.2597C122.037 14.3719 120.852 16.2544 119.123 17.5331C117.241 18.8378 114.985 19.4943 112.696 19.4034C109.985 19.5294 107.335 18.5734 105.328 16.7456C104.39 15.8378 103.655 14.7421 103.171 13.5304C102.686 12.3188 102.463 11.0184 102.515 9.71442C102.463 8.41058 102.687 7.11046 103.172 5.89892C103.656 4.68737 104.391 3.59163 105.328 2.6832C106.32 1.77566 107.482 1.07258 108.746 0.614126C110.011 0.155677 111.353 -0.0491539 112.696 0.0113377C114.985 -0.07952 117.241 0.576987 119.123 1.88164C120.86 3.16528 122.046 5.05976 122.442 7.18318C122.469 7.28146 122.473 7.38463 122.453 7.48465C122.434 7.58467 122.391 7.67882 122.329 7.75974C122.256 7.83349 122.168 7.89053 122.071 7.92695C121.974 7.96336 121.87 7.97828 121.767 7.97068H118.012C117.827 7.97285 117.646 7.91514 117.497 7.80616C117.347 7.69719 117.237 7.54279 117.182 7.366C116.88 6.4495 116.28 5.66064 115.477 5.12536C114.674 4.59008 113.715 4.33923 112.753 4.41288C112.072 4.37777 111.392 4.48467 110.756 4.72678C110.119 4.96888 109.539 5.34089 109.054 5.81913C108.578 6.33754 108.209 6.94466 107.968 7.60578C107.727 8.26691 107.618 8.9691 107.648 9.67224C107.617 10.3733 107.726 11.0735 107.967 11.7324C108.209 12.3913 108.578 12.9959 109.054 13.5113C109.53 14.0098 110.105 14.4027 110.742 14.6643C111.379 14.926 112.064 15.0506 112.753 15.03Z" fill="white"/>
<path d="M123.426 19.4034C123.3 19.4173 123.172 19.3972 123.056 19.3453C122.94 19.2934 122.839 19.2116 122.765 19.1081C122.701 18.9918 122.668 18.8612 122.668 18.7285C122.668 18.5957 122.701 18.4651 122.765 18.3488L130.204 0.728522C130.276 0.517318 130.412 0.334142 130.594 0.205291C130.776 0.0764389 130.994 0.00853877 131.217 0.0113377H134.634C134.851 0.00139733 135.065 0.063603 135.243 0.188251C135.421 0.312898 135.553 0.492978 135.618 0.700397L143.029 18.2925C143.093 18.4088 143.127 18.5394 143.127 18.6722C143.127 18.805 143.093 18.9356 143.029 19.0519C142.955 19.1553 142.855 19.2372 142.739 19.2891C142.623 19.3409 142.495 19.361 142.368 19.3472H138.839C138.615 19.3545 138.394 19.2884 138.212 19.1589C138.029 19.0294 137.893 18.8437 137.826 18.63L136.771 15.9441H129.051L127.968 18.6863C127.898 18.901 127.76 19.0872 127.575 19.2166C127.39 19.3459 127.167 19.4115 126.942 19.4034H123.426ZM130.598 11.9363H135.225L132.946 5.98788H132.876L130.598 11.9363Z" fill="white"/>
<path d="M162.154 18.2925C162.242 18.3985 162.302 18.5247 162.329 18.6597C162.356 18.7947 162.349 18.9343 162.309 19.066C162.242 19.1855 162.14 19.2818 162.017 19.3421C161.894 19.4024 161.755 19.4238 161.62 19.4034H157.598C157.388 19.4126 157.18 19.3636 156.996 19.2618C156.813 19.1601 156.661 19.0096 156.557 18.8269L152.901 13.2019H149.934V18.4894C149.934 19.0941 149.653 19.4034 149.062 19.4034H145.785C145.663 19.4177 145.539 19.4037 145.423 19.3624C145.307 19.321 145.202 19.2536 145.117 19.1652C145.031 19.0768 144.967 18.9698 144.929 18.8526C144.892 18.7355 144.881 18.6112 144.899 18.4894V0.953521C144.881 0.831759 144.892 0.70746 144.929 0.590266C144.967 0.473071 145.031 0.366129 145.117 0.277733C145.202 0.189338 145.307 0.121863 145.423 0.0805423C145.539 0.0392215 145.663 0.025165 145.785 0.0394626H153.407C155.496 -0.0783159 157.56 0.549613 159.229 1.81133C159.935 2.39175 160.498 3.12824 160.871 3.9628C161.244 4.79737 161.419 5.70721 161.381 6.62069C161.455 7.79176 161.171 8.95772 160.565 9.96283C159.96 10.9679 159.062 11.7643 157.992 12.2457L162.154 18.2925ZM149.934 4.23007V8.94099H152.873C153.758 8.99313 154.638 8.78277 155.404 8.3363C155.693 8.15492 155.929 7.90114 156.09 7.60018C156.25 7.29922 156.329 6.96154 156.318 6.62069C156.329 6.281 156.253 5.9442 156.098 5.64172C155.943 5.33924 155.714 5.08097 155.432 4.89101C154.712 4.43065 153.868 4.20016 153.013 4.23007H149.934Z" fill="white"/>
<path d="M171.942 19.4034C169.888 19.5029 167.849 19.0151 166.063 17.9972C165.32 17.5348 164.678 16.9282 164.173 16.2133C163.668 15.4984 163.312 14.6896 163.124 13.8347C163.026 13.3144 163.251 13.0472 163.799 13.0472H167.343C167.522 13.039 167.698 13.0841 167.851 13.1768C168.004 13.2694 168.126 13.4055 168.201 13.5675C168.808 14.4208 169.698 15.0306 170.713 15.2882C171.728 15.5458 172.801 15.4343 173.742 14.9738C173.956 14.8736 174.137 14.7119 174.259 14.5091C174.382 14.3062 174.442 14.0715 174.431 13.8347C174.427 13.614 174.372 13.3972 174.27 13.2017C174.167 13.0063 174.02 12.8377 173.84 12.7097C173.378 12.3925 172.857 12.1724 172.307 12.0629C171.674 11.9222 170.985 11.7816 170.226 11.655C169.449 11.5225 168.683 11.3345 167.934 11.0925C167.238 10.8696 166.569 10.5726 165.937 10.2066C165.279 9.8051 164.744 9.23122 164.39 8.54724C163.964 7.72781 163.756 6.81257 163.785 5.88944C163.764 5.0687 163.944 4.25522 164.309 3.5199C164.674 2.78458 165.214 2.14974 165.881 1.67071C167.522 0.517032 169.502 -0.0524404 171.506 0.053525C173.407 -0.000817161 175.285 0.486914 176.92 1.45977C177.618 1.87614 178.227 2.42763 178.71 3.08198C179.193 3.73633 179.54 4.48041 179.732 5.27069C179.845 5.77694 179.62 6.03006 179.071 6.03006H175.359C175.179 6.02552 175.005 5.97202 174.853 5.87536C174.702 5.7787 174.58 5.64255 174.501 5.48163C174.259 4.95798 173.855 4.52617 173.348 4.25011C172.842 3.97405 172.26 3.86841 171.688 3.94882C171.066 3.91513 170.448 4.07211 169.917 4.39882C169.704 4.52415 169.531 4.70648 169.416 4.92518C169.302 5.14389 169.251 5.39022 169.27 5.63632C169.268 5.90743 169.341 6.17379 169.48 6.40671C169.618 6.63964 169.818 6.8303 170.057 6.95819C170.666 7.31455 171.34 7.54415 172.04 7.63318C172.813 7.75974 173.671 7.94256 174.599 8.18162C175.476 8.40346 176.335 8.68538 177.173 9.02536C177.982 9.36595 178.672 9.93846 179.156 10.6707C179.713 11.5176 180.007 12.5112 179.999 13.5253C180.013 14.3555 179.82 15.176 179.437 15.9127C179.054 16.6493 178.493 17.2788 177.806 17.7441C176.08 18.9135 174.024 19.4955 171.942 19.4034Z" fill="white"/>
<path d="M12.6562 14.0737C12.5437 14.2284 12.375 14.355 12.2625 14.5096C11.9961 14.4413 11.737 14.3471 11.489 14.2284C12.138 13.6779 12.6593 12.9928 13.0169 12.2205C13.3745 11.4483 13.5597 10.6075 13.5597 9.75654C13.5597 8.90555 13.3745 8.06476 13.0169 7.29254C12.6593 6.52032 12.138 5.83517 11.489 5.28468C11.752 5.17054 12.0251 5.08109 12.3046 5.0175C12.9457 5.62823 13.4548 6.3638 13.8007 7.17885C14.1465 7.9939 14.3218 8.87117 14.3156 9.75654C14.2845 11.3454 13.6973 12.8731 12.6562 14.0737ZM12.5015 4.93312C13.1339 5.55995 13.6341 6.30738 13.9722 7.13109C14.3104 7.9548 14.4798 8.83803 14.4703 9.72842C14.4996 11.3722 13.9127 12.9675 12.8249 14.2003C12.7245 14.3108 12.6164 14.4142 12.5015 14.5096C13.1401 14.5562 13.7811 14.4642 14.3808 14.24C14.9805 14.0158 15.5247 13.6646 15.9761 13.2106C16.4275 12.7565 16.7754 12.2103 16.9961 11.6093C17.2167 11.0083 17.3049 10.3667 17.2546 9.72842C17.3169 9.07946 17.2357 8.42475 17.0166 7.81072C16.7976 7.19668 16.4461 6.63837 15.9871 6.17537C15.5281 5.71237 14.9729 5.35604 14.3608 5.13163C13.7487 4.90723 13.0947 4.82025 12.4453 4.87687L12.5015 4.93312ZM4.94998 6.33937L3.54374 4.70812C2.74218 5.11593 1.85624 5.62218 0.731247 6.33937C0.939203 5.6091 1.22195 4.90223 1.57499 4.23C1.57499 4.39875 1.57499 4.59562 1.57499 4.75031L2.61561 4.23L4.21873 3.41438C4.37342 3.56907 4.57029 3.85031 4.82342 4.15969C5.07654 4.46906 5.06248 4.48312 5.25935 4.72219C5.4281 4.5675 5.62498 4.37063 5.77966 4.20188C5.93435 4.03313 5.77966 4.20188 5.77966 4.20188C5.49842 3.87844 5.21717 3.52688 4.65467 2.79563C3.76873 3.16125 2.79843 3.555 1.47656 4.20188C1.84974 3.56018 2.29823 2.96534 2.81249 2.43001C2.81249 2.54251 2.81249 2.73938 2.81249 2.82376C3.2203 2.66907 4.21873 2.26126 5.62498 1.82532C5.86404 2.10657 6.42654 2.86594 6.46872 2.86594L7.07341 2.45813C6.70779 1.98001 6.46872 1.69876 6.22966 1.38939C5.0677 1.68429 3.92233 2.04105 2.79843 2.45813C3.31423 1.92739 3.90676 1.47706 4.55623 1.1222C4.47346 1.21111 4.40256 1.31038 4.34529 1.41751C4.86561 1.31907 5.03436 1.2347 5.62498 1.1222C6.2156 1.0097 6.60935 0.883139 7.49528 0.728452C7.62057 0.852234 7.73799 0.983741 7.84684 1.1222C7.93122 1.1222 7.97341 1.27689 8.12809 1.43157C8.33903 1.41751 8.57809 1.2347 8.81715 1.16439C8.84461 1.17302 8.87407 1.17302 8.90153 1.16439C8.71008 0.904581 8.4934 0.66435 8.25465 0.447203C7.24216 0.60189 6.15935 0.798764 4.58436 1.16439C5.17653 0.802863 5.81522 0.523733 6.48279 0.334704C6.37673 0.380706 6.28106 0.447672 6.20154 0.531578C7.29587 0.351456 8.39897 0.229411 9.50621 0.165954C9.68527 0.259669 9.84698 0.383327 9.98433 0.531578L10.6312 0.362828H10.7859C10.6701 0.195725 10.5018 0.0720149 10.3078 0.0112673C9.29528 0.0112673 8.12809 0.0815795 6.52497 0.292516C6.84236 0.199978 7.16693 0.134124 7.49528 0.095642C7.80679 0.043945 8.12173 0.0157407 8.43747 0.0112673H12.9656C14.1242 0.00773891 15.2696 0.257654 16.3214 0.743495C17.3733 1.22934 18.3061 1.93934 19.0546 2.82376C20.687 4.72937 21.5716 7.16312 21.5437 9.67217C21.569 12.1808 20.6848 14.6137 19.0546 16.5206C18.3175 17.368 17.4141 18.0549 16.4006 18.5387C15.387 19.0225 14.2848 19.2929 13.1624 19.3331H9.84371H9.9984H11.0531L9.14059 19.2065C9.00479 19.319 8.83808 19.3876 8.66247 19.4034C7.9551 19.3965 7.2513 19.3021 6.56716 19.1221C6.8307 19.1848 7.09868 19.2272 7.36872 19.2487C7.44689 19.209 7.5144 19.1511 7.5656 19.0799C7.67991 18.9991 7.78802 18.9097 7.88903 18.8128C8.53552 18.9356 9.18796 19.0248 9.84371 19.0799C10.364 19.1643 10.5609 19.1643 11.1656 19.2487L10.9265 19.1221H10.7718C9.56714 18.9872 8.37023 18.7901 7.18591 18.5315C6.98763 18.7595 6.77131 18.9711 6.53904 19.1643C5.8644 18.9632 5.2208 18.6698 4.62654 18.2924L5.39998 18.5737C5.63502 18.3278 5.85125 18.0645 6.04685 17.7862C6.56716 17.9409 7.69216 18.2503 9.14059 18.5737C9.059 18.4922 8.99236 18.397 8.94371 18.2924C8.91625 18.3011 8.8868 18.3011 8.85934 18.2924C7.93122 18.0534 6.84841 17.7862 5.44217 17.3081C5.16092 17.6596 4.86561 17.9831 4.62654 18.2924C4.02309 17.9306 3.4699 17.4909 2.98124 16.9846L3.6703 17.3784C3.7828 17.2659 3.86717 17.1112 3.97967 16.9846C4.09217 16.8581 4.3453 16.5487 4.51404 16.3096C4.83748 16.4362 5.47029 16.7174 6.20154 16.9846C6.67966 17.1534 6.84841 17.2237 7.41091 17.3784C7.41091 17.2659 7.28435 17.1534 7.24216 17.0268C6.35623 16.7175 5.34373 16.3237 4.0078 15.719C3.65624 16.155 3.4453 16.4362 2.92499 17.0268C2.42846 16.5054 1.98561 15.9353 1.60312 15.3253C1.78883 15.5163 1.99119 15.6904 2.2078 15.8456C2.53124 15.494 2.84061 15.0581 3.29061 14.5378C3.76873 14.7768 4.69686 15.255 5.94841 15.8456C5.94841 15.6909 5.94841 15.5221 5.94841 15.3675C5.14685 14.9737 4.21873 14.4956 3.00936 13.7925C2.72811 14.0596 2.3203 14.58 1.60312 15.3675C1.19957 14.705 0.86501 14.0029 0.604685 13.2722C0.774285 13.4605 0.933879 13.6577 1.08281 13.8628L1.61718 13.2722C1.81406 13.0331 2.05312 12.794 2.46093 12.3581L3.86717 13.2722L4.87967 13.8628C4.87967 13.7081 4.87967 13.469 4.87967 13.3143C4.88592 13.3012 4.88917 13.2867 4.88917 13.2722C4.88917 13.2576 4.88592 13.2431 4.87967 13.23C4.14842 12.7518 3.34686 12.2456 2.29218 11.444C1.81406 11.88 1.29374 12.4425 0.52031 13.23C0.265901 12.501 0.091441 11.7466 0 10.98C0.1125 11.1768 0.239062 11.4159 0.365624 11.6128C0.646872 11.3737 1.40624 10.6987 2.13749 9.93935C2.46093 10.2206 3.17811 10.8534 4.19061 11.6128C4.19061 11.4159 4.30311 11.1768 4.34529 10.98V10.8956C3.6703 10.3472 3.09374 9.85498 2.17968 8.99717C1.44607 9.605 0.746571 10.2529 0.0843747 10.9378C0.0352712 10.5411 0.00710728 10.1421 0 9.74248C0.0071298 9.34751 0.0352946 8.9532 0.0843747 8.56123C0.162916 8.78226 0.22865 9.00764 0.281249 9.23623C0.604685 8.95498 0.731247 8.84248 1.08281 8.56123C1.43437 8.27998 1.72968 8.04092 2.37655 7.60499C2.57343 7.80186 2.89686 8.16748 3.34686 8.56123C3.79686 8.95498 3.74061 8.91279 4.06405 9.23623C4.15495 9.01707 4.2631 8.80547 4.38748 8.60342V8.51905C4.06405 8.20967 3.40311 7.60499 2.60155 6.70499C1.88437 7.16905 1.06875 7.73155 0.0703122 8.51905C0.144332 7.75215 0.309561 6.99681 0.562498 6.26905C0.562498 6.46593 0.562498 6.70499 0.646872 6.85968C1.04062 6.57843 1.89843 6.02999 3.06561 5.355C3.30467 5.63624 3.74061 6.14249 4.47186 6.85968C4.59842 6.70499 4.75311 6.46593 4.90779 6.31124L4.94998 6.33937ZM8.29684 6.6628C10.7578 2.62688 15.3281 2.58469 17.8031 6.6628C17.4546 5.67492 16.8083 4.81946 15.9532 4.21435C15.0981 3.60924 14.0764 3.28428 13.0289 3.28428C11.9813 3.28428 10.9596 3.60924 10.1045 4.21435C9.24942 4.81946 8.6031 5.67492 8.25465 6.6628H8.29684ZM17.6765 12.8362C15.2296 16.5909 10.8703 16.7174 8.33903 12.8362C8.72114 13.754 9.36642 14.5381 10.1935 15.0897C11.0206 15.6412 11.9925 15.9356 12.9867 15.9356C13.9808 15.9356 14.9527 15.6412 15.7798 15.0897C16.6069 14.5381 17.2522 13.754 17.6343 12.8362H17.6765ZM17.8452 9.67217C17.8871 8.99673 17.7949 8.31969 17.5741 7.68C17.3533 7.04031 17.0082 6.4506 16.5586 5.94481C16.109 5.43901 15.5638 5.02711 14.9544 4.73282C14.345 4.43853 13.6834 4.26764 13.0078 4.23C11.6533 4.32399 10.3904 4.94793 9.49284 5.96661C8.59524 6.98529 8.13522 8.31665 8.21247 9.67217C8.13168 11.0257 8.59124 12.356 9.49028 13.371C10.3893 14.3861 11.6544 15.0029 13.0078 15.0862C14.3584 14.9957 15.6191 14.3768 16.5166 13.3634C17.4142 12.35 17.8764 11.0239 17.8031 9.67217H17.8452Z" fill="white"/>
<path d="M21.3327 7.49251C20.9971 5.76022 20.2059 4.14868 19.0405 2.82378C18.2954 1.93897 17.3652 1.2285 16.3155 0.742528C15.2658 0.256559 14.1222 0.00693738 12.9655 0.0112863H12.0093C11.58 0.0607924 11.1563 0.150242 10.7437 0.278473C10.5327 0.278473 10.3358 0.419097 10.139 0.489409C8.93634 1.01646 7.84384 1.76547 6.91867 2.69721C6.48148 3.10902 6.10717 3.58283 5.80773 4.10346L5.62492 4.32846C4.72992 5.97444 4.24738 7.81289 4.21868 9.68625C4.15006 12.2274 5.06719 14.6966 6.77804 16.5768C7.52989 17.4827 8.47723 18.2063 9.5489 18.6934C10.6206 19.1805 11.7887 19.4185 12.9655 19.3893H13.078C14.1987 19.3506 15.2992 19.0807 16.3107 18.5968C17.3222 18.1128 18.2228 17.4251 18.9561 16.5768C20.1585 15.2331 20.9791 13.5919 21.3327 11.8237C20.86 11.3718 20.2529 11.0861 19.6033 11.01C18.9538 10.9339 18.2971 11.0715 17.7327 11.4019L17.5077 11.5284C17.2294 12.5206 16.6441 13.3993 15.8357 14.0384C15.0273 14.6775 14.0374 15.0443 13.0077 15.0862C11.6543 15.003 10.3893 14.3861 9.49023 13.3711C8.59119 12.356 8.13163 11.0257 8.21241 9.67218C8.13517 8.31667 8.59519 6.98531 9.49278 5.96663C10.3904 4.94795 11.6532 4.32401 13.0077 4.23002C14.0368 4.2667 15.0275 4.62986 15.8365 5.26693C16.6455 5.90401 17.2308 6.78197 17.5077 7.77376C18.0065 8.17314 18.6265 8.39075 19.2655 8.39075C19.9045 8.39075 20.5245 8.17314 21.0233 7.77376L21.3327 7.49251ZM17.7608 6.66282C15.2577 2.58471 10.7296 2.6269 8.2546 6.66282C8.61152 5.68929 9.25877 4.84884 10.1088 4.25509C10.9589 3.66135 11.9708 3.34295 13.0077 3.34295C14.0446 3.34295 15.0565 3.66135 15.9066 4.25509C16.7566 4.84884 17.4039 5.68929 17.7608 6.66282ZM8.29679 12.8362C10.828 16.7175 15.1874 16.5909 17.6342 12.8362C17.2588 13.767 16.6137 14.5642 15.7818 15.1257C14.9499 15.6871 13.9691 15.9871 12.9655 15.9871C11.9619 15.9871 10.9812 15.6871 10.1493 15.1257C9.31738 14.5642 8.67228 13.767 8.29679 12.8362Z" fill="white"/>
</svg>
