<svg width="180" height="20" viewBox="0 0 180 20" fill="none" xmlns="http://www.w3.org/2000/svg">
<path d="M47.0105 16.7173C44.9726 18.5524 42.2973 19.5165 39.5574 19.4033C36.8172 19.518 34.1413 18.5537 32.1043 16.7173C31.1647 15.8111 30.4281 14.7157 29.9433 13.5036C29.4584 12.2916 29.2364 10.9904 29.2918 9.68612C29.2355 8.38175 29.4571 7.08031 29.942 5.8681C30.4269 4.6559 31.1639 3.56062 32.1043 2.6549C34.1479 0.833838 36.823 -0.115087 39.5574 0.0111592C42.2973 -0.102074 44.9726 0.862059 47.0105 2.69709C47.953 3.60115 48.6915 4.69615 49.1765 5.90876C49.6616 7.12138 49.882 8.42362 49.8229 9.72831C49.875 11.0259 49.6512 12.3198 49.1664 13.5245C48.6816 14.7293 47.9468 15.8175 47.0105 16.7173ZM35.7605 13.5814C36.7711 14.5378 38.1097 15.0707 39.5011 15.0707C40.8925 15.0707 42.2311 14.5378 43.2417 13.5814C43.7233 13.064 44.096 12.455 44.3376 11.7907C44.5792 11.1263 44.6847 10.4202 44.648 9.71425C44.6836 9.01054 44.5775 8.30685 44.3359 7.64495C44.0944 6.98305 43.7223 6.37644 43.2417 5.86114C42.2311 4.90477 40.8925 4.37182 39.5011 4.37182C38.1097 4.37182 36.7711 4.90477 35.7605 5.86114C35.2826 6.37824 34.9122 6.98514 34.6708 7.64659C34.4293 8.30804 34.3218 9.01087 34.3543 9.71425C34.3274 10.4239 34.4429 11.1316 34.6941 11.7958C34.9453 12.4601 35.327 13.0672 35.8167 13.5814H35.7605Z" fill="#F74857"/>
<path d="M65.1791 0.953343C65.1791 0.348658 65.4604 0.0392841 66.0369 0.0392841H69.3416C69.4639 0.0249865 69.5878 0.0390431 69.7038 0.0803638C69.8197 0.121685 69.9246 0.189159 70.0103 0.277555C70.096 0.365951 70.1601 0.472893 70.1978 0.590087C70.2355 0.707282 70.2457 0.83158 70.2275 0.953343V18.4892C70.2457 18.611 70.2355 18.7353 70.1978 18.8525C70.1601 18.9697 70.096 19.0766 70.0103 19.165C69.9246 19.2534 69.8197 19.3209 69.7038 19.3622C69.5878 19.4035 69.4639 19.4176 69.3416 19.4033H66.7541C66.5477 19.406 66.3436 19.3604 66.158 19.27C65.9724 19.1797 65.8105 19.0471 65.6854 18.883L57.4729 8.91269V18.4892C57.491 18.611 57.4808 18.7353 57.4432 18.8525C57.4055 18.9697 57.3413 19.0766 57.2556 19.165C57.17 19.2534 57.0651 19.3209 56.9491 19.3622C56.8332 19.4035 56.7092 19.4176 56.587 19.4033H53.3104C52.7198 19.4033 52.4386 19.0939 52.4386 18.4892V0.953343C52.4386 0.348658 52.7198 0.0392841 53.3104 0.0392841H55.8417C56.0484 0.0342703 56.2534 0.0788998 56.4393 0.169431C56.6253 0.259962 56.7868 0.393755 56.9104 0.559595L65.1791 10.7408V0.953343Z" fill="#F74857"/>
<path d="M78.2994 15.1142H86.8353C87.4119 15.1142 87.6931 15.4095 87.6931 16.0002V18.4892C87.6931 19.0939 87.4119 19.4033 86.8353 19.4033H74.1791C73.6025 19.4033 73.3072 19.0939 73.3072 18.4892V0.953343C73.3072 0.348658 73.6025 0.0392841 74.1791 0.0392841H77.4697C78.0463 0.0392841 78.3416 0.348658 78.3416 0.953343L78.2994 15.1142Z" fill="#F74857"/>
<path d="M91.5322 19.4033C90.9697 19.4033 90.6744 19.0939 90.6744 18.4892V13.7361L83.6431 1.07991C83.5863 0.968898 83.5567 0.845996 83.5567 0.721313C83.5567 0.596629 83.5863 0.473727 83.6431 0.36272C83.7416 0.165846 83.9525 0.0814715 84.2759 0.0814715H88.115C88.3127 0.0767809 88.5076 0.128521 88.677 0.230633C88.8463 0.332745 88.9831 0.480999 89.0712 0.658032L93.29 8.26581H93.3884L97.6071 0.658032C97.6755 0.486218 97.7884 0.33572 97.9342 0.222025C98.08 0.10833 98.2535 0.0355445 98.4368 0.0111592H102.234C102.543 0.0111592 102.754 0.0955339 102.852 0.292408C102.913 0.402305 102.944 0.52564 102.944 0.651C102.944 0.776361 102.913 0.899696 102.852 1.00959L95.8212 13.6658V18.5033C95.8393 18.625 95.8291 18.7493 95.7915 18.8665C95.7538 18.9837 95.6896 19.0907 95.6039 19.1791C95.5183 19.2675 95.4134 19.3349 95.2974 19.3763C95.1815 19.4176 95.0575 19.4316 94.9353 19.4173L91.5322 19.4033Z" fill="#F74857"/>
<path d="M112.753 15.0298C113.715 15.1034 114.674 14.8526 115.477 14.3173C116.28 13.782 116.88 12.9932 117.183 12.0767C117.233 11.8974 117.342 11.7403 117.493 11.6306C117.643 11.5209 117.826 11.465 118.012 11.472H121.767C121.87 11.4644 121.974 11.4793 122.071 11.5157C122.168 11.5521 122.256 11.6092 122.329 11.6829C122.391 11.7638 122.434 11.858 122.453 11.958C122.473 12.058 122.469 12.1612 122.442 12.2595C122.037 14.3716 120.852 16.2542 119.123 17.5329C117.241 18.8376 114.985 19.4941 112.697 19.4032C109.985 19.5292 107.335 18.5732 105.328 16.7454C104.39 15.8375 103.655 14.7419 103.171 13.5302C102.686 12.3185 102.463 11.0181 102.515 9.71418C102.464 8.41034 102.687 7.11022 103.172 5.89867C103.656 4.68713 104.391 3.59139 105.328 2.68296C106.32 1.77541 107.482 1.07233 108.746 0.613882C110.011 0.155433 111.353 -0.049398 112.697 0.0110936C114.985 -0.0797641 117.241 0.576743 119.123 1.8814C120.86 3.16503 122.046 5.05951 122.442 7.18294C122.469 7.28121 122.473 7.38439 122.453 7.48441C122.434 7.58442 122.391 7.67857 122.329 7.7595C122.256 7.83324 122.168 7.89029 122.071 7.9267C121.974 7.96312 121.87 7.97804 121.767 7.97044H118.012C117.827 7.97261 117.646 7.9149 117.497 7.80592C117.347 7.69694 117.237 7.54254 117.183 7.36575C116.88 6.44926 116.28 5.6604 115.477 5.12511C114.674 4.58983 113.715 4.33899 112.753 4.41264C112.073 4.37753 111.392 4.48443 110.756 4.72653C110.119 4.96864 109.54 5.34065 109.054 5.81888C108.578 6.3373 108.209 6.94441 107.968 7.60554C107.727 8.26667 107.618 8.96886 107.648 9.67199C107.618 10.373 107.726 11.0732 107.967 11.7321C108.209 12.391 108.578 12.9956 109.054 13.511C109.53 14.0096 110.105 14.4024 110.742 14.6641C111.379 14.9258 112.064 15.0504 112.753 15.0298Z" fill="#634CA6"/>
<path d="M123.426 19.4032C123.3 19.417 123.172 19.397 123.056 19.3451C122.94 19.2932 122.839 19.2113 122.765 19.1079C122.701 18.9916 122.668 18.861 122.668 18.7282C122.668 18.5954 122.701 18.4648 122.765 18.3485L130.204 0.728278C130.276 0.517074 130.412 0.333898 130.594 0.205046C130.776 0.0761948 130.994 0.00829463 131.217 0.0110936H134.634C134.851 0.00115319 135.065 0.0633589 135.244 0.188007C135.422 0.312654 135.553 0.492734 135.618 0.700153L143.029 18.2923C143.093 18.4086 143.127 18.5392 143.127 18.672C143.127 18.8047 143.093 18.9353 143.029 19.0516C142.955 19.1551 142.855 19.2369 142.739 19.2888C142.623 19.3407 142.495 19.3608 142.368 19.347H138.839C138.615 19.3543 138.395 19.2881 138.212 19.1586C138.029 19.0292 137.894 18.8434 137.826 18.6298L136.771 15.9438H129.051L127.968 18.686C127.898 18.9008 127.76 19.0869 127.575 19.2163C127.39 19.3457 127.168 19.4113 126.942 19.4032H123.426ZM130.598 11.936H135.225L132.947 5.98763H132.876L130.598 11.936Z" fill="#634CA6"/>
<path d="M162.154 18.2923C162.242 18.3982 162.302 18.5244 162.329 18.6594C162.356 18.7945 162.349 18.9341 162.309 19.0657C162.242 19.1853 162.14 19.2816 162.017 19.3419C161.894 19.4022 161.755 19.4236 161.62 19.4032H157.598C157.388 19.4123 157.18 19.3633 156.996 19.2616C156.813 19.1598 156.661 19.0093 156.557 18.8266L152.901 13.2017H149.934V18.4891C149.934 19.0938 149.653 19.4032 149.062 19.4032H145.786C145.663 19.4175 145.539 19.4034 145.423 19.3621C145.307 19.3208 145.203 19.2533 145.117 19.1649C145.031 19.0765 144.967 18.9696 144.929 18.8524C144.892 18.7352 144.881 18.6109 144.9 18.4891V0.953277C144.881 0.831514 144.892 0.707216 144.929 0.590022C144.967 0.472827 145.031 0.365885 145.117 0.277489C145.203 0.189093 145.307 0.121619 145.423 0.0802981C145.539 0.0389774 145.663 0.0249208 145.786 0.0392185H153.407C155.497 -0.0785601 157.56 0.549369 159.229 1.81109C159.936 2.39151 160.498 3.128 160.871 3.96256C161.244 4.79712 161.419 5.70697 161.381 6.62044C161.455 7.79151 161.171 8.95748 160.565 9.96259C159.96 10.9677 159.062 11.7641 157.992 12.2454L162.154 18.2923ZM149.934 4.22983V8.94075H152.873C153.758 8.99289 154.638 8.78253 155.404 8.33606C155.693 8.15468 155.929 7.9009 156.09 7.59994C156.25 7.29897 156.329 6.96129 156.318 6.62044C156.329 6.28076 156.253 5.94395 156.098 5.64148C155.943 5.339 155.714 5.08072 155.432 4.89076C154.712 4.43041 153.868 4.19991 153.014 4.22983H149.934Z" fill="#634CA6"/>
<path d="M171.942 19.4032C169.888 19.5027 167.849 19.0149 166.064 17.997C165.321 17.5345 164.678 16.928 164.173 16.2131C163.668 15.4982 163.312 14.6894 163.125 13.8345C163.026 13.3142 163.251 13.047 163.8 13.047H167.343C167.522 13.0388 167.699 13.0839 167.851 13.1765C168.004 13.2692 168.126 13.4052 168.201 13.5673C168.808 14.4205 169.698 15.0304 170.713 15.288C171.728 15.5455 172.801 15.4341 173.742 14.9735C173.957 14.8734 174.137 14.7116 174.259 14.5088C174.382 14.306 174.442 14.0713 174.431 13.8345C174.427 13.6138 174.372 13.3969 174.27 13.2015C174.167 13.006 174.02 12.8375 173.84 12.7095C173.378 12.3922 172.857 12.1721 172.307 12.0626C171.674 11.922 170.985 11.7814 170.226 11.6548C169.45 11.5222 168.684 11.3342 167.934 11.0923C167.238 10.8694 166.569 10.5723 165.937 10.2064C165.28 9.80485 164.745 9.23098 164.39 8.547C163.964 7.72756 163.756 6.81232 163.785 5.88919C163.764 5.06845 163.944 4.25497 164.309 3.51965C164.674 2.78434 165.214 2.1495 165.881 1.67046C167.522 0.516787 169.503 -0.0526846 171.506 0.0532809C173.407 -0.0010613 175.285 0.486669 176.92 1.45953C177.618 1.8759 178.227 2.42739 178.71 3.08174C179.193 3.73609 179.54 4.48017 179.732 5.27045C179.845 5.7767 179.62 6.02982 179.071 6.02982H175.359C175.179 6.02528 175.005 5.97178 174.854 5.87512C174.702 5.77846 174.58 5.6423 174.501 5.48138C174.259 4.95774 173.855 4.52593 173.348 4.24987C172.842 3.97381 172.26 3.86817 171.689 3.94858C171.066 3.91488 170.448 4.07187 169.917 4.39858C169.704 4.5239 169.531 4.70623 169.416 4.92494C169.302 5.14364 169.251 5.38998 169.27 5.63607C169.268 5.90719 169.341 6.17355 169.48 6.40647C169.619 6.63939 169.818 6.83006 170.057 6.95794C170.666 7.31431 171.34 7.54391 172.04 7.63294C172.814 7.7595 173.671 7.94231 174.599 8.18137C175.476 8.40322 176.335 8.68513 177.173 9.02512C177.982 9.36571 178.672 9.93821 179.156 10.6704C179.714 11.5174 180.007 12.511 179.999 13.5251C180.013 14.3553 179.82 15.1758 179.437 15.9124C179.054 16.6491 178.493 17.2785 177.806 17.7438C176.08 18.9133 174.024 19.4952 171.942 19.4032Z" fill="#634CA6"/>
<path d="M12.6562 14.0736C12.5437 14.2283 12.375 14.3549 12.2625 14.5096C11.9961 14.4413 11.737 14.3471 11.489 14.2283C12.138 13.6778 12.6593 12.9927 13.0169 12.2205C13.3745 11.4483 13.5597 10.6075 13.5597 9.75648C13.5597 8.90549 13.3745 8.0647 13.0169 7.29247C12.6593 6.52025 12.138 5.83511 11.489 5.28462C11.752 5.17048 12.0251 5.08103 12.3046 5.01744C12.9457 5.62817 13.4548 6.36374 13.8007 7.17879C14.1465 7.99384 14.3218 8.8711 14.3156 9.75648C14.2845 11.3453 13.6973 12.873 12.6562 14.0736ZM12.5015 4.93306C13.1339 5.55989 13.6341 6.30732 13.9722 7.13103C14.3104 7.95474 14.4798 8.83797 14.4703 9.72835C14.4996 11.3722 13.9127 12.9674 12.8249 14.2002C12.7245 14.3107 12.6164 14.4141 12.5015 14.5096C13.1401 14.5561 13.7811 14.4642 14.3808 14.2399C14.9805 14.0157 15.5247 13.6646 15.9761 13.2105C16.4275 12.7565 16.7754 12.2102 16.9961 11.6092C17.2167 11.0082 17.3049 10.3666 17.2546 9.72835C17.3169 9.0794 17.2357 8.42469 17.0166 7.81066C16.7976 7.19662 16.4461 6.63831 15.9871 6.17531C15.5281 5.71231 14.9729 5.35597 14.3608 5.13157C13.7487 4.90716 13.0947 4.82019 12.4453 4.87681L12.5015 4.93306ZM4.94998 6.33931L3.54374 4.70806C2.74218 5.11587 1.85624 5.62212 0.731247 6.33931C0.939203 5.60904 1.22195 4.90217 1.57499 4.22994C1.57499 4.39869 1.57499 4.59556 1.57499 4.75025L2.61561 4.22994L4.21873 3.41432C4.37342 3.569 4.57029 3.85025 4.82342 4.15963C5.07654 4.469 5.06248 4.48306 5.25935 4.72213C5.4281 4.56744 5.62498 4.37056 5.77966 4.20181C5.93435 4.03307 5.77966 4.20181 5.77966 4.20181C5.49842 3.87838 5.21717 3.52682 4.65467 2.79557C3.76873 3.16119 2.79843 3.55494 1.47656 4.20181C1.84974 3.56011 2.29823 2.96528 2.81249 2.42995C2.81249 2.54245 2.81249 2.73932 2.81249 2.8237C3.2203 2.66901 4.21873 2.2612 5.62498 1.82526C5.86404 2.10651 6.42654 2.86588 6.46872 2.86588L7.07341 2.45807C6.70779 1.97995 6.46872 1.6987 6.22966 1.38933C5.0677 1.68423 3.92233 2.04099 2.79843 2.45807C3.31423 1.92733 3.90676 1.477 4.55623 1.12214C4.47346 1.21105 4.40256 1.31032 4.34529 1.41745C4.86561 1.31901 5.03436 1.23464 5.62498 1.12214C6.2156 1.00964 6.60935 0.883078 7.49528 0.728391C7.62057 0.852173 7.73799 0.98368 7.84684 1.12214C7.93122 1.12214 7.97341 1.27683 8.12809 1.43151C8.33903 1.41745 8.57809 1.23464 8.81715 1.16433C8.84461 1.17296 8.87407 1.17296 8.90153 1.16433C8.71008 0.90452 8.4934 0.664289 8.25465 0.447142C7.24216 0.601829 6.15935 0.798703 4.58436 1.16433C5.17653 0.802802 5.81522 0.523672 6.48279 0.334642C6.37673 0.380645 6.28106 0.447611 6.20154 0.531517C7.29587 0.351395 8.39897 0.22935 9.50621 0.165893C9.68527 0.259608 9.84698 0.383266 9.98433 0.531517L10.6312 0.362767H10.7859C10.6701 0.195664 10.5018 0.0719539 10.3078 0.0112063C9.29528 0.0112063 8.12809 0.0815185 6.52497 0.292455C6.84236 0.199917 7.16693 0.134063 7.49528 0.0955809C7.80679 0.043884 8.12173 0.0156796 8.43747 0.0112063H12.9656C14.1242 0.00767788 15.2696 0.257593 16.3214 0.743433C17.3733 1.22927 18.3061 1.93928 19.0546 2.8237C20.687 4.72931 21.5716 7.16306 21.5437 9.6721C21.569 12.1807 20.6848 14.6136 19.0546 16.5205C18.3175 17.3679 17.4141 18.0548 16.4006 18.5386C15.387 19.0224 14.2848 19.2928 13.1624 19.333H9.84371H9.9984H11.0531L9.14059 19.2064C9.00479 19.3189 8.83808 19.3875 8.66247 19.4033C7.9551 19.3965 7.2513 19.302 6.56716 19.1221C6.8307 19.1848 7.09868 19.2271 7.36872 19.2486C7.44689 19.2089 7.5144 19.1511 7.5656 19.0799C7.67991 18.999 7.78802 18.9097 7.88903 18.8127C8.53552 18.9356 9.18796 19.0248 9.84371 19.0799C10.364 19.1643 10.5609 19.1643 11.1656 19.2486L10.9265 19.1221H10.7718C9.56714 18.9871 8.37023 18.79 7.18591 18.5314C6.98763 18.7594 6.77131 18.971 6.53904 19.1643C5.8644 18.9632 5.2208 18.6698 4.62654 18.2924L5.39998 18.5736C5.63502 18.3277 5.85125 18.0645 6.04685 17.7861C6.56716 17.9408 7.69216 18.2502 9.14059 18.5736C9.059 18.4921 8.99236 18.3969 8.94371 18.2924C8.91625 18.301 8.8868 18.301 8.85934 18.2924C7.93122 18.0533 6.84841 17.7861 5.44217 17.308C5.16092 17.6596 4.86561 17.983 4.62654 18.2924C4.02309 17.9305 3.4699 17.4908 2.98124 16.9846L3.6703 17.3783C3.7828 17.2658 3.86717 17.1111 3.97967 16.9846C4.09217 16.858 4.3453 16.5486 4.51404 16.3096C4.83748 16.4361 5.47029 16.7174 6.20154 16.9846C6.67966 17.1533 6.84841 17.2236 7.41091 17.3783C7.41091 17.2658 7.28435 17.1533 7.24216 17.0268C6.35623 16.7174 5.34373 16.3236 4.0078 15.719C3.65624 16.1549 3.4453 16.4361 2.92499 17.0268C2.42846 16.5053 1.98561 15.9353 1.60312 15.3252C1.78883 15.5163 1.99119 15.6904 2.2078 15.8455C2.53124 15.494 2.84061 15.058 3.29061 14.5377C3.76873 14.7768 4.69686 15.2549 5.94841 15.8455C5.94841 15.6908 5.94841 15.5221 5.94841 15.3674C5.14685 14.9736 4.21873 14.4955 3.00936 13.7924C2.72811 14.0596 2.3203 14.5799 1.60312 15.3674C1.19957 14.7049 0.86501 14.0028 0.604685 13.2721C0.774285 13.4605 0.933879 13.6576 1.08281 13.8627L1.61718 13.2721C1.81406 13.033 2.05312 12.794 2.46093 12.358L3.86717 13.2721L4.87967 13.8627C4.87967 13.708 4.87967 13.469 4.87967 13.3143C4.88592 13.3011 4.88917 13.2867 4.88917 13.2721C4.88917 13.2575 4.88592 13.2431 4.87967 13.2299C4.14842 12.7518 3.34686 12.2455 2.29218 11.444C1.81406 11.8799 1.29374 12.4424 0.52031 13.2299C0.265901 12.501 0.091441 11.7465 0 10.9799C0.1125 11.1768 0.239062 11.4158 0.365624 11.6127C0.646872 11.3737 1.40624 10.6987 2.13749 9.93929C2.46093 10.2205 3.17811 10.8533 4.19061 11.6127C4.19061 11.4158 4.30311 11.1768 4.34529 10.9799V10.8955C3.6703 10.3471 3.09374 9.85492 2.17968 8.99711C1.44607 9.60493 0.746571 10.2528 0.0843747 10.9377C0.0352712 10.541 0.00710728 10.1421 0 9.74242C0.0071298 9.34745 0.0352946 8.95314 0.0843747 8.56117C0.162916 8.7822 0.22865 9.00757 0.281249 9.23617C0.604685 8.95492 0.731247 8.84242 1.08281 8.56117C1.43437 8.27992 1.72968 8.04086 2.37655 7.60493C2.57343 7.8018 2.89686 8.16742 3.34686 8.56117C3.79686 8.95492 3.74061 8.91273 4.06405 9.23617C4.15495 9.01701 4.2631 8.80541 4.38748 8.60336V8.51898C4.06405 8.20961 3.40311 7.60493 2.60155 6.70493C1.88437 7.16899 1.06875 7.73149 0.0703122 8.51898C0.144332 7.75209 0.309561 6.99675 0.562498 6.26899C0.562498 6.46587 0.562498 6.70493 0.646872 6.85962C1.04062 6.57837 1.89843 6.02993 3.06561 5.35494C3.30467 5.63618 3.74061 6.14243 4.47186 6.85962C4.59842 6.70493 4.75311 6.46587 4.90779 6.31118L4.94998 6.33931ZM8.29684 6.66274C10.7578 2.62682 15.3281 2.58463 17.8031 6.66274C17.4546 5.67486 16.8083 4.8194 15.9532 4.21429C15.0981 3.60918 14.0764 3.28422 13.0289 3.28422C11.9813 3.28422 10.9596 3.60918 10.1045 4.21429C9.24942 4.8194 8.6031 5.67486 8.25465 6.66274H8.29684ZM17.6765 12.8362C15.2296 16.5908 10.8703 16.7174 8.33903 12.8362C8.72114 13.7539 9.36642 14.538 10.1935 15.0896C11.0206 15.6412 11.9925 15.9355 12.9867 15.9355C13.9808 15.9355 14.9527 15.6412 15.7798 15.0896C16.6069 14.538 17.2522 13.7539 17.6343 12.8362H17.6765ZM17.8452 9.6721C17.8871 8.99667 17.7949 8.31963 17.5741 7.67994C17.3533 7.04025 17.0082 6.45054 16.5586 5.94474C16.109 5.43895 15.5638 5.02705 14.9544 4.73276C14.345 4.43846 13.6834 4.26758 13.0078 4.22994C11.6533 4.32393 10.3904 4.94787 9.49284 5.96655C8.59524 6.98523 8.13522 8.31659 8.21247 9.6721C8.13168 11.0256 8.59124 12.3559 9.49028 13.371C10.3893 14.386 11.6544 15.0029 13.0078 15.0861C14.3584 14.9957 15.6191 14.3767 16.5166 13.3633C17.4142 12.35 17.8764 11.0238 17.8031 9.6721H17.8452Z" fill="#634CA6"/>
<path d="M21.3324 7.49232C20.9968 5.76004 20.2056 4.14849 19.0402 2.82359C18.2952 1.93878 17.365 1.22831 16.3153 0.742345C15.2656 0.256376 14.122 0.00675428 12.9653 0.0111032H12.009C11.5798 0.0606093 11.1561 0.150059 10.7434 0.27829C10.5325 0.27829 10.3356 0.418914 10.1387 0.489226C8.9361 1.01628 7.84359 1.76529 6.91842 2.69703C6.48124 3.10884 6.10693 3.58264 5.80749 4.10327L5.62468 4.32827C4.72967 5.97425 4.24714 7.81271 4.21843 9.68606C4.14982 12.2272 5.06695 14.6964 6.7778 16.5767C7.52965 17.4825 8.47699 18.2061 9.54866 18.6932C10.6203 19.1804 11.7885 19.4183 12.9653 19.3892H13.0778C14.1984 19.3504 15.299 19.0806 16.3105 18.5966C17.3219 18.1126 18.2226 17.4249 18.9559 16.5767C20.1583 15.2329 20.9789 13.5917 21.3324 11.8236C20.8597 11.3716 20.2526 11.086 19.6031 11.0098C18.9535 10.9337 18.2968 11.0713 17.7324 11.4017L17.5074 11.5282C17.2291 12.5205 16.6438 13.3991 15.8355 14.0382C15.0271 14.6774 14.0371 15.0442 13.0075 15.086C11.6541 15.0028 10.389 14.3859 9.48998 13.3709C8.59095 12.3558 8.13138 11.0255 8.21217 9.672C8.13492 8.31648 8.59494 6.98513 9.49254 5.96645C10.3901 4.94776 11.653 4.32382 13.0075 4.22984C14.0365 4.26652 15.0272 4.62967 15.8362 5.26675C16.6452 5.90383 17.2305 6.78178 17.5074 7.77357C18.0063 8.17296 18.6262 8.39056 19.2652 8.39056C19.9043 8.39056 20.5242 8.17296 21.0231 7.77357L21.3324 7.49232ZM17.7606 6.66264C15.2575 2.58453 10.7293 2.62672 8.25436 6.66264C8.61128 5.68911 9.25853 4.84865 10.1086 4.25491C10.9587 3.66116 11.9706 3.34277 13.0075 3.34277C14.0444 3.34277 15.0562 3.66116 15.9063 4.25491C16.7564 4.84865 17.4036 5.68911 17.7606 6.66264ZM8.29654 12.8361C10.8278 16.7173 15.1871 16.5907 17.634 12.8361C17.2585 13.7668 16.6134 14.564 15.7815 15.1255C14.9496 15.6869 13.9689 15.9869 12.9653 15.9869C11.9617 15.9869 10.9809 15.6869 10.149 15.1255C9.31714 14.564 8.67203 13.7668 8.29654 12.8361Z" fill="#F74857"/>
</svg>
