<svg width="1180" height="1148" viewBox="0 0 1180 1148" fill="none" xmlns="http://www.w3.org/2000/svg">
<path d="M804.567 257C801.376 248.311 797.371 239.942 792.605 232.005C782.151 240.829 771.251 249.113 759.949 256.825C762.743 266.79 764.421 277.034 764.954 287.369L818.205 298.367C825.287 293.068 828.665 290.468 835.096 285.319L811.824 280.945C810.422 280.695 810.773 279.32 812.599 277.921C814.25 276.589 816.308 275.865 818.43 275.871L841.577 280.045C848.509 274.321 851.762 271.497 857.918 265.948L805.368 257.5C804.967 257.475 804.667 257.3 804.567 257Z" fill="#EBE9F0"/>
<path d="M861.621 200.086C854.359 193.772 846.766 187.848 838.875 182.339C834.585 189.221 829.686 195.704 824.236 201.71C831.431 208.417 838.122 215.643 844.255 223.331L893.452 228.98C896.605 225.006 898.081 223.056 900.809 219.207L879.613 217.007C878.337 217.007 877.962 215.908 878.762 214.858C879.212 214.303 879.786 213.862 880.438 213.571C881.09 213.28 881.802 213.147 882.516 213.183L903.536 215.258C906.414 210.959 907.74 208.834 910.092 204.66L862.547 200.536C862.203 200.474 861.883 200.318 861.621 200.086Z" fill="#EBE9F0"/>
<path d="M838.899 226.706C833.322 219.278 827.226 212.254 820.657 205.685C813.585 213.469 806.003 220.776 797.961 227.555C803.357 235.641 807.958 244.229 811.699 253.2L863.248 261.174C868.127 256.7 870.354 254.2 874.809 249.851L852.462 246.702C851.111 246.527 851.061 245.377 852.312 244.202C853.568 242.995 855.249 242.331 856.992 242.352L879.188 245.327C883.842 240.328 886.019 237.828 890.023 233.154L839.825 227.105C839.652 227.105 839.48 227.07 839.321 227.001C839.162 226.932 839.018 226.832 838.899 226.706Z" fill="#EBE9F0"/>
<path d="M875.96 122.026C863.723 118.177 857.567 116.327 845.206 112.853C847.51 116.579 849.303 120.597 850.536 124.801C863.248 129 869.579 131.224 882.066 135.923L920.302 136.498C919.654 134.548 918.893 132.637 918.025 130.774L901.759 130.624C901.313 130.647 900.869 130.55 900.473 130.344C900.077 130.137 899.743 129.828 899.507 129.45C899.257 128.825 899.858 128.325 900.833 128.325H916.949C915.896 126.184 914.735 124.099 913.471 122.076H876.961C876.627 122.12 876.288 122.103 875.96 122.026Z" fill="#EBE9F0"/>
<path d="M880.99 138.098C869.203 133.549 863.223 131.374 851.236 127.275C852.477 131.638 853.043 136.164 852.913 140.697C865.099 145.696 871.105 148.196 882.941 153.795L923.881 155.22C923.808 153.035 923.607 150.857 923.28 148.696L905.763 148.221C904.687 148.221 903.786 147.596 903.711 146.871C903.636 146.146 904.437 145.596 905.488 145.621L922.779 146.046C922.349 143.653 921.764 141.29 921.028 138.973L881.915 138.273C881.6 138.26 881.288 138.201 880.99 138.098Z" fill="#EBE9F0"/>
<path d="M881.065 156.219C869.929 150.87 864.274 148.321 852.838 143.472C852.664 148.575 851.754 153.626 850.135 158.469C861.496 164.318 867.076 167.417 877.912 173.941L921.628 176.44C922.27 173.973 922.763 171.469 923.105 168.942L904.437 168.017C903.286 168.017 902.51 167.267 902.685 166.442C902.857 165.987 903.178 165.603 903.596 165.353C904.014 165.103 904.505 165.003 904.987 165.068L923.505 165.917C923.839 163.24 923.99 160.542 923.956 157.844L882.066 156.294C881.73 156.333 881.391 156.307 881.065 156.219Z" fill="#EBE9F0"/>
<path d="M875.084 176.715C864.949 170.392 859.719 167.392 849.109 161.718C847.093 167.693 844.389 173.413 841.052 178.765C849.564 184.412 857.767 190.511 865.625 197.036L912.144 200.886C913.946 197.436 914.772 195.737 916.223 192.387L896.204 190.913C894.978 190.913 894.377 190.013 894.828 189.088C895.139 188.588 895.581 188.182 896.105 187.914C896.63 187.645 897.218 187.524 897.806 187.563L917.574 188.938C918.807 185.931 919.852 182.851 920.702 179.715L876.01 177.04C875.68 177.006 875.363 176.894 875.084 176.715Z" fill="#EBE9F0"/>
<path d="M17.6668 537.42C18.2424 542.769 18.5176 545.468 19.0932 550.942C1086.19 226.706 909.617 52.2148 564.813 18.9463L560.584 19.6711C901.384 52.8896 1067.02 224.556 17.6668 537.42Z" fill="#EBE9F0"/>
<path d="M174.491 600.657C206.297 589.135 221.736 583.586 251.715 572.363L239.203 552.567C238.452 551.367 244.458 548.043 252.491 545.068C260.523 542.094 267.505 540.744 268.356 541.894L282.069 560.915C314.6 548.568 330.14 542.494 360.318 530.471L323.358 492.228C323.058 491.904 323.358 491.379 324.309 490.679C358.617 464.559 373.731 452.336 400.457 429.466C351.26 448.012 324.835 457.46 268.456 476.657C227.942 504.701 205.07 519.798 153.346 552.242C161.479 570.838 165.683 580.511 174.491 600.657Z" fill="#EBE9F0"/>
<path d="M755.695 291.693C755.67 281.698 754.571 271.734 752.417 261.974C736.202 272.947 727.218 278.595 707.374 290.193C706.342 302.563 704.028 314.793 700.468 326.686L754.294 341.683C764.178 335.534 768.933 332.485 778.017 326.511L754.219 320.537C752.792 320.162 753.718 318.563 756.271 316.938C758.37 315.452 760.88 314.657 763.453 314.663L787.2 320.387C797.035 313.763 801.689 310.389 810.548 304.04L756.421 292.393C755.971 292.318 755.72 292.093 755.695 291.693Z" fill="#EBE9F0"/>
<path d="M613.41 23.4954L628.624 21.1708L617.614 19.9961L611.233 20.9959C610.225 21.0686 609.213 21.0686 608.205 20.9959C606.928 20.8459 606.228 20.6959 606.603 20.646L612.934 19.6212L599.772 18.3464L585.333 20.8459H584.607C575.323 20.8459 570.669 20.8459 561.385 20.6709L558.482 21.1708C567.216 21.9457 571.495 22.3706 579.828 23.2204C593.19 23.1205 599.947 23.2454 613.41 23.4954Z" fill="#EBE9F0"/>
<path d="M386.393 519.998C410.541 510.225 422.227 505.376 444.874 495.803L425.931 481.056C424.805 480.181 428.959 477.406 435.115 474.882C441.271 472.357 447.051 471.033 448.227 471.882L467.771 486.055C492.269 475.507 504.055 470.308 526.727 460.035L479.182 431.44C478.781 431.19 478.881 430.766 479.457 430.166C500.877 408.495 510.136 398.322 526.101 379.226C487.99 395.497 467.42 403.821 423.128 420.842C397.028 444.263 382.114 456.835 348.057 483.73C362.846 497.752 370.503 505.001 386.393 519.998Z" fill="#EBE9F0"/>
<path d="M688.606 331.685C692.572 320.157 695.446 308.282 697.189 296.217C675.193 308.714 663.132 315.163 636.807 328.336C630.231 343.472 622.466 358.064 613.585 371.977L666.135 392.173C679.623 385.025 686.154 381.475 698.666 374.502L675.068 366.378C673.642 365.878 675.369 363.879 678.822 362.079C682.275 360.279 686.329 359.105 687.63 359.58L711.328 367.353C724.866 359.63 731.347 355.83 743.709 348.332L689.232 332.51C688.656 332.31 688.481 332.035 688.606 331.685Z" fill="#EBE9F0"/>
<path d="M616.888 24.0703C604.126 23.7953 597.72 23.6954 584.983 23.5204C595.693 24.6452 600.873 25.2451 610.982 26.4948C624.345 26.7947 631.001 26.9697 644.464 27.3696L660.855 25.0701L650.27 23.7204L643.363 24.7202C642.376 24.7419 641.388 24.6834 640.41 24.5452C639.184 24.3952 638.534 24.2203 638.959 24.1703L645.79 23.1705L633.279 21.6957L617.614 24.0453L616.888 24.0703Z" fill="#EBE9F0"/>
<path d="M731.447 43.2415C718.71 42.2917 712.354 41.8668 699.692 41.067C708.375 42.9416 712.554 43.9164 720.612 45.941C734 46.9408 740.631 47.4907 754.119 48.6655L775.914 46.7408C772.461 45.841 770.71 45.3911 767.156 44.5163L757.972 45.4161C757.048 45.3823 756.131 45.2311 755.245 44.9662C754.244 44.7162 753.893 44.4663 754.444 44.4163L763.553 43.5165C759.449 42.5417 757.347 42.0418 753.118 41.017L732.323 43.1665C732.035 43.2242 731.741 43.2493 731.447 43.2415Z" fill="#EBE9F0"/>
<path d="M677.07 32.4686C664.358 31.9187 658.027 31.6688 645.34 31.2189C655.024 32.6936 659.729 33.4434 668.787 35.0431C682.125 35.668 688.807 35.9929 702.194 36.7678L721.112 34.5682C717.284 33.8434 715.357 33.4934 711.453 32.8186L703.47 33.7684C702.505 33.7861 701.541 33.7023 700.593 33.5184C699.492 33.3185 698.966 33.1185 699.467 33.0685L707.349 32.0937C702.82 31.3189 700.518 30.9439 695.863 30.1941L677.821 32.4686C677.571 32.4942 677.32 32.4942 677.07 32.4686Z" fill="#EBE9F0"/>
<path d="M704.972 37.5426C692.285 36.7928 685.929 36.4678 673.267 35.843C682.45 37.5176 686.88 38.3425 695.463 40.1671C708.801 40.967 715.482 41.4169 728.895 42.3667L749.214 40.2421C745.561 39.4423 743.734 39.0423 739.98 38.2675L731.422 39.2423C730.464 39.2645 729.506 39.1722 728.569 38.9674C727.518 38.7424 727.093 38.5174 727.619 38.4675L736.102 37.5176C731.773 36.6428 729.57 36.2179 725.116 35.3681L705.748 37.5926C705.573 37.5676 705.197 37.5426 704.972 37.5426Z" fill="#EBE9F0"/>
<path d="M647.642 27.9945C634.905 27.5946 628.549 27.4196 615.862 27.1197C626.047 28.4194 630.876 29.0943 640.56 30.494C653.898 30.9439 660.58 31.1939 673.967 31.7688L691.484 29.5192L681.475 27.9695L673.967 28.9443C672.995 28.9818 672.022 28.9148 671.065 28.7444C669.888 28.5694 669.313 28.3944 669.763 28.3194L677.12 27.3446C672.516 26.7448 670.164 26.3198 665.159 25.67L648.368 27.9945C648.126 28.0075 647.884 28.0075 647.642 27.9945Z" fill="#EBE9F0"/>
<path d="M580.804 20.1211L594.892 17.7715L583.331 16.7467L577.4 17.7715H576.85L563.912 19.9711C570.669 20.0211 574.047 20.0461 580.804 20.1211Z" fill="#EBE9F0"/>
<path d="M866.876 107.804C854.364 104.505 848.083 102.955 835.471 99.9804C838.644 103.225 841.454 106.803 843.854 110.653C856.917 114.228 863.448 116.102 876.385 120.101H912.069C910.693 118.052 909.967 117.052 908.416 115.102L893.401 115.227C892.937 115.246 892.475 115.166 892.044 114.994C891.612 114.822 891.222 114.561 890.899 114.228C890.499 113.653 890.899 113.203 891.825 113.203L906.839 113.053C904.987 110.803 904.012 109.703 901.834 107.529L867.802 108.079C867.485 108.019 867.175 107.927 866.876 107.804Z" fill="#EBE9F0"/>
<path d="M537.012 24.5952L522.923 27.0947L516.768 28.1445L526.627 29.1443L541.791 26.6448C540.04 25.8199 539.014 25.395 537.012 24.5952Z" fill="#EBE9F0"/>
<path d="M756.421 49.6153C743.659 48.4655 737.303 47.9406 724.591 46.9408C732.748 49.0404 736.677 50.1402 744.209 52.3897C757.622 53.6395 764.228 54.2894 777.791 55.7391L801.164 53.8145C797.91 52.8146 796.159 52.3147 792.906 51.3149L783.046 52.1648C782.105 52.1543 781.17 52.0113 780.269 51.7399C779.343 51.4649 779.068 51.215 779.668 51.14L789.427 50.2901C785.549 49.1904 783.572 48.6405 779.418 47.5657L757.122 49.6153C756.888 49.6331 756.654 49.6331 756.421 49.6153Z" fill="#EBE9F0"/>
<path d="M839.125 83.8586C826.338 81.3591 819.956 80.3593 807.169 78.2597C811.719 80.8104 816.107 83.6403 820.307 86.733C833.72 89.2325 840.451 90.6572 853.839 93.5317L884.818 92.5319C882.616 90.9322 881.465 90.0324 879.138 88.5576L866 89.0575C865.116 89.022 864.256 88.7641 863.498 88.3077C862.872 87.8578 862.997 87.4829 863.773 87.4579L876.786 86.958C874.033 85.1833 872.632 84.3085 869.704 82.6088L840.151 83.9086L839.125 83.8586Z" fill="#EBE9F0"/>
<path d="M854.414 95.1314C841.727 92.3319 835.371 91.0072 822.659 88.5077C826.552 91.3773 830.201 94.5624 833.569 98.0308C846.882 101.055 853.589 102.655 866.751 106.054L900.008 105.454C898.181 103.63 897.23 102.73 895.253 100.98L881.14 101.305C880.232 101.296 879.353 100.989 878.637 100.43C878.112 99.9304 878.362 99.5305 879.213 99.5055L893.176 99.1556C890.849 97.156 889.648 96.1811 887.095 94.1565L855.34 95.2313C855.029 95.2297 854.719 95.1962 854.414 95.1314Z" fill="#EBE9F0"/>
<path d="M821.383 73.7855C808.571 71.7859 802.165 70.8611 789.377 69.0865C795.783 72.0359 798.786 73.5356 804.392 76.585C817.854 78.7346 824.586 79.8843 838.049 82.3339L866.926 81.0091C864.424 79.5844 863.123 78.8845 860.47 77.4848L848.259 78.1097C847.33 78.0873 846.417 77.8656 845.581 77.4598C844.855 77.0599 844.855 76.71 845.581 76.685L857.692 76.0601C854.615 74.4854 853.013 73.7106 849.785 72.1859L822.259 73.7605L821.383 73.7855Z" fill="#EBE9F0"/>
<path d="M801.539 64.8123C788.727 63.1376 782.321 62.3128 769.558 60.8631C776.615 63.3626 779.943 64.8623 786.274 67.6617C799.737 69.4864 806.494 70.4612 819.981 72.5108L846.882 70.9361C844.079 69.6613 842.653 69.0365 839.75 67.8117L828.364 68.5116C827.428 68.5109 826.501 68.324 825.637 67.9617C824.836 67.6117 824.736 67.2868 825.437 67.2368L836.697 66.537C833.319 65.1372 831.693 64.4374 828.064 63.0876L802.39 64.8623C802.105 64.8678 801.821 64.8511 801.539 64.8123Z" fill="#EBE9F0"/>
<path d="M779.818 56.7389C767.031 55.3392 760.65 54.6893 747.913 53.4645C755.545 55.8141 759.199 57.0388 766.13 59.5633C779.593 61.063 786.324 61.8629 799.812 63.6125L824.836 61.8379C821.808 60.7131 820.257 60.1382 817.104 59.0384L806.519 59.8383C805.573 59.833 804.635 59.6726 803.741 59.3634C802.865 59.0384 802.69 58.7385 803.316 58.7135L813.826 57.9136C810.172 56.6639 808.32 56.039 804.517 54.8392L780.594 56.7639C780.335 56.7762 780.076 56.7679 779.818 56.7389Z" fill="#EBE9F0"/>
<path d="M598.52 377.476C607.757 363.914 616.019 349.715 623.244 334.984C594.066 349.257 578.201 356.58 543.843 371.577C529.705 389.837 514.577 407.31 498.525 423.917L546.421 451.037C564.563 442.663 573.346 438.539 590.288 430.341L568.041 419.393C566.715 418.743 569.468 416.418 574.122 414.244C578.777 412.069 583.531 410.869 584.882 411.494L607.404 422.017C625.746 412.994 634.53 408.545 651.396 399.797L598.696 378.451C598.245 378.301 598.195 377.951 598.52 377.476Z" fill="#EBE9F0"/>
<path d="M7.20686 514.149C7.78241 519.723 8.08271 522.548 8.68328 528.246C1042.84 225.231 886.295 55.6391 549.073 22.5456L544.069 23.3704C876.711 56.3639 1021.5 223.081 7.20686 514.149Z" fill="#EBE9F0"/>
<path d="M787.976 88.1077C784.362 85.094 780.541 82.3378 776.54 79.8593C772.371 82.5301 768.06 84.9748 763.628 87.1829C763.423 87.2724 763.201 87.3151 762.977 87.3079L733.524 88.6076C734.798 89.8114 736.009 91.0795 737.153 92.4069L749.464 91.932C750.237 91.8747 751.004 92.1063 751.616 92.5819C751.967 92.9568 751.616 93.3067 750.766 93.3317L738.254 93.8066C739.196 94.9016 740.082 96.0446 740.906 97.2309L771.435 96.2311C778.717 92.9818 781.995 91.3571 787.976 88.1077Z" fill="#EBE9F0"/>
<path d="M673.692 42.6416C665.609 40.867 661.405 40.0172 652.697 38.3675C653.589 39.8863 654.079 41.6064 654.123 43.3665C654.123 43.3665 654.123 43.3665 653.873 43.3665L633.479 45.691C636.957 46.4909 638.659 46.8908 642.012 47.7156L650.595 46.7658C651.437 46.7548 652.278 46.8471 653.097 47.0408C653.948 47.2407 654.173 47.4657 653.598 47.5407L645.14 48.5905L652.197 50.4151L673.442 48.1906C674.034 46.399 674.12 44.4791 673.692 42.6416Z" fill="#EBE9F0"/>
<path d="M757.897 69.5614C752.167 66.8119 749.139 65.4872 742.683 62.9127C740.393 65.3046 737.879 67.4723 735.176 69.3864C735.01 69.4126 734.841 69.4126 734.675 69.3864L708.525 71.186C710.828 72.3858 711.953 73.0107 714.106 74.2604L725.041 73.5606C725.854 73.5338 726.661 73.7054 727.393 74.0605C727.944 74.3604 727.794 74.6604 727.043 74.7104L716.032 75.4102C717.859 76.51 718.735 77.0599 720.437 78.1847L747.738 76.735C751.301 74.6046 754.698 72.2065 757.897 69.5614Z" fill="#EBE9F0"/>
<path d="M774.113 78.3346C769.775 75.6049 765.298 73.102 760.7 70.8361C757.526 73.355 754.182 75.6517 750.69 77.7098C750.523 77.8033 750.332 77.8467 750.14 77.8347L722.363 79.4094C724.315 80.7592 725.241 81.459 727.018 82.8338L738.629 82.2339C739.422 82.1809 740.211 82.3823 740.881 82.8088C741.357 83.1587 741.081 83.4836 740.306 83.5086L728.619 84.1085C730.121 85.3083 730.822 85.9332 732.198 87.1829L761 85.8582C765.512 83.6043 769.89 81.0923 774.113 78.3346Z" fill="#EBE9F0"/>
<path d="M648.443 37.5676C639.835 35.9929 635.381 35.2431 626.147 33.7934C627.585 35.1213 628.75 36.7177 629.575 38.4925C629.575 38.4925 629.575 38.4925 629.35 38.4925L610.257 40.992C613.985 41.7168 615.837 42.0668 619.44 42.8166L627.473 41.8168C628.363 41.7944 629.252 41.8699 630.126 42.0418C631.051 42.2417 631.352 42.4417 630.801 42.4917L622.618 43.4665C625.721 44.1164 627.248 44.4413 630.251 45.1162L650.27 42.7916C650.122 40.9221 649.493 39.1225 648.443 37.5676Z" fill="#EBE9F0"/>
<path d="M739.555 61.7379C733.174 59.2384 729.821 58.0886 722.764 55.7891C721.356 57.9914 719.656 59.9926 717.709 61.7379C717.575 61.8234 717.418 61.8669 717.259 61.8629L692.66 63.8375C695.313 64.9373 696.589 65.4872 699.066 66.6369L709.376 65.8371C710.231 65.805 711.083 65.9497 711.878 66.262C712.504 66.562 712.479 66.8369 711.878 66.8869L701.469 67.6617C703.596 68.6615 704.647 69.1614 706.648 70.1612L732.223 68.3366C734.892 66.4008 737.35 64.1889 739.555 61.7379Z" fill="#EBE9F0"/>
<path d="M719.311 54.6143C712.329 52.4147 708.675 51.3399 701.043 49.2903C700.516 51.3469 699.58 53.2765 698.29 54.9642C698.29 54.9642 698.115 54.9642 697.915 55.0892L674.768 57.2138C677.721 58.2136 679.147 58.7135 681.95 59.7133L691.659 58.8635C692.508 58.8231 693.357 58.9418 694.162 59.2134C694.862 59.4633 694.912 59.7383 694.162 59.7883L684.377 60.6381C686.88 61.5129 687.956 61.9879 690.233 62.8877L714.281 60.9131C716.281 59.0933 717.979 56.9671 719.311 54.6143Z" fill="#EBE9F0"/>
<path d="M212.227 450.387C161.854 454.536 136.805 456.236 87.3332 458.985C86.057 458.985 85.3063 458.985 85.2062 458.635C80.6268 445.738 78.4247 439.489 74.1206 427.416C45.2431 434.915 30.404 438.639 0 446.138C2.50238 470.133 3.87869 482.905 6.75643 510.175C95.2658 485.98 136.33 473.957 212.227 450.387Z" fill="#EBE9F0"/>
<path d="M621.667 33.0935C612.609 31.7438 607.804 31.0189 598.045 29.7442C600.036 30.9904 601.847 32.5043 603.425 34.2433C603.425 34.2433 603.425 34.2433 603.25 34.2433L585.383 36.7428C589.387 37.3677 591.339 37.6926 595.217 38.3425L602.724 37.3427C603.621 37.2897 604.52 37.3485 605.402 37.5176C606.378 37.6676 606.778 37.8676 606.253 37.9426L598.746 38.9424C602.074 39.5173 603.75 39.7922 606.928 40.3921L625.596 37.8926C624.618 36.0487 623.282 34.4174 621.667 33.0935Z" fill="#EBE9F0"/>
<path d="M121.916 561.94C121.766 561.54 122.417 560.865 123.818 560.015C175.392 528.571 198.364 513.899 239.378 486.505C155.949 514.399 110.455 528.696 11.7862 557.716C15.5148 593.084 17.5417 612.18 21.7958 653.597C70.8425 637.15 94.3649 629.002 139.908 612.955C132.476 591.634 128.848 581.486 121.916 561.94Z" fill="#EBE9F0"/>
<path d="M548.323 29.7692C549.255 29.6784 550.193 29.6784 551.125 29.7692C552.226 29.8941 552.777 30.0691 552.326 30.1441L545.72 31.1689L555.054 32.4186L571.344 29.9191C568.817 28.2731 566.155 26.8433 563.387 25.645C555.354 24.7951 551.25 24.3952 542.817 23.6204L539.814 24.1453C542.642 25.2451 543.918 25.7949 546.271 26.9197L530.756 29.4192C535.285 29.9191 537.512 30.1441 541.891 30.669L548.323 29.7692Z" fill="#EBE9F0"/>
<path d="M238.853 442.038C290.777 425.617 315.15 417.493 360.819 401.571C315.776 406.42 293.029 408.57 247.911 412.269C246.735 412.269 245.984 412.269 245.759 412.044L221.611 387.049C200.566 393.148 189.706 396.222 167.66 402.346L175.442 413.119C175.968 413.869 171.714 415.793 165.883 417.443C160.053 419.093 154.798 419.943 154.322 419.068C151.469 414.569 150.068 412.344 147.265 407.97C127.246 413.419 117.237 416.143 96.3919 421.617C101.397 433.165 103.899 439.114 109.404 451.437C160.728 448.437 186.678 446.662 238.853 442.038Z" fill="#EBE9F0"/>
<path d="M575.523 30.394L558.833 32.8936L569.318 34.2433L576.349 33.2185C577.27 33.1693 578.192 33.2195 579.102 33.3685C580.153 33.5184 580.603 33.6934 580.128 33.7434L573.046 34.7682L581.779 36.0679L599.296 33.5684C597.49 31.8739 595.471 30.4204 593.29 29.2443C583.631 28.0195 578.626 27.4196 568.267 26.3198C570.822 27.4618 573.268 28.8339 575.574 30.419C575.574 30.419 575.674 30.369 575.523 30.394Z" fill="#EBE9F0"/>
<path d="M697.34 48.2905C689.832 46.3159 685.854 45.3661 677.671 43.5165C677.917 45.3216 677.711 47.1596 677.07 48.8654C677.07 48.8654 676.92 48.8654 676.72 48.8654L654.999 51.115C658.227 51.9898 659.804 52.4647 662.882 53.3645L671.99 52.4647C672.835 52.4433 673.678 52.5443 674.493 52.7647C675.268 53.0146 675.419 53.2396 674.793 53.3145L665.659 54.2394L672.116 56.289L694.637 54.1894C695.951 52.4395 696.873 50.4277 697.34 48.2905Z" fill="#EBE9F0"/>
<path d="M655.149 278.47C674.918 267.972 683.952 262.848 700.418 252.825C673.767 258.049 660.104 260.549 632.177 265.323C631.598 265.42 631.006 265.42 630.426 265.323L587.335 256.05C578.451 260.274 573.847 262.399 564.288 266.673L581.404 270.797C582.555 271.072 581.529 272.222 579.077 273.296C577.044 274.344 574.782 274.868 572.496 274.821L555.479 270.547C546.821 274.371 542.367 276.271 533.183 280.145L574.498 291.643C607.604 286.694 623.669 284.194 655.149 278.47Z" fill="#EBE9F0"/>
<path d="M799.112 98.9806C796.365 95.6489 793.316 92.5781 790.003 89.8074C784.122 92.9318 780.894 94.5065 773.938 97.6059C773.698 97.6479 773.452 97.6479 773.212 97.6059L742.007 98.5557C742.921 99.9063 743.757 101.308 744.51 102.755L757.522 102.43C757.89 102.399 758.261 102.451 758.607 102.581C758.953 102.71 759.266 102.915 759.524 103.18C759.774 103.605 759.249 103.98 758.373 104.005L745.26 104.305C745.856 105.537 746.375 106.806 746.812 108.104L779.143 107.504C787.776 104.23 791.73 102.48 799.112 98.9806Z" fill="#EBE9F0"/>
<path d="M708.175 248.101C723.189 238.778 729.82 234.204 741.907 225.331C718.86 230.33 706.874 232.829 682.551 237.428C682.028 237.509 681.496 237.509 680.974 237.428L637.633 230.53C630.751 234.329 627.148 236.254 619.691 240.128L637.207 243.277C638.383 243.477 637.808 244.477 635.906 245.477C634.19 246.45 632.249 246.958 630.276 246.952L612.884 243.677C606.078 247.127 602.574 248.851 595.367 252.351L637.908 261.149C666.66 256.175 680.774 253.55 708.175 248.101Z" fill="#EBE9F0"/>
<path d="M382.139 394.173C423.679 379.376 443.097 372.102 479.257 357.855C439.219 363.079 419.199 365.478 378.511 369.803C377.82 369.971 377.099 369.971 376.409 369.803L343.502 349.981C326.211 355.58 317.327 358.405 299.085 364.079L310.971 372.677C311.772 373.277 308.469 374.977 303.815 376.501C299.16 378.026 294.406 378.776 293.63 378.151L282.294 369.028C265.828 374.027 257.395 376.526 240.154 381.675L265.378 405.52C312.047 401.671 335.47 399.172 382.139 394.173Z" fill="#EBE9F0"/>
<path d="M496.123 351.031C529.029 337.784 544.294 331.31 572.571 318.538C537.537 323.887 519.595 326.411 483.536 331.035C482.877 331.188 482.192 331.188 481.534 331.035L443.047 315.488C429.034 320.487 421.802 323.187 406.913 328.361L421.502 335.184C422.503 335.659 420.2 337.134 416.297 338.534C413.51 339.755 410.479 340.319 407.438 340.183L393.15 333.135C379.687 337.759 372.805 340.083 358.667 344.732L392.049 363.629C433.989 359.18 454.959 356.68 496.123 351.031Z" fill="#EBE9F0"/>
<path d="M747.512 221.132C755.992 214.861 764.096 208.101 771.786 200.886C751.917 205.66 741.607 208.009 720.362 212.508C719.881 212.59 719.39 212.59 718.91 212.508L676.119 207.509C670.914 210.934 668.162 212.683 662.456 216.158L679.798 218.507C680.974 218.657 680.774 219.532 679.322 220.432C677.901 221.354 676.237 221.833 674.543 221.807L657.151 219.307C651.946 222.431 649.244 223.981 643.638 227.155L686.354 233.754C711.553 228.905 723.815 226.381 747.512 221.132Z" fill="#EBE9F0"/>
<path d="M585.758 312.639C611.458 300.841 623.294 295.142 645.09 283.794C614.411 289.118 598.771 291.643 566.94 296.292C566.321 296.421 565.682 296.421 565.064 296.292L523.424 284.219C512.188 288.868 506.358 291.218 494.371 295.942L510.587 301.266C511.688 301.641 510.111 302.941 506.983 304.19C504.594 305.323 501.969 305.871 499.326 305.79L483.261 300.266C472.4 304.465 466.82 306.59 455.359 310.839L493.846 325.661C531.106 320.912 549.549 318.288 585.758 312.639Z" fill="#EBE9F0"/>
<path d="M811.473 124.701C810.941 120.737 809.81 116.878 808.12 113.253C799.337 116.802 794.657 118.577 784.698 122.076C784.417 122.178 784.121 122.229 783.822 122.226H748.964C748.914 123.951 748.755 125.67 748.488 127.375H762.952C763.903 127.375 764.654 127.825 764.604 128.375C764.554 128.925 763.678 129.325 762.702 129.325H748.138C747.858 130.898 747.473 132.451 746.987 133.974L782.921 134.524C795.008 130.599 800.738 128.65 811.473 124.701Z" fill="#EBE9F0"/>
<path d="M811.448 139.848C812.228 135.625 812.338 131.307 811.774 127.05C801.314 130.849 795.733 132.724 784.022 136.423C783.707 136.524 783.377 136.574 783.046 136.573L746.336 135.923C745.69 137.878 744.921 139.79 744.034 141.647L759.224 142.022C760.225 142.022 760.875 142.547 760.625 143.122C760.367 143.49 760.015 143.781 759.605 143.966C759.196 144.15 758.744 144.222 758.298 144.172L743.008 143.747C741.982 145.796 741.407 146.821 740.13 148.921L777.866 150.196C792.005 146.121 798.736 144.047 811.448 139.848Z" fill="#EBE9F0"/>
<path d="M807.144 111.128C805.404 107.465 803.228 104.024 800.663 100.88C793.431 104.23 789.502 105.879 781.119 109.179C780.843 109.257 780.552 109.274 780.269 109.229L747.262 109.753C747.741 111.275 748.109 112.828 748.363 114.403L762.076 114.253C763.002 114.253 763.853 114.628 763.953 115.102C764.053 115.577 763.378 116.002 762.452 116.002H748.613C748.802 117.394 748.903 118.797 748.914 120.201H783.021C793.356 116.727 798.186 114.852 807.144 111.128Z" fill="#EBE9F0"/>
<path d="M775.714 197.136C781.668 191.579 787.174 185.562 792.18 179.14C775.114 183.664 766.23 185.889 747.813 190.238C747.373 190.309 746.926 190.309 746.486 190.238L704.822 186.713C701.018 189.813 698.991 191.362 694.812 194.512L711.828 196.212C712.979 196.212 713.055 197.061 711.979 197.886C710.812 198.742 709.396 199.19 707.95 199.161L690.858 197.411C686.98 200.211 684.953 201.61 680.724 204.46L722.714 209.209C744.685 204.585 755.245 202.16 775.714 197.136Z" fill="#EBE9F0"/>
<path d="M794.732 175.816C798.628 170.836 801.984 165.457 804.742 159.769C790.153 164.043 782.521 166.167 766.606 170.292C766.207 170.35 765.803 170.35 765.404 170.292L725.216 167.792C722.589 170.592 721.187 171.991 718.184 174.816L734.675 175.991C735.801 175.991 736.102 176.715 735.351 177.465C734.408 178.259 733.205 178.677 731.973 178.64L715.382 177.415C712.604 179.915 711.153 181.214 708.075 183.789L748.989 187.188C768.057 182.864 777.216 180.54 794.732 175.816Z" fill="#EBE9F0"/>
<path d="M806.218 156.719C808.447 152.192 810.046 147.382 810.973 142.422C798.461 146.446 792.03 148.446 778.442 152.42C778.083 152.517 777.713 152.568 777.341 152.57L738.829 151.145C737.228 153.645 736.327 154.895 734.375 157.469L750.24 158.194C751.316 158.194 751.791 158.819 751.316 159.469C750.955 159.851 750.515 160.15 750.027 160.344C749.538 160.538 749.013 160.623 748.488 160.594L732.523 159.819C730.696 162.068 729.72 163.218 727.643 165.543L767.031 167.767C783.372 163.468 791.254 161.268 806.218 156.719Z" fill="#EBE9F0"/>
<path d="M1055.53 101.555C1061.74 105.179 1064.74 107.054 1070.55 110.853C1080.55 113.353 1085.73 114.628 1095.97 117.252C1090.06 113.203 1086.99 111.203 1080.6 107.254C1070.55 104.954 1065.54 103.805 1055.53 101.555Z" fill="#EBE9F0"/>
<path d="M1005.11 76.735C1011.94 79.5594 1015.12 81.0091 1021.72 83.9835C1031.33 85.7832 1036.16 86.708 1045.87 88.6076C1039.27 85.4583 1035.86 83.9086 1028.88 80.9091C1019.35 79.2345 1014.57 78.4346 1005.11 76.735Z" fill="#EBE9F0"/>
<path d="M1142.24 307.79C1138.69 318.358 1134.41 328.664 1129.43 338.634C1138.08 349.756 1142.36 355.58 1150.75 367.678C1156.53 356.475 1161.55 344.892 1165.76 333.01C1156.43 322.512 1151.72 317.488 1142.24 307.79Z" fill="#EBE9F0"/>
<path d="M973.428 64.7873C984.588 68.6615 989.994 70.6861 1000.35 74.7853C1009.79 76.335 1014.52 77.1599 1024.03 78.8345C1013.42 74.3854 1007.91 72.2358 996.5 68.1366C987.241 66.7369 982.611 66.112 973.428 64.7873Z" fill="#EBE9F0"/>
<path d="M893.326 41.7418C900.833 43.5165 904.637 44.4413 911.969 46.3159C920.727 47.2407 925.132 47.7406 933.965 48.8154C926.458 46.8408 922.729 45.866 915.022 43.9914C906.314 43.1166 901.985 42.6916 893.326 41.7418Z" fill="#EBE9F0"/>
<path d="M950.731 57.3388C957.988 59.5883 961.541 60.7131 968.473 63.0876C977.632 64.3874 982.236 65.0373 991.47 66.437C984.388 63.9375 980.76 62.7127 973.378 60.3632C964.294 59.2384 959.765 58.5135 950.731 57.3388Z" fill="#EBE9F0"/>
<path d="M917.174 47.7656C928.91 50.865 934.691 52.4647 945.676 55.7891C954.66 56.9138 959.164 57.5137 968.198 58.7135C956.962 55.2142 951.156 53.5145 939.22 50.2651L917.174 47.7656Z" fill="#EBE9F0"/>
<path d="M1152.75 230.83C1153.59 238.08 1153.79 245.39 1153.35 252.675C1163.81 259.974 1169.04 263.773 1179.47 271.622C1180.18 263.597 1180.18 255.526 1179.47 247.501C1168.76 240.603 1163.41 237.253 1152.75 230.83Z" fill="#EBE9F0"/>
<path d="M1074.52 113.603C1082.08 118.653 1089.3 124.18 1096.14 130.149C1106.53 133.174 1111.76 134.749 1122.24 137.973C1115.26 131.558 1107.84 125.629 1100.05 120.226C1089.79 117.502 1084.68 116.177 1074.52 113.603Z" fill="#EBE9F0"/>
<path d="M1152.92 259.199C1151.98 272.977 1149.28 286.577 1144.87 299.666C1154.53 308.964 1159.33 313.813 1168.89 323.886C1174.07 309.358 1177.43 294.247 1178.9 278.895C1168.49 270.772 1163.28 266.848 1152.92 259.199Z" fill="#EBE9F0"/>
<path d="M858.168 34.2433C870.43 36.7428 876.41 37.9676 888.021 40.642C896.63 41.4419 900.959 41.8668 909.642 42.7416C897.881 39.9422 891.825 38.5924 879.413 35.9929L858.168 34.2433Z" fill="#EBE9F0"/>
<path d="M1134.48 175.041C1137.57 180.17 1140.26 185.526 1142.54 191.063C1153.32 196.062 1158.75 198.561 1169.64 203.935C1167.38 197.906 1164.66 192.057 1161.51 186.438C1150.62 181.714 1145.24 179.465 1134.48 175.041Z" fill="#EBE9F0"/>
<path d="M1099.8 133.374C1104.13 137.181 1108.27 141.211 1112.19 145.447C1122.75 148.946 1128.05 150.745 1138.71 154.445C1134.71 149.884 1130.48 145.537 1126.02 141.422C1115.59 138.098 1110.23 136.498 1099.8 133.374Z" fill="#EBE9F0"/>
<path d="M1115.59 149.046C1121.77 155.72 1127.27 162.997 1132 170.767C1142.76 175.066 1148.14 177.265 1159 181.839C1154.21 173.467 1148.58 165.596 1142.21 158.344C1131.4 154.495 1126.07 152.645 1115.59 149.046Z" fill="#EBE9F0"/>
<path d="M1026.33 86.2331C1036.71 91.2321 1041.69 93.7316 1051.13 99.0806C1061.14 101.255 1066.02 102.38 1076.03 104.679C1066.37 99.0056 1061.26 96.2561 1050.6 91.0072C1040.84 89.0325 1035.99 88.0827 1026.33 86.2331Z" fill="#EBE9F0"/>
<path d="M790.078 671.018C672.916 695.539 611.733 706.387 485.988 724.833C448.102 745.404 428.258 755.927 386.769 777.323C442.972 768.724 470.824 764.125 525.801 754.327C527.828 753.952 529.079 754.102 529.58 754.677C530.706 755.927 528.279 759.176 522.573 763.475C514.165 769.799 501.828 775.973 495.197 777.098C432.888 788.046 401.332 793.12 337.547 802.518C287.499 827.863 261.399 840.86 206.422 867.505C359.868 850.083 435.59 839.085 582.931 812.441C677.095 752.103 718.26 723.833 790.078 671.018Z" fill="#EBE9F0"/>
<path d="M899.632 652.047C906.889 623.328 909.892 609.78 914.772 584.135C882.566 611.48 864.899 625.702 826.237 655.322C815.077 686.115 808.721 702.462 794.082 737.256C840.326 701.613 861.346 684.641 899.632 652.047Z" fill="#EBE9F0"/>
<path d="M537.337 841.31C383.891 868.155 305.191 879.203 146.615 896.299L123.242 907.347C134.778 964.961 141.059 996.255 154.747 1064.54C330.665 967.86 406.537 923.269 537.337 841.31Z" fill="#EBE9F0"/>
<path d="M648.718 5.54891L641.561 4.99902L639.059 5.42394L648.718 5.54891Z" fill="#EBE9F0"/>
<path d="M758.798 764.1C775.99 727.307 783.547 710.011 796.884 677.517C724.916 731.132 683.677 759.826 589.186 821.164C559.308 865.605 542.692 889.451 505.607 940.666C621.367 864.656 671.615 829.387 758.798 764.1Z" fill="#EBE9F0"/>
<path d="M156.749 851.583C158.926 861.581 160.003 866.58 162.23 876.978C1472.93 246.102 1058.03 33.0435 646.591 0L643.538 0.549893C1051.73 33.5434 1453.08 244.202 156.749 851.583Z" fill="#EBE9F0"/>
<path d="M623.319 8.1734L620.116 8.72329L628.024 9.32317L623.319 8.1734Z" fill="#EBE9F0"/>
<path d="M636.381 5.89884C645.015 6.54872 649.294 6.87365 657.677 7.57351C665.734 7.57351 669.788 7.74848 677.846 7.89845C668.938 7.1236 664.383 6.74868 655.325 6.02382L636.982 5.82386L636.381 5.89884Z" fill="#EBE9F0"/>
<path d="M731.973 14.7971C745.36 16.3468 751.992 17.1466 764.629 18.8463C772.786 19.1962 776.89 19.3962 785.073 19.7961C772.261 18.0215 765.68 17.2966 752.242 15.547L731.973 14.7971Z" fill="#EBE9F0"/>
<path d="M796.509 23.3954C809.296 25.345 815.527 26.3698 827.689 28.3944L848.609 29.8441C836.347 27.6196 830.041 26.5448 817.154 24.4952C808.896 24.0953 804.767 23.8453 796.509 23.3954Z" fill="#EBE9F0"/>
<path d="M675.944 13.6223C669.528 11.3267 662.996 9.36614 656.376 7.74848L635.255 6.0988H634.605C643.513 8.1734 647.492 9.24819 654.624 11.4478C663.282 12.3726 667.661 12.7725 675.944 13.6223Z" fill="#EBE9F0"/>
<path d="M704.571 11.7477C713.28 12.6225 717.559 13.0724 725.992 14.0223L746.261 14.7221C737.778 13.7223 733.499 13.2474 724.766 12.2226C716.683 12.1726 712.704 12.0476 704.571 11.7477Z" fill="#EBE9F0"/>
<path d="M833.244 29.4942C841.152 30.8939 845.055 31.6438 852.738 33.1435C861.171 33.7934 865.425 34.1183 873.908 34.8432C866.151 33.2685 862.222 32.4936 854.214 30.9939L833.244 29.4942Z" fill="#EBE9F0"/>
<path d="M664.008 8.07342C678.121 9.27318 685.003 9.89806 698.466 11.2228L718.66 11.7727C705.197 10.373 698.291 9.6981 684.177 8.44834L664.008 8.07342Z" fill="#EBE9F0"/>
<path d="M1144.49 195.862C1148.28 205.218 1150.8 215.035 1152 225.056C1162.68 231.28 1168.06 234.479 1178.8 241.153C1177.82 230.232 1175.38 219.49 1171.57 209.209C1160.63 203.66 1155.28 201.011 1144.49 195.862Z" fill="#EBE9F0"/>
<path d="M914.847 47.8656C915.936 51.3154 915.83 55.0311 914.547 58.4135C918.676 59.7633 920.702 60.4382 924.706 61.8129C925.109 60.338 925.319 58.8174 925.332 57.2888C925.332 57.2888 925.332 57.2888 925.632 57.1638C926.341 57.1739 927.047 57.2661 927.734 57.4387C929.06 57.7387 930.111 58.1636 930.111 58.3636C930.042 60.0653 929.73 61.7486 929.186 63.3626C933.54 64.8873 935.667 65.6871 939.871 67.2618C942.14 63.9052 943.336 59.9393 943.299 55.889C932.263 52.5647 926.583 50.965 914.847 47.8656Z" fill="#EBE9F0"/>
<path d="M948.204 57.4137C948.017 61.5613 946.625 65.5649 944.2 68.9365C950.581 71.436 953.684 72.7107 959.74 75.3102C962.808 71.8593 964.951 67.689 965.971 63.1876C959.014 60.8131 955.436 59.6633 948.204 57.4137Z" fill="#EBE9F0"/>
<path d="M1052.13 101.505C1045.77 107.616 1038.74 112.975 1031.16 117.477C1035.91 121.476 1038.16 123.526 1042.37 127.7C1051.14 122.938 1059.4 117.284 1067.02 110.828C1061.29 107.004 1058.31 105.154 1052.13 101.505Z" fill="#EBE9F0"/>
<path d="M856.116 34.2433C858.668 36.7303 860.472 39.8823 861.321 43.3415C865.725 44.4163 867.902 44.9662 872.206 46.066C871.795 44.6998 871.215 43.39 870.48 42.1667C870.48 42.1667 870.48 42.1667 870.68 42.1667C871.361 42.1447 872.043 42.2119 872.707 42.3667C873.582 42.4529 874.431 42.7075 875.209 43.1165C875.973 44.464 876.546 45.9109 876.911 47.4157C881.565 48.6405 883.867 49.2653 888.397 50.5401C888.651 47.0971 887.772 43.6655 885.894 40.767C874.333 38.0925 868.353 36.7428 856.116 34.2433Z" fill="#EBE9F0"/>
<path d="M1023.25 86.2331C1019 91.7733 1013.94 96.6434 1008.24 100.68C1011.54 102.805 1013.24 103.88 1016.27 106.079C1018.75 104.135 1021.11 102.048 1023.35 99.8304C1023.5 99.714 1023.69 99.6601 1023.88 99.6805C1024.66 99.7067 1025.44 99.885 1026.15 100.205C1027.4 100.705 1028.15 101.355 1027.85 101.63C1025.3 104.105 1022.6 106.425 1019.77 108.579C1023.15 111.078 1024.78 112.278 1027.93 114.802C1035.21 110.385 1041.93 105.106 1047.95 99.0806C1038.56 93.7566 1033.61 91.1821 1023.25 86.2331Z" fill="#EBE9F0"/>
<path d="M970.75 64.8373C969.511 69.4368 967.156 73.6605 963.894 77.1349C967.672 78.8096 969.524 79.6344 973.152 81.384C974.475 79.7247 975.647 77.9515 976.656 76.0851C976.656 76.0851 976.831 76.0851 977.056 76.0851C977.797 76.0947 978.532 76.2212 979.233 76.46C980.535 76.8349 981.46 77.3598 981.31 77.6098C980.149 79.692 978.792 81.6589 977.256 83.4836C981.185 85.4333 983.112 86.4081 986.891 88.4827C991.282 84.7614 994.925 80.2404 997.626 75.1603C987.266 70.7611 981.911 68.7365 970.75 64.8373Z" fill="#EBE9F0"/>
<path d="M1124.72 348.007C1113.19 370.127 1105.9 381.8 1087.94 406.32C1094.12 420.917 1097.07 428.566 1102.65 444.563C1123.4 416.568 1131.83 403.321 1145.19 378.251C1137.21 365.653 1133.1 359.604 1124.72 348.007Z" fill="#EBE9F0"/>
<path d="M891.099 41.9668C892.901 44.9695 893.625 48.496 893.151 51.9648C900.058 53.9644 903.411 54.9892 909.992 56.9638C911.116 53.5767 911.046 49.9073 909.792 46.5659C902.435 44.6662 898.707 43.7414 891.099 41.9668Z" fill="#EBE9F0"/>
<path d="M702.995 11.9976C708.639 13.7603 714.15 15.9237 719.486 18.4714C727.669 19.4712 731.672 19.9961 739.505 20.9709C734.7 18.2943 729.677 16.0284 724.491 14.1972C716.032 13.3474 711.728 12.8975 702.995 11.9976Z" fill="#EBE9F0"/>
<path d="M831.267 29.6192C834.311 31.8914 836.801 34.8224 838.549 38.1925C845.856 39.7922 849.435 40.692 856.466 42.2667C855.424 38.8218 853.47 35.7217 850.811 33.2935C843.129 31.7438 839.225 31.0439 831.267 29.6192Z" fill="#EBE9F0"/>
<path d="M648.718 11.0478C642.637 9.24819 639.384 8.37336 632.127 6.74868L625.721 7.87346C629.25 8.6733 630.951 9.09822 634.204 9.92306L648.718 11.0478Z" fill="#EBE9F0"/>
<path d="M662.657 8.24838C669.104 9.91577 675.461 11.9181 681.7 14.2472C686.905 14.7721 689.482 15.0471 694.587 15.6219C691.759 14.5971 690.283 14.0972 687.08 13.1224C687.08 13.1224 688.031 13.1224 689.007 13.1224C690.097 13.1994 691.183 13.3329 692.26 13.5223C695.663 14.6471 697.265 15.197 700.267 16.3218L713.905 17.9215C708.429 15.4095 702.785 13.2798 697.014 11.5477C683.576 10.073 676.67 9.44815 662.657 8.24838Z" fill="#EBE9F0"/>
<path d="M794.682 23.5454C798.411 25.63 801.789 28.2869 804.692 31.4188C809.346 32.2937 811.649 32.7186 816.203 33.6184C815.065 32.4101 813.844 31.2826 812.549 30.2441C813.211 30.2407 813.872 30.2908 814.526 30.394C815.482 30.4774 816.423 30.6789 817.329 30.9939C818.751 32.1202 820.074 33.3662 821.283 34.7182L833.444 37.2177C831.519 33.8846 828.899 31.0035 825.762 28.7694C813.701 26.5198 807.47 25.495 794.682 23.5454Z" fill="#EBE9F0"/>
<path d="M730.221 14.9721C735.334 16.788 740.275 19.0548 744.985 21.7457L757.147 23.4704C755.07 22.2956 753.944 21.7207 751.516 20.571C752.158 20.5228 752.802 20.5228 753.443 20.571C754.468 20.6264 755.483 20.794 756.471 21.0709C758.973 22.3456 760.275 22.9955 762.477 24.2952C767.707 25.0701 770.259 25.47 775.364 26.2948C771.54 23.3651 767.382 20.8983 762.977 18.9463C750.24 17.3216 743.734 16.5218 730.221 14.9721Z" fill="#EBE9F0"/>
<path d="M768.683 19.7961C772.978 21.7817 777.005 24.3012 780.669 27.2946C788.401 28.5694 792.205 29.2193 799.662 30.569C796.566 27.463 793.023 24.8347 789.152 22.7705C781.094 21.4958 776.99 20.9209 768.683 19.7961Z" fill="#EBE9F0"/>
<path d="M1002.23 76.8599C999.272 82.0239 995.387 86.5994 990.769 90.3573C996.5 93.4817 999.252 95.1064 1004.56 98.3807C1010.02 94.4099 1014.83 89.6016 1018.8 84.1335C1012.34 81.1591 1009.04 79.7094 1002.23 76.8599Z" fill="#EBE9F0"/>
<path d="M1072.02 415.569C1008.94 433.565 975.054 442.088 903.261 458.06C880.414 476.657 867.977 486.255 840.851 506.101C922.354 489.354 960.966 480.256 1033.54 460.86C1050.53 442.088 1058.31 433.04 1072.02 415.569Z" fill="#EBE9F0"/>
<path d="M1118.09 346.257C1068.92 361.954 1042.22 369.503 985.164 383.75C976.305 392.873 971.601 397.522 961.591 406.97C986.615 400.496 998.752 397.172 1022.4 390.423C1023.09 390.19 1023.84 390.147 1024.55 390.298C1025.78 390.598 1026.23 391.773 1025.53 393.473C1024.8 394.894 1023.81 396.159 1022.59 397.193C1021.37 398.226 1019.97 399.01 1018.45 399.497C991.82 406.995 978.082 410.744 949.755 417.943C937.794 428.866 931.413 434.44 917.9 445.813C987.241 430.141 1019.95 421.767 1080.7 404.121C1098.95 379.826 1106.35 368.253 1118.09 346.257Z" fill="#EBE9F0"/>
<path d="M1020.85 474.282C945.626 494.078 905.513 503.301 821.133 520.273C802.34 533.645 792.455 540.469 771.685 554.416C809.071 546.618 827.389 542.594 863.248 534.245C864.184 533.948 865.189 533.948 866.125 534.245C867.477 534.845 867.101 536.745 864.774 539.369C860.96 543.489 856.127 546.532 850.761 548.193C810.272 557.516 789.527 562.015 747.187 570.688C722.363 586.91 709.276 595.208 681.725 612.18C784.798 594.159 834.37 584.036 928.034 561.89C970.95 524.772 989.368 507.276 1020.85 474.282Z" fill="#EBE9F0"/>
<path d="M1136.01 306.44C1094.54 320.712 1071.87 327.636 1023.13 340.908C1012.92 353.781 1007.21 360.429 994.473 374.077C1049.53 359.979 1075.37 352.581 1122.8 337.209C1127.93 327.282 1132.35 316.999 1136.01 306.44Z" fill="#EBE9F0"/>
<path d="M907.465 579.286C809.997 601.782 758.598 612.13 651.871 630.301C605.102 658.396 580.078 672.943 525.701 703.062C647.092 684.616 705.873 673.893 818.48 649.773C857.392 620.453 875.134 606.381 907.465 579.286Z" fill="#EBE9F0"/>
<path d="M1079.1 418.093C1065.59 435.59 1057.98 444.763 1041.02 463.584C1044.35 481.431 1045.77 490.829 1048.07 510.525C1067.82 488.754 1076.65 478.281 1092.37 458.035C1087.41 441.339 1084.73 433.34 1079.1 418.093Z" fill="#EBE9F0"/>
<path d="M1033.01 526.647C1031.63 505.976 1030.63 496.153 1028 477.456C996.75 510.775 978.432 528.446 935.717 565.864C932.263 590.234 930.036 603.107 924.481 630.351C974.929 586.335 996.425 565.614 1033.01 526.647Z" fill="#EBE9F0"/>
<path d="M1139.64 195.337C1120 204.732 1099.88 213.076 1079.35 220.332C1079.11 224.362 1078.64 228.376 1077.95 232.354C1089.39 228.005 1094.89 225.831 1105.48 221.432C1105.86 221.263 1106.29 221.194 1106.7 221.232C1107.17 221.272 1107.61 221.423 1108 221.67C1108.4 221.918 1108.72 222.256 1108.96 222.656C1109.13 222.924 1109.23 223.225 1109.27 223.539C1109.31 223.853 1109.28 224.171 1109.19 224.472C1109.09 224.773 1108.92 225.048 1108.71 225.279C1108.49 225.509 1108.23 225.689 1107.93 225.806C1096.12 230.805 1089.91 233.129 1076.98 237.953C1076.05 242.734 1074.85 247.458 1073.37 252.101C1105.65 241.328 1120.42 235.804 1146.89 224.606C1145.8 214.568 1143.36 204.724 1139.64 195.337Z" fill="#EBE9F0"/>
<path d="M1111.33 148.796C1098.48 156.564 1085.1 163.429 1071.3 169.342C1072.57 172.287 1073.68 175.299 1074.62 178.365C1082.33 174.791 1085.98 172.991 1092.94 169.392C1093.22 169.265 1093.53 169.205 1093.84 169.217C1094.77 169.255 1095.65 169.608 1096.34 170.217C1097.35 171.091 1097.5 172.166 1096.65 172.716C1088.86 176.715 1084.71 178.715 1076 182.714C1076.98 186.182 1077.76 189.704 1078.33 193.262C1095.21 186.745 1111.69 179.233 1127.67 170.767C1123 162.902 1117.52 155.539 1111.33 148.796Z" fill="#EBE9F0"/>
<path d="M1095.92 133.199C1085.23 140.428 1073.99 146.797 1062.29 152.245C1065.04 156.479 1067.47 160.916 1069.54 165.518C1082.85 159.687 1095.73 152.93 1108.08 145.297C1104.24 141.056 1100.18 137.018 1095.92 133.199Z" fill="#EBE9F0"/>
<path d="M1147.24 258.324C1114.71 270.822 1096.8 276.946 1057.83 288.818C1054.4 295.267 1052.5 298.566 1048.37 305.24C1065.27 299.941 1073.4 297.267 1089.16 291.818C1089.68 291.628 1090.24 291.568 1090.79 291.643C1091.31 291.708 1091.78 291.956 1092.13 292.341C1092.48 292.726 1092.68 293.223 1092.69 293.742C1092.65 294.697 1092.32 295.617 1091.74 296.38C1091.17 297.143 1090.37 297.714 1089.46 298.017C1071.75 304.065 1062.54 307.065 1043.44 313.014C1038.44 320.662 1035.64 324.561 1029.66 332.535C1076.8 319.462 1098.67 312.664 1138.69 298.666C1143.25 285.638 1146.12 272.081 1147.24 258.324Z" fill="#EBE9F0"/>
<path d="M1129.93 174.641C1113.34 183.295 1096.26 190.965 1078.78 197.611C1079.61 203.404 1079.88 209.263 1079.6 215.108C1099.43 207.997 1118.86 199.829 1137.81 190.638C1135.6 185.112 1132.96 179.764 1129.93 174.641Z" fill="#EBE9F0"/>
<path d="M1070.97 113.528C1062.98 120.051 1054.37 125.785 1045.27 130.649C1047.77 133.374 1049.1 134.749 1051.48 137.573C1056.48 134.599 1058.98 133.099 1063.31 130.075C1063.52 129.941 1063.77 129.879 1064.01 129.9C1064.84 129.953 1065.63 130.201 1066.34 130.624C1067.52 131.274 1068.02 132.099 1067.49 132.449C1062.49 135.773 1059.84 137.448 1054.1 140.722C1056.61 143.897 1057.81 145.496 1060.04 148.771C1071.31 143.407 1082.13 137.137 1092.39 130.025C1085.63 124.046 1078.48 118.534 1070.97 113.528Z" fill="#EBE9F0"/>
<path d="M1147.42 230.08C1119.89 241.528 1104.7 247.152 1071.32 258.124C1068.57 266.274 1065.23 274.211 1061.31 281.87C1099 270.222 1116.36 264.198 1147.69 251.876C1148.25 244.617 1148.16 237.322 1147.42 230.08Z" fill="#EBE9F0"/>
<path d="M770.434 19.6212C778.717 20.7459 782.796 21.3458 790.829 22.5456L811.423 23.6704C803.341 22.4206 799.237 21.8207 790.904 20.621L770.434 19.6212Z" fill="#EBE9F0"/>
<path d="M915.923 90.0074C913.27 92.0819 911.844 93.1067 908.741 95.1813C913.847 98.8038 918.658 102.824 923.13 107.204C926.983 104.979 928.81 103.855 932.213 101.63C927.048 97.3981 921.606 93.5153 915.923 90.0074Z" fill="#EBE9F0"/>
<path d="M677.07 22.5206C679.172 23.5454 680.173 24.0953 682.075 25.0201C693.536 26.5948 699.091 27.5196 709.902 29.1443C708.626 28.1411 707.298 27.2066 705.923 26.3448C694.662 24.8201 688.907 24.0203 677.07 22.5206Z" fill="#EBE9F0"/>
<path d="M934.916 103.88C931.363 106.129 929.486 107.254 925.457 109.529C928.189 112.213 930.739 115.078 933.089 118.102C937.644 115.727 939.821 114.553 943.9 112.178C941.054 109.255 938.055 106.485 934.916 103.88Z" fill="#EBE9F0"/>
<path d="M965.77 145.596C959.464 148.396 956.161 149.771 949.305 152.57C950.615 158.822 950.944 165.239 950.281 171.591C958.463 168.592 962.392 167.092 969.974 164.093C969.509 157.752 968.091 151.517 965.77 145.596Z" fill="#EBE9F0"/>
<path d="M877.987 70.2362C876.776 71.8269 875.455 73.3304 874.033 74.7354C881.79 78.4596 885.469 80.4092 892.3 84.4085C894.242 82.8973 896.105 81.2871 897.881 79.5844C890.374 75.7102 886.345 73.8355 877.987 70.2362Z" fill="#EBE9F0"/>
<path d="M959.339 132.024C953.959 134.649 951.131 135.948 945.201 138.573C946.688 142.054 947.836 145.67 948.629 149.371C955.285 146.621 958.463 145.247 964.569 142.497C963.13 138.863 961.38 135.359 959.339 132.024Z" fill="#EBE9F0"/>
<path d="M946.252 114.628C941.998 117.127 939.746 118.227 935.016 120.626C938.613 125.231 941.614 130.27 943.95 135.623C949.68 133.124 952.408 131.749 957.613 129.15C954.359 123.915 950.55 119.046 946.252 114.628Z" fill="#EBE9F0"/>
<path d="M834.32 54.2394C834.046 55.595 833.609 56.9125 833.019 58.1636C841.902 61.188 846.131 62.7627 854.214 66.0121C855.168 64.6868 856.005 63.2819 856.716 61.8129C848.183 58.6885 843.679 57.1888 834.32 54.2394Z" fill="#EBE9F0"/>
<path d="M860.695 63.2876C859.895 64.7875 858.956 66.21 857.893 67.5368C863.148 69.7113 865.675 70.8111 870.58 73.0857C871.915 71.7053 873.145 70.2264 874.258 68.6615C869.003 66.462 866.301 65.3872 860.695 63.2876Z" fill="#EBE9F0"/>
<path d="M765.004 36.7428C765.725 37.7589 766.338 38.848 766.831 39.9922C773.287 41.4169 776.44 42.1417 782.596 43.6414C782.36 42.4717 781.973 41.3375 781.445 40.2671C775.014 38.8674 771.71 38.1675 765.004 36.7428Z" fill="#EBE9F0"/>
<path d="M710.903 27.2447C712.229 28.1052 713.499 29.0485 714.706 30.0691C721.688 31.2189 725.091 31.8188 731.797 33.0185C730.818 31.9617 729.764 30.9761 728.644 30.0691C721.688 28.8943 718.134 28.3444 710.903 27.2447Z" fill="#EBE9F0"/>
<path d="M733.549 30.8939C734.63 31.8107 735.634 32.8138 736.552 33.8934C747.187 35.868 752.342 36.8928 762.302 39.0423C761.744 37.9111 761.073 36.8392 760.3 35.843C749.94 33.7934 744.585 32.7936 733.549 30.8939Z" fill="#EBE9F0"/>
<path d="M970.25 167.642C962.417 170.717 958.363 172.241 949.93 175.266C949.427 179.923 948.497 184.525 947.153 189.013C956.562 185.814 961.091 184.214 969.874 180.99C970.42 176.562 970.546 172.093 970.25 167.642Z" fill="#EBE9F0"/>
<path d="M785.999 41.3419C786.474 42.4356 786.802 43.5869 786.975 44.7662C796.784 47.2657 801.489 48.4905 810.573 51.14C810.747 49.9214 810.747 48.6842 810.573 47.4657C801.189 44.9162 796.234 43.6914 785.999 41.3419Z" fill="#EBE9F0"/>
<path d="M815.052 48.6405C815.097 49.8835 814.979 51.1271 814.701 52.3397C820.607 54.1144 823.46 55.0142 829.065 56.8639C829.585 55.6226 829.946 54.321 830.141 52.9896C824.261 51.215 821.233 50.3401 815.052 48.6405Z" fill="#EBE9F0"/>
<path d="M901.159 81.384C899.325 83.1064 897.404 84.7332 895.403 86.2581C899.833 88.9576 901.935 90.3323 905.938 93.1567C908.891 91.1071 910.242 90.0823 912.795 88.0327C908.341 85.3083 906.013 83.9835 901.159 81.384Z" fill="#EBE9F0"/>
<path d="M548.273 511.425C513.64 516.849 496.148 519.398 460.889 524.272C394.626 553.542 358.291 568.739 279.241 600.032C320.08 595.483 340.424 593.009 380.938 587.71C454.258 556.066 487.64 540.794 548.273 511.425Z" fill="#EBE9F0"/>
<path d="M125.495 805.792C235.825 714.485 279.917 675.168 351.085 607.006C255.068 647.973 201.867 669.494 84.4305 713.81C91.9376 751.453 96.0165 771.574 104.675 814.69L125.495 805.792Z" fill="#EBE9F0"/>
<path d="M591.889 15.322L588.236 14.2472L585.358 14.7471L591.889 15.322Z" fill="#EBE9F0"/>
<path d="M616.312 11.3478L608.605 10.7479L605.377 11.2978L616.312 11.3478Z" fill="#EBE9F0"/>
<path d="M541.992 851.358C410.666 934.667 334.419 980.008 157.55 1078.46C162.93 1105.33 165.733 1119.23 171.488 1148C292.779 1076.19 347.731 1042.32 447.226 978.483C489.216 923.894 508.059 898.549 541.992 851.358Z" fill="#EBE9F0"/>
<path d="M969.349 184.939C960.29 188.238 955.611 189.938 945.927 193.087C943.253 201.624 939.556 209.807 934.916 217.457C946.377 213.983 951.932 212.208 962.692 208.684C965.972 201.105 968.211 193.117 969.349 184.939Z" fill="#EBE9F0"/>
<path d="M297.659 729.482C337.121 692.964 354.863 675.842 387.394 643.724C390.722 640.399 400.306 635.35 408.79 632.401C414.545 630.401 418.349 629.901 419.174 630.801C419.55 631.201 419.174 631.926 418.299 632.951C390.772 661.495 375.758 676.617 342.677 708.686C380.838 690.815 399.155 682.066 434.314 664.845C494.371 596.533 517.919 566.689 554.754 514.324C493.645 544.318 459.963 559.79 385.918 592.009C320.856 657.521 280.442 695.214 179.171 782.572C228.568 760.901 252.265 750.278 297.659 729.482Z" fill="#EBE9F0"/>
<path d="M345.554 602.807C303.89 608.081 282.995 610.505 241.105 614.979C179.221 638.975 146.415 651.247 76.9233 676.292C79.4257 688.315 80.5518 694.464 83.0792 707.011C198.514 663.745 250.864 642.849 345.554 602.807Z" fill="#EBE9F0"/>
<path d="M948.529 235.704C935.767 239.553 929.186 241.428 915.698 245.177C906.679 256.471 896.807 267.058 886.17 276.846C902.085 272.846 909.842 270.797 924.957 266.648C933.733 257.065 941.622 246.708 948.529 235.704Z" fill="#EBE9F0"/>
<path d="M919.526 272.697C903.936 276.896 895.954 278.97 879.488 283.045C869.604 292.093 864.199 296.742 852.412 306.24C870.58 301.991 879.463 299.841 896.83 295.442C906.864 286.119 911.369 281.695 919.526 272.697Z" fill="#EBE9F0"/>
<path d="M654.374 457.435C624.02 462.759 608.655 465.334 577.575 470.233C544.194 486.48 526.452 494.803 488.816 511.8C523.099 506.926 540.115 504.301 573.772 498.927C608.105 481.931 624.195 473.632 654.374 457.435Z" fill="#EBE9F0"/>
<path d="M960.741 213.283C949.63 216.882 943.9 218.657 932.113 222.181C928.401 228.339 924.305 234.257 919.852 239.903C932.964 236.204 939.345 234.354 951.732 230.555C955.137 225.016 958.148 219.245 960.741 213.283Z" fill="#EBE9F0"/>
<path d="M769.108 390.948C744.084 395.947 731.397 398.447 705.597 403.246C667.661 424.817 646.466 436.04 599.947 459.16C630.176 454.161 644.99 451.661 674.568 446.412C716.483 423.442 735.226 412.319 769.108 390.948Z" fill="#EBE9F0"/>
<path d="M827.814 351.381C806.018 356.205 794.908 358.555 772.261 363.154C753.393 375.201 743.283 381.375 721.588 393.998C746.612 389.274 759.124 386.849 783.272 381.825C802.515 369.353 811.423 363.254 827.814 351.381Z" fill="#EBE9F0"/>
<path d="M889.498 302.216C871.606 306.69 862.447 308.864 843.729 313.164C823.034 329.285 811.198 337.634 784.998 354.955C806.969 350.406 817.779 348.082 838.925 343.308C856.538 330.565 873.422 316.846 889.498 302.216Z" fill="#EBE9F0"/>
<path d="M590.338 584.735C626.922 528.396 640.611 503.576 660.93 459.76C630.526 476.282 614.26 484.755 579.602 502.077C546.746 552.467 525.626 581.136 471.224 646.648C522.148 621.103 545.945 608.731 590.338 584.735Z" fill="#EBE9F0"/>
<path d="M1021.32 147.871C1019.62 144.747 1018.7 143.197 1016.69 140.148C1006.08 136.698 1000.8 135.149 990.269 131.799C989.143 131.449 988.267 130.674 988.292 130.075C988.317 129.475 988.742 129.45 989.393 129.45C989.724 129.454 990.052 129.505 990.369 129.6C1000.03 132.474 1004.86 133.974 1014.57 137.098C1012.64 134.399 1011.64 133.049 1009.56 130.424C985.414 123.551 973.378 120.426 949.505 114.553C953.914 119.012 957.832 123.931 961.191 129.225C985.064 136.048 997.125 139.773 1021.32 147.871Z" fill="#EBE9F0"/>
<path d="M933.565 76.56C928.009 74.0605 925.132 72.7607 919.226 70.3112C896.504 67.1368 885.244 65.6871 862.947 63.0626C868.628 65.1622 871.38 66.262 876.711 68.4616C899.232 71.411 910.618 73.0357 933.565 76.56Z" fill="#EBE9F0"/>
<path d="M915.197 68.6865C911.319 67.1368 909.317 66.362 905.188 64.8373C895.178 63.5126 890.323 62.8877 880.489 61.6629C879.476 61.5269 878.49 61.2404 877.561 60.8131C877.161 60.5881 877.236 60.4382 877.561 60.4132C877.82 60.3931 878.079 60.3931 878.337 60.4132C887.321 61.5129 891.825 62.0628 900.859 63.2626C897.13 61.8879 895.228 61.238 891.35 59.9133C869.078 57.4137 858.018 56.139 836.147 53.9894C845.631 56.9138 850.16 58.4385 858.869 61.4879C881.315 64.2374 892.576 65.6121 915.197 68.6865Z" fill="#EBE9F0"/>
<path d="M974.229 99.0806C969.499 95.8812 967.022 94.3315 961.867 91.2571C938.419 86.883 926.833 84.8834 903.786 81.2591C908.791 83.7586 911.093 85.2333 915.598 87.9827C938.82 92.007 950.581 94.2315 974.229 99.0806Z" fill="#EBE9F0"/>
<path d="M1007.06 127.525C1004.08 124.015 1000.91 120.677 997.551 117.527C973.528 111.503 961.566 108.704 937.969 103.605C941.191 106.223 944.258 109.028 947.153 112.003C970.925 117.752 982.962 120.851 1007.06 127.525Z" fill="#EBE9F0"/>
<path d="M994.748 115.052C992.02 112.553 990.619 111.378 987.666 109.004C977.181 106.504 971.951 105.279 961.541 102.93C960.574 102.805 959.685 102.335 959.039 101.605C958.889 101.255 959.039 101.055 959.715 101.055C960.022 101.023 960.333 101.023 960.641 101.055C970.15 103.155 974.929 104.23 984.513 106.479C981.761 104.355 980.334 103.305 977.406 101.23C953.684 96.2311 941.898 93.9316 918.651 89.7074C924.495 93.2737 930.096 97.2233 935.417 101.53C958.839 106.479 970.775 109.229 994.748 115.052Z" fill="#EBE9F0"/>
<path d="M887.321 58.5385C881.14 56.4889 877.987 55.4891 871.481 53.5395C849.51 51.2899 838.574 50.2651 816.979 48.5405C823.235 50.2402 826.288 51.04 832.268 52.9146C854.089 54.8642 865.125 56.014 887.321 58.5385Z" fill="#EBE9F0"/>
<path d="M652.647 19.5962C655.149 20.596 656.2 21.0959 658.327 22.0957C665.835 22.9955 669.538 23.4704 676.795 24.4452C674.918 23.3954 673.917 22.8705 671.79 21.9457C664.283 20.9209 660.479 20.471 652.647 19.5962Z" fill="#EBE9F0"/>
<path d="M673.167 21.7457C693.586 22.1707 703.896 22.4706 724.565 23.1455C716.933 22.0957 713.055 21.5708 705.147 20.646C684.552 20.0961 674.268 19.8711 653.898 19.5712C661.731 20.246 665.584 20.6959 673.167 21.7457Z" fill="#EBE9F0"/>
<path d="M867.076 52.2148C862.822 50.965 860.645 50.3401 856.241 49.1404C846.632 48.1906 841.827 47.7406 832.268 46.8658C831.212 46.7595 830.171 46.533 829.165 46.1909C828.715 46.016 828.69 45.891 829.165 45.841H829.916C838.649 46.6159 843.029 47.0158 851.787 47.8656C847.733 46.7658 845.656 46.2409 841.477 45.1661C819.881 43.3415 809.146 42.6666 787.901 41.0919C798.211 43.4415 803.216 44.6662 812.925 47.2407C834.27 49.0404 845.155 50.0152 867.076 52.2148Z" fill="#EBE9F0"/>
<path d="M759.174 28.2945L746.662 26.2948L723.715 25.32C722.572 25.2666 721.435 25.133 720.312 24.9201C719.711 24.9201 719.536 24.6952 719.811 24.6452H720.487L741.457 25.495L729.695 23.7703C709.001 23.0455 698.691 22.7455 678.246 22.2706C690.183 23.7953 695.963 24.5952 707.249 26.2449C727.944 26.9197 738.329 27.3446 759.174 28.2945Z" fill="#EBE9F0"/>
<path d="M591.314 13.7473H590.763C593.641 14.5222 594.992 14.9221 597.62 15.6969C605.727 16.4218 609.706 16.7717 617.639 17.5466C615.011 16.6217 613.635 16.1718 610.707 15.272C603 14.6971 599.146 14.3722 591.314 13.7473Z" fill="#EBE9F0"/>
<path d="M782.446 32.3937C775.289 31.0439 771.66 30.394 764.228 29.1443C743.333 28.1445 732.924 27.7196 712.304 26.9947C719.611 28.0945 723.189 28.6694 730.221 29.8442C750.966 30.694 761.426 31.2189 782.446 32.3937Z" fill="#EBE9F0"/>
<path d="M836.747 44.0414C830.066 42.3917 826.738 41.5419 819.681 40.0172C798.311 38.4675 787.701 37.7676 766.656 36.5428C773.437 37.9426 776.665 38.6424 783.297 40.0921C804.492 41.4919 815.302 42.2917 836.747 44.0414Z" fill="#EBE9F0"/>
<path d="M814.927 38.9674C810.347 37.9426 808.02 37.4427 803.316 36.4679C793.932 35.818 789.252 35.518 779.943 34.9182C778.845 34.8467 777.755 34.671 776.69 34.3933C776.14 34.2433 776.04 34.1433 776.365 34.0933H777.066L798.411 35.468C794.057 34.5932 791.855 34.1683 787.375 33.3185C766.305 32.0937 755.845 31.5688 735.051 30.669C746.186 32.5686 751.566 33.5434 762.026 35.668C783.021 36.7428 793.631 37.4427 814.927 38.9674Z" fill="#EBE9F0"/>
<path d="M958.363 89.2325C954.935 87.2829 953.183 86.3081 949.605 84.4334C939.395 82.6088 934.29 81.709 924.156 80.0093C923.176 79.8794 922.242 79.5197 921.428 78.9595C921.153 78.6846 921.303 78.5096 921.778 78.4846H922.629C931.913 80.0093 936.543 80.8092 945.876 82.4338C942.548 80.7342 940.872 79.9343 937.393 78.2597C914.371 74.6354 902.961 72.9857 880.364 69.9363C888.847 73.5606 892.876 75.4602 900.383 79.3594C923.38 83.0087 934.966 84.9584 958.363 89.2325Z" fill="#EBE9F0"/>
<path d="M682.075 533.27C693.961 510.6 699.116 499.852 708.075 479.531C709.001 477.406 713.93 473.932 719.035 471.758C721.235 470.507 723.778 469.99 726.292 470.283C726.793 470.508 726.968 470.933 726.693 471.583C719.536 489.679 715.407 499.077 705.923 519.073C726.267 506.901 735.951 500.927 754.519 489.079C767.932 445.863 771.861 426.591 775.589 392.273C741.732 414.169 722.714 425.442 680.674 448.837C663.282 491.129 651.321 515.024 618.915 569.138C645.365 554.516 658.002 547.343 682.075 533.27Z" fill="#EBE9F0"/>
<path d="M648.543 18.7713C668.912 19.0463 679.197 19.2462 699.767 19.7711C694.537 19.1213 691.909 18.8213 686.554 18.1964L663.808 17.6965C662.585 17.6517 661.365 17.5432 660.154 17.3716C659.479 17.3716 659.253 17.1716 659.478 17.1466H660.154C668.462 17.2966 672.666 17.3966 680.949 17.5965C675.944 17.0217 673.442 16.7467 668.437 16.2218C647.917 15.8969 637.683 15.7719 617.338 15.6719C630.126 16.7467 636.406 17.4716 648.543 18.7713Z" fill="#EBE9F0"/>
<path d="M774.063 476.657C801.063 459.16 813.55 450.612 836.622 434.165C839.125 397.897 838.424 381.675 834.12 352.531C817.579 364.604 808.671 370.802 789.377 383.475C787.776 416.668 784.823 435.165 774.063 476.657Z" fill="#EBE9F0"/>
<path d="M851.537 423.317C865.325 413.144 871.881 408.145 884.218 398.322C883.699 386.599 882.505 374.915 880.639 363.329C880.414 361.929 882.741 359.48 885.794 357.855C887.273 356.882 889.033 356.425 890.799 356.555C891.015 356.585 891.217 356.68 891.378 356.827C891.539 356.975 891.651 357.167 891.7 357.38C893.827 367.655 895.414 378.033 896.454 388.474C906.889 379.926 911.819 375.726 921.153 367.453C912.895 339.034 907.59 326.211 895.378 303.041C879.365 317.869 862.504 331.756 844.88 344.632C850.586 372.727 852.087 388.399 851.537 423.317Z" fill="#EBE9F0"/>
<path d="M1028.28 163.893C1026.87 159.514 1025.11 155.259 1023 151.17C998.827 142.847 986.765 138.998 962.943 131.924C965.048 135.289 966.864 138.826 968.373 142.497C992.196 150.346 1004.21 154.62 1028.28 163.893Z" fill="#EBE9F0"/>
<path d="M616.312 15.8969C619.165 16.7967 620.516 17.2716 623.094 18.1964C635.431 19.4212 641.436 20.0711 653.122 21.4458C650.92 20.471 649.769 19.9711 647.267 18.9463C635.13 17.6965 629.024 17.0717 616.312 15.8969Z" fill="#EBE9F0"/>
<path d="M592.59 13.5223C600.422 14.1472 604.251 14.4722 611.833 15.147C632.177 15.147 642.412 15.322 662.932 15.6219C654.774 14.7721 650.62 14.3722 642.187 13.5973C622.593 13.3974 612.784 13.3724 593.315 13.3974L592.59 13.5223Z" fill="#EBE9F0"/>
<path d="M636.406 13.0724L622.268 11.7477C614.486 11.7477 610.607 11.7477 602.85 11.7477L595.968 12.9225C612.108 12.9225 620.116 12.9475 636.406 13.0724Z" fill="#EBE9F0"/>
<path d="M931.012 358.555C944.575 346.057 950.731 340.058 961.892 328.261C951.574 308.717 939.264 290.289 925.157 273.271C917.024 282.27 912.645 286.869 902.635 296.317C914.509 315.877 924.034 336.767 931.012 358.555Z" fill="#EBE9F0"/>
<path d="M1031.38 211.134C1032.41 205.653 1032.92 200.088 1032.91 194.512C1009.56 182.864 997.876 177.49 974.429 167.667C974.807 172.161 974.748 176.682 974.253 181.164C997.175 192.112 1008.66 198.111 1031.38 211.134Z" fill="#EBE9F0"/>
<path d="M1032.86 190.213C1032.79 186.866 1032.51 183.528 1032.03 180.215C1021.7 175.416 1016.52 173.091 1006.16 168.617C1005.06 168.142 1004.51 167.142 1004.91 166.392C1005.08 166.122 1005.33 165.906 1005.62 165.769C1005.91 165.632 1006.24 165.58 1006.56 165.618C1006.92 165.641 1007.28 165.726 1007.61 165.867C1017.12 169.867 1021.87 171.941 1031.38 176.215C1030.89 173.306 1030.23 170.426 1029.41 167.592C1005.38 158.044 993.397 153.645 969.574 145.546C972.012 151.508 973.539 157.802 974.103 164.218C997.576 173.691 1009.39 178.915 1032.86 190.213Z" fill="#EBE9F0"/>
<path d="M1020.5 245.852C1022.49 241.522 1024.25 237.092 1025.78 232.579C1016.47 225.756 1011.76 222.581 1002.31 216.183C1002.08 216.01 1001.89 215.787 1001.76 215.531C1001.64 215.275 1001.57 214.994 1001.57 214.708C1001.57 214.422 1001.64 214.14 1001.76 213.884C1001.89 213.629 1002.08 213.406 1002.31 213.233C1002.63 212.906 1003.02 212.655 1003.45 212.499C1003.89 212.344 1004.35 212.287 1004.81 212.333C1005.2 212.369 1005.57 212.489 1005.91 212.683C1014.67 218.332 1019.02 221.232 1027.68 227.28C1028.83 223.56 1029.77 219.78 1030.51 215.958C1007.99 202.51 996.625 196.337 973.828 185.039C972.848 193.277 970.717 201.337 967.497 208.984C985.891 220.196 1003.59 232.508 1020.5 245.852Z" fill="#EBE9F0"/>
<path d="M1005.33 273.721C1010.01 266.628 1014.19 259.22 1017.85 251.551C1001.25 237.788 983.81 225.083 965.62 213.508C963.089 219.544 960.129 225.391 956.762 231.005C973.997 244.013 990.232 258.292 1005.33 273.721Z" fill="#EBE9F0"/>
<path d="M969.049 320.512C975.68 313.189 978.758 309.589 984.463 302.541C977.757 292.543 974.304 287.944 967.122 278.895C966.346 277.945 967.122 276.171 968.948 274.921C969.953 274.143 971.208 273.76 972.477 273.846C972.875 273.901 973.245 274.085 973.528 274.371C980.334 282.47 983.537 286.669 990.094 295.392C994.848 289.218 997.05 286.169 1001.1 280.17C986.473 264.261 970.627 249.511 953.709 236.054C946.915 247.165 939.117 257.632 930.412 267.323C945.041 283.716 957.985 301.535 969.049 320.512Z" fill="#EBE9F0"/>
</svg>
