<svg width="82" height="80" viewBox="0 0 82 80" fill="none" xmlns="http://www.w3.org/2000/svg">
<path fill-rule="evenodd" clip-rule="evenodd" d="M20.9387 0.133334C19.5644 0.460218 18.0402 1.4601 17.2579 2.54799C17.0078 2.89567 15.6121 5.653 14.1563 8.67515L11.5094 14.17L10.8209 13.4619C9.53714 12.1413 7.79235 11.5338 5.27576 11.5311C3.75781 11.5294 2.7534 11.8558 2.04741 12.5804C1.23747 13.4116 0.987191 14.1135 0.988285 15.5503C0.989379 17.0806 1.18792 17.8009 1.80182 18.5C2.66476 19.4828 3.21722 19.659 5.43647 19.659C6.51467 19.659 7.39684 19.6956 7.39684 19.7403C7.39684 19.785 7.21503 20.1095 6.99288 20.4614C5.69394 22.5192 5.52089 23.6055 5.52089 29.7053C5.52089 32.6884 5.59092 35.1462 5.69144 35.693C5.95673 37.1366 6.734 38.9767 7.64118 40.3088L8.4691 41.5247L8.51912 44.935C8.56852 48.296 8.5754 48.3569 8.99296 49.1486C9.51853 50.145 10.4878 50.9922 11.4786 51.3214C12.1003 51.5279 12.8341 51.5632 15.6383 51.522C19.535 51.4647 19.7956 51.3933 20.9667 50.0628C21.8338 49.0778 22.0918 48.2295 22.0918 46.3634V44.828H31.7266H41.3613L41.2818 46.0395C40.4922 58.0656 51.5987 67.3328 63.2393 64.3606C63.9334 64.1834 64.551 64.0952 64.6115 64.1646C64.6722 64.2342 66.7053 67.4713 69.1296 71.3584C73.8439 78.9172 74.1712 79.3417 75.6169 79.7711C76.5943 80.0612 77.0206 80.0609 78.0036 79.7691C79.5607 79.3066 80.6876 78.0363 80.9457 76.4525C81.1888 74.9616 80.9997 74.5813 76.1849 66.8757L71.6679 59.6465L72.4826 58.6857C76.2828 54.2044 77.6594 48.0407 76.0942 42.5137C75.5821 40.7049 74.3557 38.2426 73.2093 36.7212C72.2559 35.456 70.1018 33.3157 69.3127 32.8496L68.8723 32.5894L68.7922 28.4301C68.7014 23.7206 68.5532 22.893 67.4241 20.7924L66.8148 19.659H68.816C70.6093 19.659 70.8888 19.6212 71.5063 19.2952C71.8852 19.0953 72.4063 18.6319 72.6642 18.2656C73.1235 17.6136 73.1332 17.5601 73.1332 15.6868C73.1332 13.8654 73.1127 13.743 72.7067 13.1294C72.0447 12.1288 71.1126 11.6664 69.572 11.5738C66.8677 11.4115 64.9767 11.986 63.5085 13.416L62.7218 14.1822L61.7335 12.1135C57.8536 3.99185 57.1781 2.72527 56.2704 1.8689C55.7852 1.41101 54.9201 0.816805 54.336 0.540102L53.2794 0.0396933L37.412 0.0145244C28.1778 -0.000170549 21.2914 0.0495421 20.9387 0.133334ZM53.6293 2.89489C53.9935 3.08952 54.5157 3.48425 54.7894 3.77189C55.0978 4.09596 56.5506 6.86017 58.609 11.039L61.9308 17.783H37.196H12.4611L14.35 13.9139C15.3888 11.7858 16.8347 8.78271 17.5629 7.24036C18.5937 5.05707 19.0476 4.27168 19.6124 3.69357C20.8702 2.40636 19.7979 2.47764 37.412 2.51125L52.9667 2.54096L53.6293 2.89489ZM8.13362 14.5228C8.6556 14.7903 9.06956 15.1781 9.50196 15.8045C10.4604 17.1929 10.4021 17.2267 6.95364 17.2784C4.28808 17.3186 4.10236 17.3025 3.80471 17.0048C3.55427 16.7544 3.48861 16.4839 3.48861 15.7025C3.48861 14.726 3.65229 14.3143 4.11393 14.1296C4.2429 14.078 5.03173 14.0591 5.86684 14.0876C7.10497 14.1298 7.52362 14.2101 8.13362 14.5228ZM70.3626 14.2745C70.6673 14.4879 70.7101 14.6572 70.7101 15.6502C70.7101 16.3225 70.6338 16.8588 70.5225 16.9701C70.3901 17.1025 69.4848 17.1577 67.4473 17.1577C65.0175 17.1577 64.5159 17.118 64.2828 16.9071C64.0201 16.6693 64.0353 16.6171 64.5793 15.8883C65.2394 15.0044 66.0792 14.3987 66.9196 14.2006C67.9465 13.9586 69.9736 14.0021 70.3626 14.2745ZM64.2571 20.4797C64.8634 21.1386 65.5617 22.3927 65.8897 23.4109C66.164 24.263 66.2292 24.9507 66.2943 27.6708C66.3368 29.4549 66.3454 30.9147 66.3132 30.9145C66.281 30.9145 65.5864 30.676 64.7696 30.3846L63.2845 29.8548L63.191 28.0789C63.1397 27.1021 63.0403 26.1623 62.9702 25.9903C62.5425 24.941 61.5004 24.1925 60.4674 24.1925C59.7006 24.1925 53.4314 25.5438 52.6541 25.8767C51.8277 26.2306 50.7522 27.2292 50.3507 28.0156C49.9219 28.8552 49.7964 30.537 50.1161 31.1593L50.3517 31.6182L49.4046 32.1653C48.8837 32.4662 47.7039 33.4336 46.7827 34.3148L45.1078 35.9172H36.9319H28.7559L28.394 36.2571C27.945 36.679 27.9163 37.4589 28.331 37.9712L28.6298 38.3403L35.9911 38.3852C40.0399 38.41 43.3525 38.453 43.3525 38.4808C43.3525 38.5087 43.1483 38.9817 42.899 39.5318C42.6495 40.082 42.3259 40.8975 42.1799 41.344L41.9143 42.156L28.2902 42.2023C15.807 42.2446 14.5877 42.226 13.7282 41.9806C11.0798 41.2239 8.7533 38.4913 8.10016 35.37C7.77218 33.8019 7.77312 25.4654 8.10157 24.0723C8.37952 22.8933 8.96185 21.6928 9.69253 20.7924L10.2317 20.128H37.0826H63.9334L64.2571 20.4797ZM12.6339 24.6413C12.0114 25.0279 11.5199 25.5784 11.3155 26.1177C11.2238 26.3597 11.1487 27.4512 11.1487 28.5433C11.1487 30.8567 11.3396 31.4004 12.3356 31.923C12.9087 32.2236 13.2559 32.2461 17.949 32.2876C22.603 32.3285 22.9897 32.311 23.4987 32.0365C24.2031 31.6568 24.4628 30.9692 24.3503 29.7819C24.2411 28.6323 23.9466 27.9388 23.2316 27.1471C22.3546 26.1765 21.529 25.8566 17.8709 25.0703C14.1609 24.2729 13.3358 24.2053 12.6339 24.6413ZM17.1513 27.4031C18.9438 27.7933 20.6159 28.2188 20.8671 28.3487C21.3203 28.583 21.9337 29.4061 21.9348 29.7813C21.9353 29.9321 21.1055 29.9762 18.3008 29.975C16.3018 29.974 14.4024 29.9296 14.0799 29.8763L13.4937 29.7794V28.3409C13.4937 27.0061 13.5512 26.6938 13.7973 26.6938C13.8496 26.6938 15.359 27.013 17.1513 27.4031ZM60.8282 28.2901L60.8734 29.6517L59.3431 29.5599C58.3825 29.5022 57.4057 29.5418 56.7186 29.6661C56.1168 29.775 54.8613 29.8959 53.9288 29.9346L52.2331 30.0051L52.3422 29.6392C52.4022 29.4378 52.6503 29.0684 52.8936 28.818C53.2929 28.4073 53.6688 28.2901 56.7469 27.6164C58.6229 27.2061 60.2986 26.8833 60.4705 26.8992C60.7532 26.9255 60.7876 27.059 60.8282 28.2901ZM28.7068 31.2284C27.9663 31.5269 27.8097 32.5822 28.4161 33.1885L28.7997 33.5723L37.1314 33.5673C46.0995 33.5619 45.8342 33.5863 46.1564 32.7389C46.3526 32.2228 46.1617 31.664 45.6726 31.3213C45.3556 31.0993 44.3968 31.0721 37.1817 31.0809C32.7084 31.0863 28.8947 31.1528 28.7068 31.2284ZM61.8247 32.0729C66.593 32.9887 70.6319 36.0566 72.751 40.3726C73.9769 42.8696 74.2101 43.9463 74.2073 47.0947C74.2051 49.5324 74.1698 49.8688 73.7804 51.1593C72.1424 56.5873 68.0326 60.6264 62.7962 61.9547C54.437 64.0753 46.1893 59.0895 44.1035 50.655C43.6206 48.7023 43.6194 45.6082 44.1005 43.6857C45.5825 37.7647 50.0762 33.3354 55.8588 32.0954C57.1975 31.8084 60.3844 31.7964 61.8247 32.0729ZM11.9505 43.8045C13.4984 44.5112 14.4688 44.6716 17.2002 44.6716H19.7468V46.0159C19.7468 47.5872 19.4811 48.303 18.7487 48.704C18.3392 48.9282 17.801 48.9707 15.3696 48.9707C12.9382 48.9707 12.4 48.9282 11.9906 48.704C11.1827 48.2616 10.9924 47.6298 10.9924 45.3906C10.9924 44.3072 11.0191 43.421 11.0517 43.421C11.0843 43.421 11.4887 43.5936 11.9505 43.8045ZM74.2261 68.3555C78.9668 75.9721 78.9746 75.9896 78.0149 76.9493C77.6173 77.3469 77.3261 77.5007 76.9711 77.5007C75.8897 77.5007 75.7617 77.3373 71.5499 70.5828C69.3385 67.0364 67.3987 63.9145 67.2393 63.6454L66.9496 63.1561L68.1058 62.4356C68.7418 62.0392 69.3531 61.605 69.4646 61.4709C69.63 61.2716 69.7015 61.2641 69.8547 61.4301C69.9578 61.5419 71.9249 64.6583 74.2261 68.3555Z" fill="url(#paint0_linear_625_45676)"/>
<defs>
<linearGradient id="paint0_linear_625_45676" x1="41.0056" y1="0.0119634" x2="41.0056" y2="79.9507" gradientUnits="userSpaceOnUse">
<stop offset="0.307292" stop-color="#FA7575"/>
<stop offset="1" stop-color="#634CA6"/>
</linearGradient>
</defs>
</svg>
