<svg width="26" height="27" viewBox="0 0 26 27" fill="none" xmlns="http://www.w3.org/2000/svg">
<path d="M7.72091 3.9574C4.30612 6.21029 0.730781 7.73393 0.065912 8.00985L16.9267 19.8188C16.9353 19.8248 16.9423 19.8328 16.947 19.8421C16.9517 19.8514 16.9541 19.8617 16.954 19.8721V19.8729C16.9539 19.8835 16.9512 19.8939 16.9461 19.9032C16.941 19.9125 16.9337 19.9204 16.9248 19.9261L16.1722 20.4216C16.1615 20.4286 16.1489 20.4322 16.1361 20.4321C16.1233 20.432 16.1108 20.4281 16.1002 20.4209L9.94275 16.1826C7.5933 14.5953 5.00165 14.9321 3.24195 15.4947C1.55277 16.0339 0.3081 16.8597 0 17.0751C0.147536 17.1785 12.7367 25.9766 12.8214 26.0364C13.0931 25.7812 14.9375 24.097 18.8141 21.7054C22.9018 19.1873 25.3118 18.3071 25.8693 18.1208L8.97745 6.29192C8.96893 6.28598 8.96196 6.27807 8.95716 6.26887C8.95235 6.25966 8.94985 6.24942 8.94986 6.23903V6.23827C8.94998 6.22773 8.95266 6.21737 8.95767 6.2081C8.96267 6.19882 8.96986 6.19089 8.9786 6.185L9.6975 5.70829C9.70802 5.70135 9.72034 5.69765 9.73295 5.69765C9.74555 5.69765 9.75787 5.70135 9.76839 5.70829C9.791 5.72285 12.0558 7.20971 16.127 10.0761C19.9441 12.7616 25.2681 9.54115 26 9.07364C25.8452 8.96672 13.0563 0.056715 12.9755 0C12.6555 0.272845 10.2965 2.26324 7.72091 3.9574Z" fill="#D52B1E"/>
</svg>
